<svg width="88" height="9" viewBox="0 0 88 9" fill="none" xmlns="http://www.w3.org/2000/svg">
<path d="M2.14457 3.81975C2.46422 3.81975 2.802 3.78171 3.15565 3.70562C3.5093 3.62954 3.83801 3.50871 4.14179 3.34759C4.44557 3.18648 4.69494 2.9739 4.89443 2.71433C5.09393 2.45475 5.19367 2.14371 5.19367 1.78568C5.19367 1.65813 5.16647 1.50597 5.10979 1.33143C5.05312 1.15689 4.95111 0.991302 4.80602 0.832426C4.65866 0.67355 4.46144 0.539289 4.2166 0.429642C3.9695 0.317757 3.65665 0.264052 3.2758 0.264052C2.97202 0.264052 2.70452 0.297618 2.47102 0.366986C2.23752 0.436355 2.04482 0.525862 1.89294 0.635509C1.74105 0.747394 1.63223 0.872705 1.56196 1.01368C1.49168 1.15465 1.47581 1.30234 1.50981 1.4545L0.600752 0.823476C0.695966 0.78991 0.816116 0.727255 0.963471 0.637747C1.11082 0.548239 1.28992 0.458732 1.50075 0.369224C1.71158 0.279716 1.96321 0.199159 2.25339 0.125315C2.54356 0.0537093 2.87001 0.0179062 3.23499 0.0179062C3.70199 0.0179062 4.10325 0.0671354 4.44103 0.165594C4.77881 0.264052 5.05539 0.393839 5.27075 0.55719C5.48611 0.718304 5.64707 0.90627 5.75135 1.12109C5.85563 1.33367 5.90777 1.55968 5.90777 1.79911C5.90777 2.07211 5.85563 2.32049 5.75135 2.54202C5.64707 2.76356 5.51105 2.96271 5.34329 3.13725C5.17554 3.31179 4.98511 3.46395 4.77201 3.5915C4.55892 3.71905 4.34128 3.82646 4.11685 3.91149C4.37529 3.92044 4.6496 3.98086 4.93977 4.09051C5.22995 4.20239 5.49292 4.36127 5.73095 4.57161C5.96898 4.78195 6.16848 5.03929 6.32717 5.34585C6.48812 5.65242 6.56747 6.00821 6.56747 6.40876C6.56747 6.71532 6.51533 7.02636 6.41105 7.3374C6.30677 7.64844 6.12994 7.92815 5.8783 8.17653C5.62667 8.42492 5.29342 8.62407 4.87856 8.77847C4.4637 8.93287 3.94456 9.00896 3.32114 9.00896C2.84507 9.00896 2.41661 8.9463 2.03802 8.82323C1.65944 8.70015 1.32846 8.5547 1.05188 8.38688C0.77531 8.22129 0.550878 8.0557 0.37632 7.89458C0.204029 7.73347 0.0770776 7.61711 0 7.54998L0.999742 6.91C0.95667 7.12258 0.981606 7.33516 1.07682 7.54327C1.17203 7.75361 1.32392 7.93934 1.53022 8.10716C1.73878 8.27275 1.99722 8.40702 2.3078 8.50324C2.61837 8.6017 2.97429 8.65092 3.37101 8.65092C3.87202 8.65092 4.27554 8.57037 4.58385 8.40702C4.8899 8.2459 5.1302 8.04898 5.30476 7.8185C5.47705 7.58802 5.59493 7.34411 5.65387 7.08902C5.71508 6.83392 5.74455 6.61239 5.74455 6.42442C5.74455 6.06639 5.69241 5.75759 5.58813 5.49578C5.48385 5.23621 5.34783 5.01467 5.18007 4.83566C5.01231 4.65664 4.82189 4.51343 4.60879 4.40602C4.39796 4.29861 4.17806 4.21582 3.95363 4.1554C3.42542 4.02785 2.8292 3.99652 2.16271 4.06589L2.13777 3.82198L2.14457 3.81975Z" fill="white"/>
<path d="M13.3256 0.0179062C13.8697 0.0179062 14.3662 0.132029 14.8105 0.358036C15.2548 0.584042 15.6357 0.895082 15.9508 1.29339C16.2659 1.68946 16.5107 2.15266 16.683 2.683C16.8553 3.21333 16.9415 3.78394 16.9415 4.39931C16.9415 5.01467 16.8531 5.58752 16.6762 6.14695C16.4994 6.70637 16.2523 7.19642 15.9372 7.61935C15.6221 8.04227 15.2412 8.37792 14.7946 8.63078C14.3503 8.88141 13.8584 9.00896 13.3234 9.00896C12.7883 9.00896 12.2964 8.89483 11.8521 8.66435C11.4077 8.43387 11.0224 8.11388 10.6982 7.70438C10.374 7.29488 10.1224 6.8093 9.94554 6.2454C9.76871 5.68151 9.6803 5.06838 9.6803 4.40155C9.6803 3.78618 9.76871 3.21557 9.94554 2.68524C10.1224 2.15714 10.3695 1.69394 10.6846 1.29563C10.9997 0.899557 11.3828 0.58628 11.8317 0.360273C12.2805 0.134266 12.7793 0.0201439 13.3234 0.0201439L13.3256 0.0179062ZM13.3256 8.69792C13.7745 8.69792 14.1757 8.56813 14.5249 8.30632C14.874 8.04675 15.1687 7.71109 15.4067 7.3016C15.6447 6.8921 15.8261 6.43113 15.9508 5.9187C16.0755 5.40627 16.139 4.89831 16.139 4.39483C16.139 3.83989 16.0732 3.31403 15.944 2.81278C15.8148 2.31154 15.6266 1.87519 15.3795 1.5015C15.1324 1.12556 14.8377 0.830189 14.4908 0.610895C14.144 0.393839 13.7563 0.284192 13.3234 0.284192C12.8904 0.284192 12.5004 0.402789 12.149 0.642222C11.7999 0.881656 11.5007 1.19717 11.2536 1.58877C11.0065 1.98036 10.8161 2.42119 10.6823 2.90677C10.5486 3.39235 10.4805 3.88911 10.4805 4.3926C10.4805 4.89608 10.5463 5.40403 10.6755 5.91646C10.8047 6.4289 10.9906 6.88986 11.2332 7.29936C11.4758 7.70886 11.7705 8.04451 12.1218 8.30408C12.471 8.56365 12.8722 8.69568 13.3211 8.69568L13.3256 8.69792Z" fill="white"/>
<path d="M20.5483 7.99304C20.6866 7.99304 20.8022 8.04003 20.8975 8.13402C20.9927 8.228 21.0403 8.34436 21.0403 8.47862C21.0403 8.61288 20.9927 8.73148 20.8975 8.82323C20.8022 8.91497 20.6844 8.9642 20.5483 8.9642C20.4123 8.9642 20.2944 8.91721 20.1992 8.82323C20.104 8.72924 20.0564 8.61512 20.0564 8.47862C20.0564 8.34212 20.104 8.228 20.1992 8.13402C20.2944 8.04003 20.41 7.99304 20.5483 7.99304Z" fill="white"/>
<path d="M33.7648 0.0179008C33.6787 0.0358024 33.5993 0.0827939 33.5313 0.158875C33.461 0.228244 33.4044 0.324465 33.3568 0.454251C33.3091 0.581799 33.2865 0.756339 33.2865 0.980109V8.02213C33.2865 8.24366 33.3091 8.4182 33.3568 8.54799C33.4044 8.67553 33.4633 8.77399 33.5313 8.84336C33.5993 8.91944 33.6787 8.96643 33.7648 8.98434H32.0147C32.1008 8.95972 32.1825 8.90825 32.2618 8.82994C32.323 8.7628 32.3752 8.66658 32.4228 8.54127C32.4704 8.4182 32.493 8.24366 32.493 8.02213V1.19493C32.493 0.912978 32.4545 0.704873 32.3774 0.568373C32.3525 0.601939 32.3185 0.637742 32.2799 0.67802C32.2414 0.716061 32.1961 0.772003 32.1439 0.84361C32.0918 0.915216 32.0328 1.01591 31.9694 1.14346C31.9036 1.27101 31.8333 1.43884 31.7563 1.64247C31.7472 1.66708 31.7359 1.69841 31.7245 1.73197C31.7109 1.76554 31.6815 1.8461 31.6338 1.97588C31.5862 2.10567 31.5137 2.29587 31.4139 2.55097C31.3142 2.80607 31.1736 3.16633 30.9923 3.6273C30.8109 4.08826 30.5842 4.67454 30.3122 5.38836C30.0402 6.09995 29.7001 6.97713 29.2943 8.01989C29.2082 8.23247 29.1402 8.40477 29.0925 8.53232C29.0449 8.65987 28.9996 8.75833 28.9565 8.8277C28.9135 8.89707 28.8613 8.93958 28.8001 8.95525C28.7389 8.97315 28.6573 8.97986 28.553 8.97986C28.5439 8.95525 28.5235 8.90378 28.4873 8.82546C28.4623 8.75833 28.4238 8.66211 28.3762 8.5368C28.3286 8.41149 28.2606 8.23918 28.1744 8.01765L25.6445 1.48807C25.5492 1.23968 25.4518 1.04724 25.352 0.906265C25.2523 0.76529 25.1729 0.660119 25.1117 0.592988C25.0414 0.747389 25.0074 0.946543 25.0074 1.19493V8.01765C25.0074 8.23918 25.0301 8.41372 25.0777 8.54351C25.1253 8.67106 25.1843 8.76952 25.2523 8.83889C25.3203 8.91497 25.3996 8.96196 25.4858 8.97986H24.1505C24.2367 8.95525 24.3183 8.90378 24.3976 8.82546C24.4588 8.75833 24.511 8.66211 24.5586 8.5368C24.6062 8.41149 24.6311 8.23918 24.6311 8.01765V0.977871C24.6311 0.756339 24.6062 0.584037 24.5586 0.458726C24.511 0.333416 24.4566 0.239432 24.3976 0.170064C24.3205 0.0939824 24.2367 0.0425155 24.1505 0.0156631H26.3427C26.2656 0.0335647 26.2044 0.0805562 26.1613 0.156638C26.1183 0.226006 26.0956 0.322227 26.0956 0.452013C26.0956 0.581799 26.1387 0.754102 26.2248 0.977871L28.9361 7.97961L31.6474 0.977871C31.7427 0.756339 31.788 0.581799 31.7835 0.452013C31.7789 0.322227 31.7585 0.226006 31.7245 0.156638C31.6815 0.0805562 31.6157 0.0335647 31.5296 0.0156631H33.7603L33.7648 0.0179008Z" fill="white"/>
<path d="M43.9074 8.97987C43.9845 8.95525 44.0457 8.90378 44.0887 8.82546C44.1318 8.75833 44.1545 8.66211 44.1545 8.5368C44.1545 8.41149 44.1069 8.23919 44.0117 8.01766L43.0119 5.57186H39.1082L38.122 8.01766C38.0268 8.23919 37.9792 8.41149 37.9792 8.5368C37.9792 8.66211 37.9973 8.75609 38.0313 8.82546C38.0744 8.90155 38.1356 8.95301 38.2127 8.97987H36.8774C36.9976 8.9463 37.0996 8.89707 37.1812 8.83218C37.2628 8.76728 37.3558 8.6733 37.4601 8.54352C37.5643 8.41597 37.6596 8.24143 37.7457 8.01766L40.9762 0.0179062H41.5724L44.7892 8.01989C44.8845 8.24143 44.9819 8.41597 45.0817 8.54575C45.1814 8.6733 45.2721 8.76952 45.3537 8.83441C45.4353 8.89931 45.5373 8.94854 45.6598 8.9821H43.9096L43.9074 8.97987ZM42.9212 5.35704L41.0532 0.747394C41.0532 0.747394 41.026 0.825713 40.9694 0.957737C40.9127 1.08976 40.8424 1.2643 40.7563 1.48359C40.6701 1.70289 40.5704 1.94903 40.457 2.22651C40.3437 2.50398 40.2326 2.78817 40.1192 3.07683C39.8517 3.75038 39.5434 4.51119 39.1988 5.3548H42.9212V5.35704Z" fill="white"/>
<path d="M46.6186 0.977871C46.4713 0.756339 46.333 0.581799 46.2038 0.452013C46.0745 0.322227 45.9612 0.226006 45.866 0.156638C45.7458 0.0805562 45.6325 0.0335647 45.5282 0.0156631H47.2783C47.2012 0.0425155 47.1536 0.0917447 47.1355 0.170064C47.1174 0.239432 47.1219 0.335653 47.1491 0.458726C47.1763 0.581799 47.2579 0.756339 47.3962 0.977871L49.5748 4.43511L52.0005 0.977871C52.1569 0.756339 52.2544 0.584037 52.2929 0.458726C52.3314 0.333415 52.3428 0.239432 52.3246 0.170064C52.3065 0.0939824 52.2589 0.0425155 52.1818 0.0156631H53.5171C53.4128 0.0335647 53.3017 0.0805562 53.1793 0.156638C53.0659 0.226006 52.9413 0.322227 52.803 0.452013C52.6647 0.579562 52.5173 0.754102 52.3609 0.977871L49.8309 4.58727V8.01765C49.84 8.23918 49.8672 8.41372 49.9148 8.54351C49.9624 8.67106 50.0168 8.76952 50.0758 8.83888C50.1529 8.91497 50.2367 8.96196 50.3229 8.97986H48.5728C48.6589 8.95525 48.7405 8.90378 48.8199 8.82546C48.8811 8.75833 48.9355 8.66211 48.9831 8.5368C49.0307 8.41372 49.0534 8.23918 49.0534 8.01765V4.84237L46.6141 0.975633L46.6186 0.977871Z" fill="white"/>
<path d="M59.6788 0.0179062C60.3022 0.0179062 60.8849 0.136504 61.4289 0.369224C61.973 0.604182 62.4491 0.921934 62.8549 1.32248C63.2607 1.72303 63.5803 2.19742 63.8138 2.74342C64.0473 3.28941 64.1629 3.87121 64.1629 4.48434C64.1629 5.09747 64.0473 5.67927 63.8138 6.22527C63.5803 6.77126 63.2607 7.24565 62.8549 7.6462C62.4491 8.04675 61.973 8.3645 61.4289 8.59946C60.8849 8.83441 60.3 8.95077 59.6788 8.95077C59.0577 8.95077 58.4864 8.83441 57.94 8.59946C57.396 8.3645 56.9199 8.04675 56.5141 7.6462C56.1083 7.24565 55.7887 6.77126 55.5552 6.22527C55.3217 5.67927 55.2061 5.09971 55.2061 4.48434C55.2061 3.86898 55.3217 3.28941 55.5552 2.74342C55.7887 2.19742 56.1083 1.72303 56.5141 1.32248C56.9199 0.921934 57.396 0.604182 57.94 0.369224C58.4841 0.134266 59.0645 0.0179062 59.6788 0.0179062ZM59.6788 8.58379C60.1889 8.58379 60.6672 8.47638 61.1116 8.2638C61.5559 8.05122 61.9458 7.75808 62.2791 7.38663C62.6123 7.01517 62.8753 6.5833 63.0702 6.08653C63.2652 5.592 63.3627 5.06167 63.3627 4.5C63.3627 3.93834 63.2652 3.40577 63.0702 2.90677C62.8753 2.40776 62.6123 1.97141 62.2791 1.60219C61.9458 1.23074 61.5559 0.937598 61.1116 0.725017C60.6672 0.512436 60.1889 0.405027 59.6788 0.405027C59.1688 0.405027 58.7018 0.512436 58.2529 0.725017C57.804 0.937598 57.4141 1.23074 57.0854 1.60219C56.7567 1.97365 56.496 2.40776 56.301 2.90677C56.106 3.40577 56.0086 3.93834 56.0086 4.5C56.0086 5.06167 56.106 5.592 56.301 6.08653C56.496 6.58106 56.7567 7.01517 57.0854 7.38663C57.4141 7.75808 57.804 8.05122 58.2529 8.2638C58.7018 8.47638 59.1778 8.58379 59.6788 8.58379Z" fill="white"/>
<path d="M67.772 7.99304C67.9102 7.99304 68.0259 8.04003 68.1211 8.13402C68.2163 8.228 68.2639 8.34436 68.2639 8.47862C68.2639 8.61288 68.2163 8.73148 68.1211 8.82323C68.0259 8.91497 67.908 8.9642 67.772 8.9642C67.6359 8.9642 67.5158 8.91721 67.4229 8.82323C67.3276 8.72924 67.28 8.61512 67.28 8.47862C67.28 8.34212 67.3276 8.228 67.4229 8.13402C67.5181 8.04003 67.6337 7.99304 67.772 7.99304Z" fill="white"/>
<path d="M71.8843 8.6084C71.8843 8.6084 72.0181 8.5368 72.2607 8.39135C72.5032 8.2459 72.807 8.04674 73.1743 7.79612C73.5415 7.5455 73.9382 7.24341 74.3599 6.89433C74.7838 6.54525 75.176 6.16261 75.541 5.74863C75.9037 5.33466 76.2075 4.89607 76.4478 4.43063C76.6904 3.96519 76.8105 3.49304 76.8105 3.01641C76.8105 2.90453 76.7878 2.70761 76.7448 2.42118C76.7017 2.13476 76.6042 1.84386 76.4523 1.54401C76.3004 1.24639 76.0783 0.98011 75.7836 0.749627C75.4888 0.519145 75.0967 0.405022 74.6025 0.405022C74.2057 0.405022 73.868 0.478866 73.5914 0.628792C73.3148 0.778717 73.0926 0.966683 72.9226 1.19269C72.7549 1.4187 72.6415 1.66708 72.5848 1.9356C72.5282 2.20413 72.5214 2.45475 72.5667 2.68523L71.3743 1.69841C71.5035 1.60443 71.6508 1.46569 71.8163 1.2822C71.9795 1.09871 72.1858 0.912979 72.4329 0.725013C72.68 0.537046 72.9725 0.373695 73.3148 0.23272C73.6571 0.0917455 74.0652 0.022377 74.5413 0.022377C75.1647 0.022377 75.6747 0.123073 76.0715 0.322228C76.4682 0.52362 76.7833 0.772004 77.0123 1.07185C77.2412 1.37171 77.4022 1.69617 77.4929 2.04525C77.5835 2.39433 77.6289 2.72327 77.6289 3.03207C77.6289 3.45947 77.5359 3.88016 77.35 4.29413C77.1642 4.70811 76.9239 5.10194 76.6314 5.47787C76.3367 5.8538 76.008 6.20736 75.6453 6.54078C75.2826 6.87419 74.9221 7.17404 74.5617 7.44257C74.2035 7.71109 73.8657 7.94605 73.5506 8.14744C73.2355 8.34883 72.9816 8.50323 72.7911 8.61512H74.7249C75.312 8.61512 75.7768 8.57036 76.1191 8.48086C76.4614 8.39135 76.7221 8.29513 76.9035 8.19219C77.112 8.06464 77.2526 7.92367 77.3319 7.76927V8.99776H71.8843V8.61288V8.6084Z" fill="white"/>
<path d="M84.3867 2.19294C85.0101 2.19294 85.5474 2.29364 86.0008 2.49279C86.4542 2.69194 86.8305 2.95375 87.1298 3.27374C87.429 3.59373 87.6489 3.95624 87.7917 4.36126C87.9345 4.76629 88.0048 5.17802 88.0048 5.59647C88.0048 6.01492 87.9345 6.42665 87.7917 6.83168C87.6489 7.2367 87.429 7.5992 87.1298 7.91919C86.8305 8.23918 86.4542 8.49876 86.0008 8.70015C85.5474 8.90154 85.0079 9 84.3867 9C83.7656 9 83.2373 8.8993 82.7794 8.70015C82.3215 8.49876 81.9406 8.23918 81.6368 7.91919C81.3331 7.5992 81.1086 7.2367 80.9636 6.83168C80.8162 6.42665 80.7437 6.01492 80.7437 5.59647C80.7437 4.74391 80.8207 4.01218 80.9772 3.40129C81.1336 2.7904 81.3331 2.28021 81.5802 1.864C81.8273 1.45002 82.0993 1.11885 82.3963 0.8727C82.6955 0.624316 82.9857 0.43635 83.2713 0.308802C83.557 0.181253 83.8177 0.0984585 84.0557 0.05818C84.2938 0.0201392 84.4729 0 84.5953 0C85.1303 0 85.5655 0.0693685 85.8988 0.210343C86.232 0.351318 86.4973 0.507956 86.6968 0.678021C86.9212 0.874938 87.0912 1.10094 87.2023 1.35604L86.1912 1.81701C86.2683 1.68051 86.2751 1.52387 86.2116 1.34933C86.1459 1.17479 86.0371 1.0092 85.8807 0.857036C85.7242 0.704873 85.5338 0.572849 85.3094 0.46544C85.0849 0.358031 84.8424 0.306564 84.5839 0.306564C84.0217 0.306564 83.498 0.532571 83.0152 0.984585C82.53 1.4366 82.1537 2.1191 81.8862 3.03207C82.1877 2.77698 82.5459 2.57111 82.9562 2.41671C83.3666 2.26231 83.8449 2.18623 84.389 2.18623L84.3867 2.19294ZM84.3867 8.74714C84.8968 8.74714 85.3298 8.6554 85.6834 8.4719C86.0371 8.28841 86.3272 8.04674 86.5517 7.74913C86.7761 7.45152 86.9416 7.11363 87.0436 6.73769C87.1456 6.36176 87.2 5.98583 87.2 5.6099C87.2 5.23396 87.1479 4.84684 87.0436 4.47091C86.9393 4.09498 86.7761 3.75932 86.5517 3.45947C86.3272 3.16186 86.0371 2.92019 85.6834 2.7367C85.3298 2.55321 84.8968 2.46146 84.3867 2.46146C83.8766 2.46146 83.4527 2.55321 83.09 2.7367C82.7273 2.92019 82.4326 3.16186 82.2081 3.45947C81.9837 3.75709 81.8159 4.09498 81.7094 4.47091C81.6006 4.84684 81.5484 5.22725 81.5484 5.6099C81.5484 5.99254 81.6028 6.36176 81.7094 6.73769C81.8182 7.11363 81.9837 7.44928 82.2081 7.74913C82.4326 8.04674 82.7273 8.28841 83.09 8.4719C83.4527 8.6554 83.8857 8.74714 84.3867 8.74714Z" fill="white"/>
</svg>
