<svg width="34" height="16" viewBox="0 0 34 16" fill="none" xmlns="http://www.w3.org/2000/svg">
<path d="M19.2257 3.74968H15.676C15.3033 3.74968 15 3.44208 15 3.06421V0.835464C15 0.457598 15.3033 0.150002 15.676 0.150002H19.2257C19.5983 0.150002 19.9016 0.457598 19.9016 0.835464V3.06421C19.9016 3.44208 19.5983 3.74968 19.2257 3.74968ZM15.676 0.235519C15.3497 0.235519 15.0843 0.504666 15.0843 0.835464V3.06421C15.0843 3.39501 15.3497 3.66416 15.676 3.66416H19.2257C19.5519 3.66416 19.8173 3.39501 19.8173 3.06421V0.835464C19.8173 0.504666 19.5519 0.235519 19.2257 0.235519H15.676Z" stroke="white" stroke-width="0.3" stroke-miterlimit="10"/>
<path d="M19.7913 1.26172H15.0426V1.34724H19.7913V1.26172Z" stroke="white" stroke-width="0.3" stroke-miterlimit="10"/>
<path d="M13.9664 7.61C13.9664 7.545 13.9779 7.4815 14.0009 7.4195C14.0249 7.3565 14.0594 7.2995 14.1044 7.2485C14.1494 7.1965 14.2044 7.1555 14.2694 7.1255C14.3344 7.0945 14.4084 7.079 14.4914 7.079C14.5894 7.079 14.6739 7.1005 14.7449 7.1435C14.8169 7.1865 14.8704 7.2425 14.9054 7.3115L14.7464 7.421C14.7284 7.381 14.7049 7.3495 14.6759 7.3265C14.6469 7.3025 14.6159 7.286 14.5829 7.277C14.5499 7.267 14.5174 7.262 14.4854 7.262C14.4334 7.262 14.3879 7.2725 14.3489 7.2935C14.3109 7.3145 14.2789 7.342 14.2529 7.376C14.2269 7.41 14.2074 7.448 14.1944 7.49C14.1824 7.532 14.1764 7.574 14.1764 7.616C14.1764 7.663 14.1839 7.7085 14.1989 7.7525C14.2139 7.7955 14.2349 7.834 14.2619 7.868C14.2899 7.901 14.3229 7.9275 14.3609 7.9475C14.3999 7.9665 14.4424 7.976 14.4884 7.976C14.5214 7.976 14.5549 7.9705 14.5889 7.9595C14.6229 7.9485 14.6544 7.931 14.6834 7.907C14.7124 7.883 14.7349 7.852 14.7509 7.814L14.9204 7.9115C14.8994 7.9645 14.8649 8.0095 14.8169 8.0465C14.7699 8.0835 14.7169 8.1115 14.6579 8.1305C14.5989 8.1495 14.5404 8.159 14.4824 8.159C14.4064 8.159 14.3369 8.1435 14.2739 8.1125C14.2109 8.0805 14.1564 8.0385 14.1104 7.9865C14.0654 7.9335 14.0299 7.8745 14.0039 7.8095C13.9789 7.7435 13.9664 7.677 13.9664 7.61ZM15.7357 8.1575C15.6507 8.1575 15.5782 8.1435 15.5182 8.1155C15.4592 8.0865 15.4112 8.047 15.3742 7.997C15.3382 7.947 15.3117 7.8905 15.2947 7.8275C15.2777 7.7635 15.2692 7.697 15.2692 7.628V7.085H15.4762V7.628C15.4762 7.672 15.4802 7.715 15.4882 7.757C15.4972 7.798 15.5117 7.835 15.5317 7.868C15.5517 7.901 15.5782 7.927 15.6112 7.946C15.6442 7.965 15.6852 7.9745 15.7342 7.9745C15.7842 7.9745 15.8257 7.965 15.8587 7.946C15.8927 7.926 15.9192 7.8995 15.9382 7.8665C15.9582 7.8335 15.9727 7.7965 15.9817 7.7555C15.9907 7.7135 15.9952 7.671 15.9952 7.628V7.085H16.2007V7.628C16.2007 7.701 16.1917 7.7695 16.1737 7.8335C16.1567 7.8975 16.1292 7.954 16.0912 8.003C16.0542 8.051 16.0062 8.089 15.9472 8.117C15.8882 8.144 15.8177 8.1575 15.7357 8.1575ZM17.3737 7.9685V8.15H16.6342V7.085H17.3602V7.2665H16.8412V7.523H17.2897V7.691H16.8412V7.9685H17.3737ZM17.9671 7.466V8.15H17.7601V7.085H17.9251L18.4756 7.787V7.0865H18.6826V8.15H18.5101L17.9671 7.466ZM19.9257 7.2665H19.5852V8.15H19.3797V7.2665H19.0392V7.085H19.9257V7.2665ZM20.4728 7.085H20.6828L21.0743 8.15H20.8613L20.7623 7.8845H20.3903L20.2928 8.15H20.0798L20.4728 7.085ZM20.7248 7.739L20.5778 7.2995L20.4248 7.739H20.7248Z" fill="white"/>
<path d="M8.04818 11.3735C7.97118 11.3735 7.90168 11.357 7.83968 11.324C7.77768 11.291 7.73068 11.246 7.69868 11.189L7.81418 11.069C7.84218 11.108 7.87718 11.139 7.91918 11.162C7.96118 11.185 8.00468 11.1965 8.04968 11.1965C8.08568 11.1965 8.11718 11.189 8.14418 11.174C8.17218 11.159 8.19418 11.138 8.21018 11.111C8.22618 11.084 8.23418 11.053 8.23418 11.018C8.23418 10.983 8.22668 10.9525 8.21168 10.9265C8.19668 10.9005 8.17618 10.8805 8.15018 10.8665C8.12418 10.8515 8.09468 10.844 8.06168 10.844C8.02868 10.844 7.99768 10.8515 7.96868 10.8665C7.94068 10.8805 7.91818 10.901 7.90118 10.928H7.72568L7.84868 10.2935H8.37368V10.4765H7.99418L7.95068 10.715C7.96368 10.703 7.98168 10.693 8.00468 10.685C8.02768 10.676 8.05618 10.6715 8.09018 10.6715C8.15718 10.6715 8.21718 10.686 8.27018 10.715C8.32318 10.744 8.36468 10.7845 8.39468 10.8365C8.42468 10.8875 8.43968 10.9465 8.43968 11.0135C8.43968 11.0845 8.42268 11.147 8.38868 11.201C8.35468 11.256 8.30818 11.2985 8.24918 11.3285C8.19018 11.3585 8.12318 11.3735 8.04818 11.3735ZM9.10374 11.3735C9.02674 11.3735 8.95724 11.357 8.89524 11.324C8.83324 11.291 8.78624 11.246 8.75424 11.189L8.86974 11.069C8.89774 11.108 8.93274 11.139 8.97474 11.162C9.01674 11.185 9.06024 11.1965 9.10524 11.1965C9.14124 11.1965 9.17274 11.189 9.19974 11.174C9.22774 11.159 9.24974 11.138 9.26574 11.111C9.28174 11.084 9.28974 11.053 9.28974 11.018C9.28974 10.983 9.28224 10.9525 9.26724 10.9265C9.25224 10.9005 9.23174 10.8805 9.20574 10.8665C9.17974 10.8515 9.15024 10.844 9.11724 10.844C9.08424 10.844 9.05324 10.8515 9.02424 10.8665C8.99624 10.8805 8.97374 10.901 8.95674 10.928H8.78124L8.90424 10.2935H9.42924V10.4765H9.04974L9.00624 10.715C9.01924 10.703 9.03724 10.693 9.06024 10.685C9.08324 10.676 9.11174 10.6715 9.14574 10.6715C9.21274 10.6715 9.27274 10.686 9.32574 10.715C9.37874 10.744 9.42024 10.7845 9.45024 10.8365C9.48024 10.8875 9.49524 10.9465 9.49524 11.0135C9.49524 11.0845 9.47824 11.147 9.44424 11.201C9.41024 11.256 9.36374 11.2985 9.30474 11.3285C9.24574 11.3585 9.17874 11.3735 9.10374 11.3735ZM10.2928 10.4585H9.80831V10.2755H10.6093L10.0813 11.3405H9.85331L10.2928 10.4585ZM10.8801 10.664C10.8801 10.595 10.8971 10.5325 10.9311 10.4765C10.9651 10.4205 11.0116 10.376 11.0706 10.343C11.1296 10.31 11.1956 10.2935 11.2686 10.2935C11.3496 10.2935 11.4191 10.313 11.4771 10.352C11.5361 10.391 11.5816 10.447 11.6136 10.52C11.6456 10.592 11.6616 10.6795 11.6616 10.7825C11.6616 10.9115 11.6446 11.0205 11.6106 11.1095C11.5776 11.1985 11.5301 11.266 11.4681 11.312C11.4061 11.358 11.3331 11.381 11.2491 11.381C11.1821 11.381 11.1201 11.3665 11.0631 11.3375C11.0061 11.3085 10.9581 11.267 10.9191 11.213L11.0346 11.087C11.0586 11.124 11.0896 11.153 11.1276 11.174C11.1666 11.196 11.2081 11.207 11.2521 11.207C11.2971 11.207 11.3356 11.195 11.3676 11.171C11.4006 11.147 11.4261 11.1125 11.4441 11.0675C11.4631 11.0215 11.4731 10.9665 11.4741 10.9025C11.4611 10.9255 11.4431 10.946 11.4201 10.964C11.3981 10.982 11.3726 10.996 11.3436 11.006C11.3156 11.015 11.2846 11.0195 11.2506 11.0195C11.1816 11.0195 11.1186 11.004 11.0616 10.973C11.0056 10.941 10.9611 10.8985 10.9281 10.8455C10.8961 10.7915 10.8801 10.731 10.8801 10.664ZM11.2686 10.463C11.2336 10.463 11.2011 10.4725 11.1711 10.4915C11.1411 10.5095 11.1171 10.5335 11.0991 10.5635C11.0811 10.5935 11.0721 10.627 11.0721 10.664C11.0721 10.7 11.0806 10.733 11.0976 10.763C11.1156 10.792 11.1396 10.8155 11.1696 10.8335C11.1996 10.8505 11.2326 10.859 11.2686 10.859C11.3046 10.859 11.3371 10.8505 11.3661 10.8335C11.3961 10.8155 11.4201 10.792 11.4381 10.763C11.4561 10.733 11.4651 10.7 11.4651 10.664C11.4651 10.628 11.4561 10.595 11.4381 10.565C11.4201 10.534 11.3961 10.5095 11.3661 10.4915C11.3361 10.4725 11.3036 10.463 11.2686 10.463ZM12.5828 11.15C12.5828 11.105 12.5863 11.0645 12.5933 11.0285C12.6003 10.9925 12.6123 10.959 12.6293 10.928C12.6473 10.897 12.6713 10.868 12.7013 10.841C12.7323 10.813 12.7713 10.786 12.8183 10.76C12.8593 10.738 12.8953 10.719 12.9263 10.703C12.9573 10.686 12.9833 10.6705 13.0043 10.6565C13.0263 10.6425 13.0428 10.6285 13.0538 10.6145C13.0648 10.5995 13.0703 10.5825 13.0703 10.5635C13.0703 10.5435 13.0648 10.5255 13.0538 10.5095C13.0428 10.4925 13.0273 10.479 13.0073 10.469C12.9873 10.459 12.9623 10.454 12.9323 10.454C12.9083 10.454 12.8858 10.457 12.8648 10.463C12.8448 10.469 12.8258 10.4775 12.8078 10.4885C12.7908 10.4995 12.7748 10.512 12.7598 10.526C12.7448 10.539 12.7313 10.553 12.7193 10.568L12.5918 10.421C12.6058 10.407 12.6243 10.392 12.6473 10.376C12.6713 10.359 12.6993 10.3435 12.7313 10.3295C12.7643 10.3145 12.8003 10.3025 12.8393 10.2935C12.8793 10.2835 12.9218 10.2785 12.9668 10.2785C13.0348 10.2785 13.0928 10.2895 13.1408 10.3115C13.1888 10.3325 13.2253 10.362 13.2503 10.4C13.2763 10.438 13.2893 10.4825 13.2893 10.5335C13.2893 10.5685 13.2828 10.5995 13.2698 10.6265C13.2568 10.6535 13.2403 10.6775 13.2203 10.6985C13.2003 10.7185 13.1783 10.7365 13.1543 10.7525C13.1313 10.7685 13.1088 10.7825 13.0868 10.7945C13.0558 10.8105 13.0278 10.8255 13.0028 10.8395C12.9778 10.8525 12.9558 10.866 12.9368 10.88C12.9178 10.893 12.9008 10.9065 12.8858 10.9205C12.8718 10.9345 12.8593 10.9505 12.8483 10.9685H13.3058V11.15H12.5828ZM14.445 10.7105C14.445 10.7985 14.428 10.877 14.394 10.946C14.361 11.014 14.315 11.0675 14.256 11.1065C14.198 11.1455 14.132 11.165 14.058 11.165C13.984 11.165 13.9175 11.1455 13.8585 11.1065C13.8005 11.0675 13.7545 11.014 13.7205 10.946C13.6875 10.877 13.671 10.7985 13.671 10.7105C13.671 10.6225 13.6875 10.5445 13.7205 10.4765C13.7545 10.4075 13.8005 10.3535 13.8585 10.3145C13.9175 10.2745 13.984 10.2545 14.058 10.2545C14.132 10.2545 14.198 10.2745 14.256 10.3145C14.315 10.3535 14.361 10.4075 14.394 10.4765C14.428 10.5445 14.445 10.6225 14.445 10.7105ZM14.2425 10.7105C14.2425 10.6565 14.2345 10.6095 14.2185 10.5695C14.2035 10.5285 14.182 10.4965 14.154 10.4735C14.126 10.4505 14.094 10.439 14.058 10.439C14.021 10.439 13.9885 10.4505 13.9605 10.4735C13.9325 10.4965 13.9105 10.5285 13.8945 10.5695C13.8795 10.6095 13.872 10.6565 13.872 10.7105C13.872 10.7645 13.8795 10.8115 13.8945 10.8515C13.9105 10.8915 13.9325 10.923 13.9605 10.946C13.9885 10.969 14.021 10.9805 14.058 10.9805C14.094 10.9805 14.1255 10.969 14.1525 10.946C14.1805 10.923 14.2025 10.8915 14.2185 10.8515C14.2345 10.8105 14.2425 10.7635 14.2425 10.7105ZM14.7918 10.664C14.7918 10.595 14.8088 10.5325 14.8428 10.4765C14.8768 10.4205 14.9233 10.376 14.9823 10.343C15.0413 10.31 15.1073 10.2935 15.1803 10.2935C15.2613 10.2935 15.3308 10.313 15.3888 10.352C15.4478 10.391 15.4933 10.447 15.5253 10.52C15.5573 10.592 15.5733 10.6795 15.5733 10.7825C15.5733 10.9115 15.5563 11.0205 15.5223 11.1095C15.4893 11.1985 15.4418 11.266 15.3798 11.312C15.3178 11.358 15.2448 11.381 15.1608 11.381C15.0938 11.381 15.0318 11.3665 14.9748 11.3375C14.9178 11.3085 14.8698 11.267 14.8308 11.213L14.9463 11.087C14.9703 11.124 15.0013 11.153 15.0393 11.174C15.0783 11.196 15.1198 11.207 15.1638 11.207C15.2088 11.207 15.2473 11.195 15.2793 11.171C15.3123 11.147 15.3378 11.1125 15.3558 11.0675C15.3748 11.0215 15.3848 10.9665 15.3858 10.9025C15.3728 10.9255 15.3548 10.946 15.3318 10.964C15.3098 10.982 15.2843 10.996 15.2553 11.006C15.2273 11.015 15.1963 11.0195 15.1623 11.0195C15.0933 11.0195 15.0303 11.004 14.9733 10.973C14.9173 10.941 14.8728 10.8985 14.8398 10.8455C14.8078 10.7915 14.7918 10.731 14.7918 10.664ZM15.1803 10.463C15.1453 10.463 15.1128 10.4725 15.0828 10.4915C15.0528 10.5095 15.0288 10.5335 15.0108 10.5635C14.9928 10.5935 14.9838 10.627 14.9838 10.664C14.9838 10.7 14.9923 10.733 15.0093 10.763C15.0273 10.792 15.0513 10.8155 15.0813 10.8335C15.1113 10.8505 15.1443 10.859 15.1803 10.859C15.2163 10.859 15.2488 10.8505 15.2778 10.8335C15.3078 10.8155 15.3318 10.792 15.3498 10.763C15.3678 10.733 15.3768 10.7 15.3768 10.664C15.3768 10.628 15.3678 10.595 15.3498 10.565C15.3318 10.534 15.3078 10.5095 15.2778 10.4915C15.2478 10.4725 15.2153 10.463 15.1803 10.463ZM16.5571 10.9685V11.15H15.9481V10.9685H16.1611V10.514C16.1521 10.526 16.1381 10.5385 16.1191 10.5515C16.1001 10.5635 16.0786 10.575 16.0546 10.586C16.0306 10.597 16.0066 10.606 15.9826 10.613C15.9586 10.62 15.9371 10.6235 15.9181 10.6235V10.436C15.9361 10.436 15.9576 10.4305 15.9826 10.4195C16.0086 10.4075 16.0341 10.3935 16.0591 10.3775C16.0851 10.3615 16.1071 10.346 16.1251 10.331C16.1441 10.315 16.1561 10.3025 16.1611 10.2935H16.3666V10.9685H16.5571ZM17.7967 11.3735C17.7197 11.3735 17.6502 11.357 17.5882 11.324C17.5262 11.291 17.4792 11.246 17.4472 11.189L17.5627 11.069C17.5907 11.108 17.6257 11.139 17.6677 11.162C17.7097 11.185 17.7532 11.1965 17.7982 11.1965C17.8342 11.1965 17.8657 11.189 17.8927 11.174C17.9207 11.159 17.9427 11.138 17.9587 11.111C17.9747 11.084 17.9827 11.053 17.9827 11.018C17.9827 10.983 17.9752 10.9525 17.9602 10.9265C17.9452 10.9005 17.9247 10.8805 17.8987 10.8665C17.8727 10.8515 17.8432 10.844 17.8102 10.844C17.7772 10.844 17.7462 10.8515 17.7172 10.8665C17.6892 10.8805 17.6667 10.901 17.6497 10.928H17.4742L17.5972 10.2935H18.1222V10.4765H17.7427L17.6992 10.715C17.7122 10.703 17.7302 10.693 17.7532 10.685C17.7762 10.676 17.8047 10.6715 17.8387 10.6715C17.9057 10.6715 17.9657 10.686 18.0187 10.715C18.0717 10.744 18.1132 10.7845 18.1432 10.8365C18.1732 10.8875 18.1882 10.9465 18.1882 11.0135C18.1882 11.0845 18.1712 11.147 18.1372 11.201C18.1032 11.256 18.0567 11.2985 17.9977 11.3285C17.9387 11.3585 17.8717 11.3735 17.7967 11.3735ZM19.3068 10.7105C19.3068 10.7985 19.2898 10.877 19.2558 10.946C19.2228 11.014 19.1768 11.0675 19.1178 11.1065C19.0598 11.1455 18.9938 11.165 18.9198 11.165C18.8458 11.165 18.7793 11.1455 18.7203 11.1065C18.6623 11.0675 18.6163 11.014 18.5823 10.946C18.5493 10.877 18.5328 10.7985 18.5328 10.7105C18.5328 10.6225 18.5493 10.5445 18.5823 10.4765C18.6163 10.4075 18.6623 10.3535 18.7203 10.3145C18.7793 10.2745 18.8458 10.2545 18.9198 10.2545C18.9938 10.2545 19.0598 10.2745 19.1178 10.3145C19.1768 10.3535 19.2228 10.4075 19.2558 10.4765C19.2898 10.5445 19.3068 10.6225 19.3068 10.7105ZM19.1043 10.7105C19.1043 10.6565 19.0963 10.6095 19.0803 10.5695C19.0653 10.5285 19.0438 10.4965 19.0158 10.4735C18.9878 10.4505 18.9558 10.439 18.9198 10.439C18.8828 10.439 18.8503 10.4505 18.8223 10.4735C18.7943 10.4965 18.7723 10.5285 18.7563 10.5695C18.7413 10.6095 18.7338 10.6565 18.7338 10.7105C18.7338 10.7645 18.7413 10.8115 18.7563 10.8515C18.7723 10.8915 18.7943 10.923 18.8223 10.946C18.8503 10.969 18.8828 10.9805 18.9198 10.9805C18.9558 10.9805 18.9873 10.969 19.0143 10.946C19.0423 10.923 19.0643 10.8915 19.0803 10.8515C19.0963 10.8105 19.1043 10.7635 19.1043 10.7105ZM20.4562 10.7945C20.4562 10.8635 20.4387 10.926 20.4037 10.982C20.3697 11.038 20.3232 11.0825 20.2642 11.1155C20.2062 11.1485 20.1402 11.165 20.0662 11.165C19.9862 11.165 19.9167 11.1455 19.8577 11.1065C19.7997 11.0675 19.7547 11.0115 19.7227 10.9385C19.6907 10.8655 19.6747 10.778 19.6747 10.676C19.6747 10.547 19.6912 10.438 19.7242 10.349C19.7582 10.259 19.8062 10.1915 19.8682 10.1465C19.9302 10.1005 20.0032 10.0775 20.0872 10.0775C20.1542 10.0775 20.2157 10.092 20.2717 10.121C20.3287 10.15 20.3767 10.1915 20.4157 10.2455L20.3002 10.3715C20.2762 10.3345 20.2452 10.3055 20.2072 10.2845C20.1692 10.2625 20.1282 10.2515 20.0842 10.2515C20.0392 10.2515 20.0002 10.2635 19.9672 10.2875C19.9342 10.3115 19.9087 10.3465 19.8907 10.3925C19.8727 10.4375 19.8627 10.492 19.8607 10.556C19.8747 10.532 19.8927 10.5115 19.9147 10.4945C19.9367 10.4765 19.9622 10.463 19.9912 10.454C20.0202 10.444 20.0512 10.439 20.0842 10.439C20.1552 10.439 20.2187 10.455 20.2747 10.487C20.3307 10.518 20.3747 10.5605 20.4067 10.6145C20.4397 10.6675 20.4562 10.7275 20.4562 10.7945ZM20.0662 10.9955C20.1022 10.9955 20.1352 10.9865 20.1652 10.9685C20.1952 10.9495 20.2192 10.925 20.2372 10.895C20.2552 10.864 20.2642 10.8305 20.2642 10.7945C20.2642 10.7585 20.2552 10.726 20.2372 10.697C20.2192 10.667 20.1952 10.6435 20.1652 10.6265C20.1362 10.6085 20.1037 10.5995 20.0677 10.5995C20.0317 10.5995 19.9987 10.6085 19.9687 10.6265C19.9387 10.6435 19.9147 10.667 19.8967 10.697C19.8797 10.726 19.8712 10.7585 19.8712 10.7945C19.8712 10.8305 19.8802 10.864 19.8982 10.895C19.9162 10.925 19.9402 10.9495 19.9702 10.9685C20.0002 10.9865 20.0322 10.9955 20.0662 10.9955ZM21.2098 11.3405V11.117H20.7718V10.9385L21.2743 10.2935H21.4108V10.937H21.5428V11.117H21.4108V11.3405H21.2098ZM20.9728 10.937H21.2323V10.598L20.9728 10.937ZM23.1141 10.9685V11.15H22.5051V10.9685H22.7181V10.514C22.7091 10.526 22.6951 10.5385 22.6761 10.5515C22.6571 10.5635 22.6356 10.575 22.6116 10.586C22.5876 10.597 22.5636 10.606 22.5396 10.613C22.5156 10.62 22.4941 10.6235 22.4751 10.6235V10.436C22.4931 10.436 22.5146 10.4305 22.5396 10.4195C22.5656 10.4075 22.5911 10.3935 22.6161 10.3775C22.6421 10.3615 22.6641 10.346 22.6821 10.331C22.7011 10.315 22.7131 10.3025 22.7181 10.2935H22.9236V10.9685H23.1141ZM24.2228 10.7105C24.2228 10.7985 24.2058 10.877 24.1718 10.946C24.1388 11.014 24.0928 11.0675 24.0338 11.1065C23.9758 11.1455 23.9098 11.165 23.8358 11.165C23.7618 11.165 23.6953 11.1455 23.6363 11.1065C23.5783 11.0675 23.5323 11.014 23.4983 10.946C23.4653 10.877 23.4488 10.7985 23.4488 10.7105C23.4488 10.6225 23.4653 10.5445 23.4983 10.4765C23.5323 10.4075 23.5783 10.3535 23.6363 10.3145C23.6953 10.2745 23.7618 10.2545 23.8358 10.2545C23.9098 10.2545 23.9758 10.2745 24.0338 10.3145C24.0928 10.3535 24.1388 10.4075 24.1718 10.4765C24.2058 10.5445 24.2228 10.6225 24.2228 10.7105ZM24.0203 10.7105C24.0203 10.6565 24.0123 10.6095 23.9963 10.5695C23.9813 10.5285 23.9598 10.4965 23.9318 10.4735C23.9038 10.4505 23.8718 10.439 23.8358 10.439C23.7988 10.439 23.7663 10.4505 23.7383 10.4735C23.7103 10.4965 23.6883 10.5285 23.6723 10.5695C23.6573 10.6095 23.6498 10.6565 23.6498 10.7105C23.6498 10.7645 23.6573 10.8115 23.6723 10.8515C23.6883 10.8915 23.7103 10.923 23.7383 10.946C23.7663 10.969 23.7988 10.9805 23.8358 10.9805C23.8718 10.9805 23.9033 10.969 23.9303 10.946C23.9583 10.923 23.9803 10.8915 23.9963 10.8515C24.0123 10.8105 24.0203 10.7635 24.0203 10.7105ZM25.2267 10.9685V11.15H24.6177V10.9685H24.8307V10.514C24.8217 10.526 24.8077 10.5385 24.7887 10.5515C24.7697 10.5635 24.7482 10.575 24.7242 10.586C24.7002 10.597 24.6762 10.606 24.6522 10.613C24.6282 10.62 24.6067 10.6235 24.5877 10.6235V10.436C24.6057 10.436 24.6272 10.4305 24.6522 10.4195C24.6782 10.4075 24.7037 10.3935 24.7287 10.3775C24.7547 10.3615 24.7767 10.346 24.7947 10.331C24.8137 10.315 24.8257 10.3025 24.8307 10.2935H25.0362V10.9685H25.2267ZM25.9559 11.3405V11.117H25.5179V10.9385L26.0204 10.2935H26.1569V10.937H26.2889V11.117H26.1569V11.3405H25.9559ZM25.7189 10.937H25.9784V10.598L25.7189 10.937ZM1.19142 12.9325C1.20442 12.9415 1.22742 12.9525 1.26042 12.9655C1.29342 12.9775 1.33242 12.9835 1.37742 12.9835C1.41642 12.9835 1.44842 12.977 1.47342 12.964C1.49842 12.95 1.51742 12.9295 1.53042 12.9025C1.54442 12.8755 1.55342 12.8405 1.55742 12.7975C1.56242 12.7545 1.56492 12.703 1.56492 12.643V12.085H1.77192V12.6265C1.77192 12.7065 1.76742 12.7795 1.75842 12.8455C1.74942 12.9115 1.73192 12.9685 1.70592 13.0165C1.67992 13.0645 1.64042 13.1015 1.58742 13.1275C1.53542 13.1535 1.46592 13.1665 1.37892 13.1665C1.33092 13.1665 1.28792 13.161 1.24992 13.15C1.21192 13.139 1.17692 13.1225 1.14492 13.1005L1.19142 12.9325ZM2.47037 12.085H2.68037L3.07187 13.15H2.85887L2.75987 12.8845H2.38787L2.29037 13.15H2.07737L2.47037 12.085ZM2.72237 12.739L2.57537 12.2995L2.42237 12.739H2.72237ZM3.41369 13.15V12.085H3.62069V13.15H3.41369ZM4.93639 13.15V12.451L4.66339 12.9715H4.54789L4.27489 12.451V13.15H4.06789V12.085H4.28989L4.60489 12.691L4.92289 12.085H5.14339V13.15H4.93639ZM6.33024 12.9685V13.15H5.59074V12.085H6.31674V12.2665H5.79774V12.523H6.24624V12.691H5.79774V12.9685H6.33024ZM7.54459 12.085H7.75459L8.14609 13.15H7.93309L7.83409 12.8845H7.46209L7.36459 13.15H7.15159L7.54459 12.085ZM7.79659 12.739L7.64959 12.2995L7.49659 12.739H7.79659ZM8.4879 13.15V12.085H8.6949V12.9685H9.2379V13.15H8.4879ZM10.3284 12.9685V13.15H9.58888V12.085H10.3149V12.2665H9.79588V12.523H10.2444V12.691H9.79588V12.9685H10.3284ZM10.6608 12.9325C10.6738 12.9415 10.6968 12.9525 10.7298 12.9655C10.7628 12.9775 10.8018 12.9835 10.8468 12.9835C10.8858 12.9835 10.9178 12.977 10.9428 12.964C10.9678 12.95 10.9868 12.9295 10.9998 12.9025C11.0138 12.8755 11.0228 12.8405 11.0268 12.7975C11.0318 12.7545 11.0343 12.703 11.0343 12.643V12.085H11.2413V12.6265C11.2413 12.7065 11.2368 12.7795 11.2278 12.8455C11.2188 12.9115 11.2013 12.9685 11.1753 13.0165C11.1493 13.0645 11.1098 13.1015 11.0568 13.1275C11.0048 13.1535 10.9353 13.1665 10.8483 13.1665C10.8003 13.1665 10.7573 13.161 10.7193 13.15C10.6813 13.139 10.6463 13.1225 10.6143 13.1005L10.6608 12.9325ZM11.9397 12.085H12.1497L12.5412 13.15H12.3282L12.2292 12.8845H11.8572L11.7597 13.15H11.5467L11.9397 12.085ZM12.1917 12.739L12.0447 12.2995L11.8917 12.739H12.1917ZM13.09 12.466V13.15H12.883V12.085H13.048L13.5985 12.787V12.0865H13.8055V13.15H13.633L13.09 12.466ZM14.2521 13.15V12.085H14.6391C14.7551 12.085 14.8521 12.109 14.9301 12.157C15.0081 12.204 15.0666 12.268 15.1056 12.349C15.1446 12.429 15.1641 12.518 15.1641 12.616C15.1641 12.724 15.1426 12.818 15.0996 12.898C15.0566 12.978 14.9956 13.04 14.9166 13.084C14.8386 13.128 14.7461 13.15 14.6391 13.15H14.2521ZM14.9556 12.616C14.9556 12.547 14.9431 12.4865 14.9181 12.4345C14.8931 12.3815 14.8571 12.3405 14.8101 12.3115C14.7631 12.2815 14.7061 12.2665 14.6391 12.2665H14.4591V12.9685H14.6391C14.7071 12.9685 14.7646 12.9535 14.8116 12.9235C14.8586 12.8925 14.8941 12.8505 14.9181 12.7975C14.9431 12.7435 14.9556 12.683 14.9556 12.616ZM15.5508 13.15V12.085H16.0218C16.0708 12.085 16.1158 12.095 16.1568 12.115C16.1988 12.135 16.2348 12.162 16.2648 12.196C16.2958 12.23 16.3193 12.268 16.3353 12.31C16.3523 12.352 16.3608 12.395 16.3608 12.439C16.3608 12.484 16.3528 12.5275 16.3368 12.5695C16.3218 12.6105 16.2998 12.6465 16.2708 12.6775C16.2418 12.7085 16.2078 12.7325 16.1688 12.7495L16.4118 13.15H16.1838L15.9648 12.793H15.7578V13.15H15.5508ZM15.7578 12.6115H16.0173C16.0433 12.6115 16.0663 12.604 16.0863 12.589C16.1063 12.573 16.1223 12.552 16.1343 12.526C16.1463 12.5 16.1523 12.471 16.1523 12.439C16.1523 12.405 16.1453 12.3755 16.1313 12.3505C16.1173 12.3245 16.0993 12.304 16.0773 12.289C16.0563 12.274 16.0333 12.2665 16.0083 12.2665H15.7578V12.6115ZM17.222 13.1575C17.144 13.1575 17.073 13.1425 17.009 13.1125C16.946 13.0825 16.8915 13.042 16.8455 12.991C16.8005 12.939 16.7655 12.881 16.7405 12.817C16.7155 12.752 16.703 12.6855 16.703 12.6175C16.703 12.5465 16.716 12.479 16.742 12.415C16.769 12.35 16.8055 12.2925 16.8515 12.2425C16.8985 12.1915 16.9535 12.1515 17.0165 12.1225C17.0805 12.0925 17.1505 12.0775 17.2265 12.0775C17.3035 12.0775 17.3735 12.093 17.4365 12.124C17.5005 12.155 17.555 12.1965 17.6 12.2485C17.645 12.3005 17.68 12.3585 17.705 12.4225C17.73 12.4865 17.7425 12.5525 17.7425 12.6205C17.7425 12.6905 17.7295 12.758 17.7035 12.823C17.6775 12.887 17.641 12.9445 17.594 12.9955C17.548 13.0455 17.493 13.085 17.429 13.114C17.366 13.143 17.297 13.1575 17.222 13.1575ZM16.913 12.6175C16.913 12.6635 16.92 12.708 16.934 12.751C16.948 12.794 16.968 12.8325 16.994 12.8665C17.021 12.8995 17.0535 12.926 17.0915 12.946C17.1305 12.965 17.1745 12.9745 17.2235 12.9745C17.2735 12.9745 17.318 12.9645 17.357 12.9445C17.396 12.9235 17.4285 12.896 17.4545 12.862C17.4805 12.827 17.5 12.7885 17.513 12.7465C17.527 12.7035 17.534 12.6605 17.534 12.6175C17.534 12.5715 17.5265 12.5275 17.5115 12.4855C17.4975 12.4425 17.477 12.4045 17.45 12.3715C17.424 12.3375 17.3915 12.311 17.3525 12.292C17.3145 12.272 17.2715 12.262 17.2235 12.262C17.1725 12.262 17.1275 12.2725 17.0885 12.2935C17.0505 12.3135 17.0185 12.3405 16.9925 12.3745C16.9665 12.4085 16.9465 12.4465 16.9325 12.4885C16.9195 12.5305 16.913 12.5735 16.913 12.6175ZM18.7116 13.15V12.085H19.1826C19.2316 12.085 19.2766 12.095 19.3176 12.115C19.3596 12.135 19.3956 12.162 19.4256 12.196C19.4566 12.23 19.4801 12.268 19.4961 12.31C19.5131 12.352 19.5216 12.395 19.5216 12.439C19.5216 12.484 19.5136 12.5275 19.4976 12.5695C19.4826 12.6105 19.4606 12.6465 19.4316 12.6775C19.4026 12.7085 19.3686 12.7325 19.3296 12.7495L19.5726 13.15H19.3446L19.1256 12.793H18.9186V13.15H18.7116ZM18.9186 12.6115H19.1781C19.2041 12.6115 19.2271 12.604 19.2471 12.589C19.2671 12.573 19.2831 12.552 19.2951 12.526C19.3071 12.5 19.3131 12.471 19.3131 12.439C19.3131 12.405 19.3061 12.3755 19.2921 12.3505C19.2781 12.3245 19.2601 12.304 19.2381 12.289C19.2171 12.274 19.1941 12.2665 19.1691 12.2665H18.9186V12.6115ZM20.6737 12.9685V13.15H19.9342V12.085H20.6602V12.2665H20.1412V12.523H20.5897V12.691H20.1412V12.9685H20.6737ZM20.9765 12.61C20.9765 12.545 20.988 12.4815 21.011 12.4195C21.035 12.3565 21.0695 12.2995 21.1145 12.2485C21.1595 12.1965 21.2145 12.1555 21.2795 12.1255C21.3445 12.0945 21.4185 12.079 21.5015 12.079C21.5995 12.079 21.684 12.1005 21.755 12.1435C21.827 12.1865 21.8805 12.2425 21.9155 12.3115L21.7565 12.421C21.7385 12.381 21.715 12.3495 21.686 12.3265C21.657 12.3025 21.626 12.286 21.593 12.277C21.56 12.267 21.5275 12.262 21.4955 12.262C21.4435 12.262 21.398 12.2725 21.359 12.2935C21.321 12.3145 21.289 12.342 21.263 12.376C21.237 12.41 21.2175 12.448 21.2045 12.49C21.1925 12.532 21.1865 12.574 21.1865 12.616C21.1865 12.663 21.194 12.7085 21.209 12.7525C21.224 12.7955 21.245 12.834 21.272 12.868C21.3 12.901 21.333 12.9275 21.371 12.9475C21.41 12.9665 21.4525 12.976 21.4985 12.976C21.5315 12.976 21.565 12.9705 21.599 12.9595C21.633 12.9485 21.6645 12.931 21.6935 12.907C21.7225 12.883 21.745 12.852 21.761 12.814L21.9305 12.9115C21.9095 12.9645 21.875 13.0095 21.827 13.0465C21.78 13.0835 21.727 13.1115 21.668 13.1305C21.609 13.1495 21.5505 13.159 21.4925 13.159C21.4165 13.159 21.347 13.1435 21.284 13.1125C21.221 13.0805 21.1665 13.0385 21.1205 12.9865C21.0755 12.9335 21.04 12.8745 21.014 12.8095C20.989 12.7435 20.9765 12.677 20.9765 12.61ZM22.2943 13.15V12.085H22.5013V13.15H22.2943ZM23.403 13.1575C23.325 13.1575 23.254 13.1425 23.19 13.1125C23.127 13.0825 23.0725 13.042 23.0265 12.991C22.9815 12.939 22.9465 12.881 22.9215 12.817C22.8965 12.752 22.884 12.6855 22.884 12.6175C22.884 12.5465 22.897 12.479 22.923 12.415C22.95 12.35 22.9865 12.2925 23.0325 12.2425C23.0795 12.1915 23.1345 12.1515 23.1975 12.1225C23.2615 12.0925 23.3315 12.0775 23.4075 12.0775C23.4845 12.0775 23.5545 12.093 23.6175 12.124C23.6815 12.155 23.736 12.1965 23.781 12.2485C23.826 12.3005 23.861 12.3585 23.886 12.4225C23.911 12.4865 23.9235 12.5525 23.9235 12.6205C23.9235 12.6905 23.9105 12.758 23.8845 12.823C23.8585 12.887 23.822 12.9445 23.775 12.9955C23.729 13.0455 23.674 13.085 23.61 13.114C23.547 13.143 23.478 13.1575 23.403 13.1575ZM23.094 12.6175C23.094 12.6635 23.101 12.708 23.115 12.751C23.129 12.794 23.149 12.8325 23.175 12.8665C23.202 12.8995 23.2345 12.926 23.2725 12.946C23.3115 12.965 23.3555 12.9745 23.4045 12.9745C23.4545 12.9745 23.499 12.9645 23.538 12.9445C23.577 12.9235 23.6095 12.896 23.6355 12.862C23.6615 12.827 23.681 12.7885 23.694 12.7465C23.708 12.7035 23.715 12.6605 23.715 12.6175C23.715 12.5715 23.7075 12.5275 23.6925 12.4855C23.6785 12.4425 23.658 12.4045 23.631 12.3715C23.605 12.3375 23.5725 12.311 23.5335 12.292C23.4955 12.272 23.4525 12.262 23.4045 12.262C23.3535 12.262 23.3085 12.2725 23.2695 12.2935C23.2315 12.3135 23.1995 12.3405 23.1735 12.3745C23.1475 12.4085 23.1275 12.4465 23.1135 12.4885C23.1005 12.5305 23.094 12.5735 23.094 12.6175ZM25.5272 12.364C25.5202 12.357 25.5072 12.3475 25.4882 12.3355C25.4702 12.3235 25.4477 12.312 25.4207 12.301C25.3947 12.29 25.3662 12.2805 25.3352 12.2725C25.3042 12.2635 25.2727 12.259 25.2407 12.259C25.1847 12.259 25.1422 12.2695 25.1132 12.2905C25.0852 12.3115 25.0712 12.341 25.0712 12.379C25.0712 12.408 25.0802 12.431 25.0982 12.448C25.1162 12.465 25.1432 12.4795 25.1792 12.4915C25.2152 12.5035 25.2602 12.5165 25.3142 12.5305C25.3842 12.5475 25.4447 12.5685 25.4957 12.5935C25.5477 12.6175 25.5872 12.6495 25.6142 12.6895C25.6422 12.7285 25.6562 12.7805 25.6562 12.8455C25.6562 12.9025 25.6457 12.9515 25.6247 12.9925C25.6037 13.0325 25.5747 13.065 25.5377 13.09C25.5007 13.115 25.4587 13.1335 25.4117 13.1455C25.3647 13.1565 25.3147 13.162 25.2617 13.162C25.2087 13.162 25.1557 13.1565 25.1027 13.1455C25.0497 13.1345 24.9987 13.119 24.9497 13.099C24.9007 13.078 24.8557 13.053 24.8147 13.024L24.9062 12.8455C24.9152 12.8545 24.9312 12.8665 24.9542 12.8815C24.9772 12.8955 25.0052 12.91 25.0382 12.925C25.0712 12.939 25.1072 12.951 25.1462 12.961C25.1852 12.971 25.2247 12.976 25.2647 12.976C25.3207 12.976 25.3632 12.9665 25.3922 12.9475C25.4212 12.9285 25.4357 12.9015 25.4357 12.8665C25.4357 12.8345 25.4242 12.8095 25.4012 12.7915C25.3782 12.7735 25.3462 12.758 25.3052 12.745C25.2642 12.731 25.2157 12.716 25.1597 12.7C25.0927 12.681 25.0367 12.66 24.9917 12.637C24.9467 12.613 24.9132 12.583 24.8912 12.547C24.8692 12.511 24.8582 12.466 24.8582 12.412C24.8582 12.339 24.8752 12.278 24.9092 12.229C24.9442 12.179 24.9912 12.1415 25.0502 12.1165C25.1092 12.0905 25.1747 12.0775 25.2467 12.0775C25.2967 12.0775 25.3437 12.083 25.3877 12.094C25.4327 12.105 25.4747 12.1195 25.5137 12.1375C25.5527 12.1555 25.5877 12.175 25.6187 12.196L25.5272 12.364ZM26.3037 12.085H26.5137L26.9052 13.15H26.6922L26.5932 12.8845H26.2212L26.1237 13.15H25.9107L26.3037 12.085ZM26.5557 12.739L26.4087 12.2995L26.2557 12.739H26.5557ZM27.247 13.15V12.085H27.454V12.9685H27.997V13.15H27.247ZM28.6375 12.085H28.8475L29.239 13.15H29.026L28.927 12.8845H28.555L28.4575 13.15H28.2445L28.6375 12.085ZM28.8895 12.739L28.7425 12.2995L28.5895 12.739H28.8895ZM29.5148 12.994L30.1088 12.2665H29.5313V12.085H30.3548V12.241L29.7803 12.9685H30.3593V13.15H29.5148V12.994ZM31.0357 12.085H31.2457L31.6372 13.15H31.4242L31.3252 12.8845H30.9532L30.8557 13.15H30.6427L31.0357 12.085ZM31.2877 12.739L31.1407 12.2995L30.9877 12.739H31.2877ZM31.979 13.15V12.085H32.45C32.499 12.085 32.544 12.095 32.585 12.115C32.627 12.135 32.663 12.162 32.693 12.196C32.724 12.23 32.7475 12.268 32.7635 12.31C32.7805 12.352 32.789 12.395 32.789 12.439C32.789 12.484 32.781 12.5275 32.765 12.5695C32.75 12.6105 32.728 12.6465 32.699 12.6775C32.67 12.7085 32.636 12.7325 32.597 12.7495L32.84 13.15H32.612L32.393 12.793H32.186V13.15H31.979ZM32.186 12.6115H32.4455C32.4715 12.6115 32.4945 12.604 32.5145 12.589C32.5345 12.573 32.5505 12.552 32.5625 12.526C32.5745 12.5 32.5805 12.471 32.5805 12.439C32.5805 12.405 32.5735 12.3755 32.5595 12.3505C32.5455 12.3245 32.5275 12.304 32.5055 12.289C32.4845 12.274 32.4615 12.2665 32.4365 12.2665H32.186V12.6115ZM11.9532 14.364C11.9462 14.357 11.9332 14.3475 11.9142 14.3355C11.8962 14.3235 11.8737 14.312 11.8467 14.301C11.8207 14.29 11.7922 14.2805 11.7612 14.2725C11.7302 14.2635 11.6987 14.259 11.6667 14.259C11.6107 14.259 11.5682 14.2695 11.5392 14.2905C11.5112 14.3115 11.4972 14.341 11.4972 14.379C11.4972 14.408 11.5062 14.431 11.5242 14.448C11.5422 14.465 11.5692 14.4795 11.6052 14.4915C11.6412 14.5035 11.6862 14.5165 11.7402 14.5305C11.8102 14.5475 11.8707 14.5685 11.9217 14.5935C11.9737 14.6175 12.0132 14.6495 12.0402 14.6895C12.0682 14.7285 12.0822 14.7805 12.0822 14.8455C12.0822 14.9025 12.0717 14.9515 12.0507 14.9925C12.0297 15.0325 12.0007 15.065 11.9637 15.09C11.9267 15.115 11.8847 15.1335 11.8377 15.1455C11.7907 15.1565 11.7407 15.162 11.6877 15.162C11.6347 15.162 11.5817 15.1565 11.5287 15.1455C11.4757 15.1345 11.4247 15.119 11.3757 15.099C11.3267 15.078 11.2817 15.053 11.2407 15.024L11.3322 14.8455C11.3412 14.8545 11.3572 14.8665 11.3802 14.8815C11.4032 14.8955 11.4312 14.91 11.4642 14.925C11.4972 14.939 11.5332 14.951 11.5722 14.961C11.6112 14.971 11.6507 14.976 11.6907 14.976C11.7467 14.976 11.7892 14.9665 11.8182 14.9475C11.8472 14.9285 11.8617 14.9015 11.8617 14.8665C11.8617 14.8345 11.8502 14.8095 11.8272 14.7915C11.8042 14.7735 11.7722 14.758 11.7312 14.745C11.6902 14.731 11.6417 14.716 11.5857 14.7C11.5187 14.681 11.4627 14.66 11.4177 14.637C11.3727 14.613 11.3392 14.583 11.3172 14.547C11.2952 14.511 11.2842 14.466 11.2842 14.412C11.2842 14.339 11.3012 14.278 11.3352 14.229C11.3702 14.179 11.4172 14.1415 11.4762 14.1165C11.5352 14.0905 11.6007 14.0775 11.6727 14.0775C11.7227 14.0775 11.7697 14.083 11.8137 14.094C11.8587 14.105 11.9007 14.1195 11.9397 14.1375C11.9787 14.1555 12.0137 14.175 12.0447 14.196L11.9532 14.364ZM12.3991 14.61C12.3991 14.545 12.4106 14.4815 12.4336 14.4195C12.4576 14.3565 12.4921 14.2995 12.5371 14.2485C12.5821 14.1965 12.6371 14.1555 12.7021 14.1255C12.7671 14.0945 12.8411 14.079 12.9241 14.079C13.0221 14.079 13.1066 14.1005 13.1776 14.1435C13.2496 14.1865 13.3031 14.2425 13.3381 14.3115L13.1791 14.421C13.1611 14.381 13.1376 14.3495 13.1086 14.3265C13.0796 14.3025 13.0486 14.286 13.0156 14.277C12.9826 14.267 12.9501 14.262 12.9181 14.262C12.8661 14.262 12.8206 14.2725 12.7816 14.2935C12.7436 14.3145 12.7116 14.342 12.6856 14.376C12.6596 14.41 12.6401 14.448 12.6271 14.49C12.6151 14.532 12.6091 14.574 12.6091 14.616C12.6091 14.663 12.6166 14.7085 12.6316 14.7525C12.6466 14.7955 12.6676 14.834 12.6946 14.868C12.7226 14.901 12.7556 14.9275 12.7936 14.9475C12.8326 14.9665 12.8751 14.976 12.9211 14.976C12.9541 14.976 12.9876 14.9705 13.0216 14.9595C13.0556 14.9485 13.0871 14.931 13.1161 14.907C13.1451 14.883 13.1676 14.852 13.1836 14.814L13.3531 14.9115C13.3321 14.9645 13.2976 15.0095 13.2496 15.0465C13.2026 15.0835 13.1496 15.1115 13.0906 15.1305C13.0316 15.1495 12.9731 15.159 12.9151 15.159C12.8391 15.159 12.7696 15.1435 12.7066 15.1125C12.6436 15.0805 12.5891 15.0385 12.5431 14.9865C12.4981 14.9335 12.4626 14.8745 12.4366 14.8095C12.4116 14.7435 12.3991 14.677 12.3991 14.61ZM14.1583 15.1575C14.0803 15.1575 14.0093 15.1425 13.9453 15.1125C13.8823 15.0825 13.8278 15.042 13.7818 14.991C13.7368 14.939 13.7018 14.881 13.6768 14.817C13.6518 14.752 13.6393 14.6855 13.6393 14.6175C13.6393 14.5465 13.6523 14.479 13.6783 14.415C13.7053 14.35 13.7418 14.2925 13.7878 14.2425C13.8348 14.1915 13.8898 14.1515 13.9528 14.1225C14.0168 14.0925 14.0868 14.0775 14.1628 14.0775C14.2398 14.0775 14.3098 14.093 14.3728 14.124C14.4368 14.155 14.4913 14.1965 14.5363 14.2485C14.5813 14.3005 14.6163 14.3585 14.6413 14.4225C14.6663 14.4865 14.6788 14.5525 14.6788 14.6205C14.6788 14.6905 14.6658 14.758 14.6398 14.823C14.6138 14.887 14.5773 14.9445 14.5303 14.9955C14.4843 15.0455 14.4293 15.085 14.3653 15.114C14.3023 15.143 14.2333 15.1575 14.1583 15.1575ZM13.8493 14.6175C13.8493 14.6635 13.8563 14.708 13.8703 14.751C13.8843 14.794 13.9043 14.8325 13.9303 14.8665C13.9573 14.8995 13.9898 14.926 14.0278 14.946C14.0668 14.965 14.1108 14.9745 14.1598 14.9745C14.2098 14.9745 14.2543 14.9645 14.2933 14.9445C14.3323 14.9235 14.3648 14.896 14.3908 14.862C14.4168 14.827 14.4363 14.7885 14.4493 14.7465C14.4633 14.7035 14.4703 14.6605 14.4703 14.6175C14.4703 14.5715 14.4628 14.5275 14.4478 14.4855C14.4338 14.4425 14.4133 14.4045 14.3863 14.3715C14.3603 14.3375 14.3278 14.311 14.2888 14.292C14.2508 14.272 14.2078 14.262 14.1598 14.262C14.1088 14.262 14.0638 14.2725 14.0248 14.2935C13.9868 14.3135 13.9548 14.3405 13.9288 14.3745C13.9028 14.4085 13.8828 14.4465 13.8688 14.4885C13.8558 14.5305 13.8493 14.5735 13.8493 14.6175ZM15.8327 14.2665H15.4922V15.15H15.2867V14.2665H14.9462V14.085H15.8327V14.2665ZM16.1899 15.15V14.085H16.3969V15.15H16.1899ZM17.1336 14.085H17.3436L17.7351 15.15H17.5221L17.4231 14.8845H17.0511L16.9536 15.15H16.7406L17.1336 14.085ZM17.3856 14.739L17.2386 14.2995L17.0856 14.739H17.3856ZM18.9349 14.8755C18.9349 14.9355 18.9194 14.986 18.8884 15.027C18.8574 15.067 18.8154 15.0975 18.7624 15.1185C18.7104 15.1395 18.6534 15.15 18.5914 15.15H18.0769V14.085H18.6469C18.6969 14.085 18.7399 14.0985 18.7759 14.1255C18.8129 14.1515 18.8409 14.1855 18.8599 14.2275C18.8799 14.2685 18.8899 14.3115 18.8899 14.3565C18.8899 14.4075 18.8769 14.456 18.8509 14.502C18.8249 14.548 18.7869 14.582 18.7369 14.604C18.7979 14.622 18.8459 14.6545 18.8809 14.7015C18.9169 14.7485 18.9349 14.8065 18.9349 14.8755ZM18.7264 14.8365C18.7264 14.8095 18.7209 14.7855 18.7099 14.7645C18.6989 14.7425 18.6839 14.7255 18.6649 14.7135C18.6469 14.7005 18.6259 14.694 18.6019 14.694H18.2839V14.9745H18.5914C18.6164 14.9745 18.6389 14.9685 18.6589 14.9565C18.6799 14.9435 18.6964 14.9265 18.7084 14.9055C18.7204 14.8845 18.7264 14.8615 18.7264 14.8365ZM18.2839 14.262V14.5305H18.5599C18.5829 14.5305 18.6039 14.525 18.6229 14.514C18.6419 14.503 18.6569 14.4875 18.6679 14.4675C18.6799 14.4475 18.6859 14.4235 18.6859 14.3955C18.6859 14.3685 18.6804 14.345 18.6694 14.325C18.6594 14.305 18.6454 14.2895 18.6274 14.2785C18.6104 14.2675 18.5909 14.262 18.5689 14.262H18.2839ZM19.5875 14.085H19.7975L20.189 15.15H19.976L19.877 14.8845H19.505L19.4075 15.15H19.1945L19.5875 14.085ZM19.8395 14.739L19.6925 14.2995L19.5395 14.739H19.8395ZM20.7378 14.466V15.15H20.5308V14.085H20.6958L21.2463 14.787V14.0865H21.4533V15.15H21.2808L20.7378 14.466ZM21.8999 15.15V14.0865H22.1069V14.592L22.5539 14.085H22.7819L22.3739 14.5575L22.8074 15.15H22.5734L22.2419 14.691L22.1069 14.832V15.15H21.8999Z" fill="white"/>
</svg>
