<svg width="15" height="10" viewBox="0 0 15 10" fill="none" xmlns="http://www.w3.org/2000/svg">
<path d="M9.56339 3.78107H5.2208C5.09893 3.78107 5 3.68074 5 3.55716V0.423811C5 0.300231 5.09893 0.199905 5.2208 0.199905H9.56339C9.68526 0.199905 9.78419 0.300231 9.78419 0.423811V3.55716C9.78419 3.68074 9.68526 3.78107 9.56339 3.78107ZM5.22014 0.315512C5.16118 0.315512 5.11335 0.364014 5.11335 0.423811V3.55716C5.11335 3.61696 5.16118 3.66546 5.22014 3.66546H9.56274C9.62171 3.66546 9.66954 3.61696 9.66954 3.55716V0.423811C9.66954 0.364014 9.62171 0.315512 9.56274 0.315512H5.22014Z" stroke="white" stroke-width="0.3" stroke-miterlimit="10"/>
<path d="M5.30966 7.41391C5.30266 7.40691 5.28966 7.39741 5.27066 7.38541C5.25266 7.37341 5.23016 7.36191 5.20316 7.35091C5.17716 7.33991 5.14866 7.33041 5.11766 7.32241C5.08666 7.31341 5.05516 7.30891 5.02316 7.30891C4.96716 7.30891 4.92466 7.31941 4.89566 7.34041C4.86766 7.36141 4.85366 7.39091 4.85366 7.42891C4.85366 7.45791 4.86266 7.48091 4.88066 7.49791C4.89866 7.51491 4.92566 7.52941 4.96166 7.54141C4.99766 7.55341 5.04266 7.56641 5.09666 7.58041C5.16666 7.59741 5.22716 7.61841 5.27816 7.64341C5.33016 7.66741 5.36966 7.69941 5.39666 7.73941C5.42466 7.77841 5.43866 7.83041 5.43866 7.89541C5.43866 7.95241 5.42816 8.00141 5.40716 8.04241C5.38616 8.08241 5.35716 8.11491 5.32016 8.13991C5.28316 8.16491 5.24116 8.18341 5.19416 8.19541C5.14716 8.20641 5.09716 8.21191 5.04416 8.21191C4.99116 8.21191 4.93816 8.20641 4.88516 8.19541C4.83216 8.18441 4.78116 8.16891 4.73216 8.14891C4.68316 8.12791 4.63816 8.10291 4.59716 8.07391L4.68866 7.89541C4.69766 7.90441 4.71366 7.91641 4.73666 7.93141C4.75966 7.94541 4.78766 7.95991 4.82066 7.97491C4.85366 7.98891 4.88966 8.00091 4.92866 8.01091C4.96766 8.02091 5.00716 8.02591 5.04716 8.02591C5.10316 8.02591 5.14566 8.01641 5.17466 7.99741C5.20366 7.97841 5.21816 7.95141 5.21816 7.91641C5.21816 7.88441 5.20666 7.85941 5.18366 7.84141C5.16066 7.82341 5.12866 7.80791 5.08766 7.79491C5.04666 7.78091 4.99816 7.76591 4.94216 7.74991C4.87516 7.73091 4.81916 7.70991 4.77416 7.68691C4.72916 7.66291 4.69566 7.63291 4.67366 7.59691C4.65166 7.56091 4.64066 7.51591 4.64066 7.46191C4.64066 7.38891 4.65766 7.32791 4.69166 7.27891C4.72666 7.22891 4.77366 7.19141 4.83266 7.16641C4.89166 7.14041 4.95716 7.12741 5.02916 7.12741C5.07916 7.12741 5.12616 7.13291 5.17016 7.14391C5.21516 7.15491 5.25716 7.16941 5.29616 7.18741C5.33516 7.20541 5.37016 7.22491 5.40116 7.24591L5.30966 7.41391ZM6.27458 8.20741C6.19658 8.20741 6.12558 8.19241 6.06158 8.16241C5.99858 8.13241 5.94408 8.09191 5.89808 8.04091C5.85308 7.98891 5.81808 7.93091 5.79308 7.86691C5.76808 7.80191 5.75558 7.73541 5.75558 7.66741C5.75558 7.59641 5.76858 7.52891 5.79458 7.46491C5.82158 7.39991 5.85808 7.34241 5.90408 7.29241C5.95108 7.24141 6.00608 7.20141 6.06908 7.17241C6.13308 7.14241 6.20308 7.12741 6.27908 7.12741C6.35608 7.12741 6.42608 7.14291 6.48908 7.17391C6.55308 7.20491 6.60758 7.24641 6.65258 7.29841C6.69758 7.35041 6.73258 7.40841 6.75758 7.47241C6.78258 7.53641 6.79508 7.60241 6.79508 7.67041C6.79508 7.74041 6.78208 7.80791 6.75608 7.87291C6.73008 7.93691 6.69358 7.99441 6.64658 8.04541C6.60058 8.09541 6.54558 8.13491 6.48158 8.16391C6.41858 8.19291 6.34958 8.20741 6.27458 8.20741ZM5.96558 7.66741C5.96558 7.71341 5.97258 7.75791 5.98658 7.80091C6.00058 7.84391 6.02058 7.88241 6.04658 7.91641C6.07358 7.94941 6.10608 7.97591 6.14408 7.99591C6.18308 8.01491 6.22708 8.02441 6.27608 8.02441C6.32608 8.02441 6.37058 8.01441 6.40958 7.99441C6.44858 7.97341 6.48108 7.94591 6.50708 7.91191C6.53308 7.87691 6.55258 7.83841 6.56558 7.79641C6.57958 7.75341 6.58658 7.71041 6.58658 7.66741C6.58658 7.62141 6.57908 7.57741 6.56408 7.53541C6.55008 7.49241 6.52958 7.45441 6.50258 7.42141C6.47658 7.38741 6.44408 7.36091 6.40508 7.34191C6.36708 7.32191 6.32408 7.31191 6.27608 7.31191C6.22508 7.31191 6.18008 7.32241 6.14108 7.34341C6.10308 7.36341 6.07108 7.39041 6.04508 7.42441C6.01908 7.45841 5.99908 7.49641 5.98508 7.53841C5.97208 7.58041 5.96558 7.62341 5.96558 7.66741ZM8.03687 7.92541C8.03687 7.98541 8.02137 8.03591 7.99037 8.07691C7.95937 8.11691 7.91737 8.14741 7.86437 8.16841C7.81237 8.18941 7.75537 8.19991 7.69337 8.19991H7.17887V7.13491H7.74887C7.79887 7.13491 7.84187 7.14841 7.87787 7.17541C7.91487 7.20141 7.94287 7.23541 7.96187 7.27741C7.98187 7.31841 7.99187 7.36141 7.99187 7.40641C7.99187 7.45741 7.97887 7.50591 7.95287 7.55191C7.92687 7.59791 7.88887 7.63191 7.83887 7.65391C7.89987 7.67191 7.94787 7.70441 7.98287 7.75141C8.01887 7.79841 8.03687 7.85641 8.03687 7.92541ZM7.82837 7.88641C7.82837 7.85941 7.82287 7.83541 7.81187 7.81441C7.80087 7.79241 7.78587 7.77541 7.76687 7.76341C7.74887 7.75041 7.72787 7.74391 7.70387 7.74391H7.38587V8.02441H7.69337C7.71837 8.02441 7.74087 8.01841 7.76087 8.00641C7.78187 7.99341 7.79837 7.97641 7.81037 7.95541C7.82237 7.93441 7.82837 7.91141 7.82837 7.88641ZM7.38587 7.31191V7.58041H7.66187C7.68487 7.58041 7.70587 7.57491 7.72487 7.56391C7.74387 7.55291 7.75887 7.53741 7.76987 7.51741C7.78187 7.49741 7.78787 7.47341 7.78787 7.44541C7.78787 7.41841 7.78237 7.39491 7.77137 7.37491C7.76137 7.35491 7.74737 7.33941 7.72937 7.32841C7.71237 7.31741 7.69287 7.31191 7.67087 7.31191H7.38587ZM8.4234 8.19991V7.13491H8.8944C8.9434 7.13491 8.9884 7.14491 9.0294 7.16491C9.0714 7.18491 9.1074 7.21191 9.1374 7.24591C9.1684 7.27991 9.1919 7.31791 9.2079 7.35991C9.2249 7.40191 9.2334 7.44491 9.2334 7.48891C9.2334 7.53391 9.2254 7.57741 9.2094 7.61941C9.1944 7.66041 9.1724 7.69641 9.1434 7.72741C9.1144 7.75841 9.0804 7.78241 9.0414 7.79941L9.2844 8.19991H9.0564L8.8374 7.84291H8.6304V8.19991H8.4234ZM8.6304 7.66141H8.8899C8.9159 7.66141 8.9389 7.65391 8.9589 7.63891C8.9789 7.62291 8.9949 7.60191 9.0069 7.57591C9.0189 7.54991 9.0249 7.52091 9.0249 7.48891C9.0249 7.45491 9.0179 7.42541 9.0039 7.40041C8.9899 7.37441 8.9719 7.35391 8.9499 7.33891C8.9289 7.32391 8.9059 7.31641 8.8809 7.31641H8.6304V7.66141ZM10.3855 8.01841V8.19991H9.64596V7.13491H10.372V7.31641H9.85296V7.57291H10.3015V7.74091H9.85296V8.01841H10.3855Z" fill="white"/>
<path d="M7.44967 1.82771L5.02612 0.306882L5.0864 0.208549L7.44836 1.69084L9.69631 0.209214L9.7579 0.306218L7.44967 1.82771Z" stroke="white" stroke-width="0.3" stroke-miterlimit="10"/>
</svg>
