<svg width="19" height="15" viewBox="0 0 19 15" fill="none" xmlns="http://www.w3.org/2000/svg">
<path d="M17.882 8.01425C17.0285 9.17303 15.8912 10.6156 14.6653 10.6741L12.0016 10.7785V4.234C12.4459 4.22302 12.8735 4.26146 13.2901 4.44269C13.7454 4.6404 14.0238 4.99005 14.2137 5.42025C14.3224 5.66738 14.5068 5.79736 14.763 5.82665C15.01 5.85594 15.2165 5.75525 15.3492 5.55205C15.4709 5.36533 15.5114 5.14931 15.4082 4.93879C15.2828 4.6825 15.0635 4.50493 14.8201 4.37313C14.398 4.14613 13.9464 4.00334 13.4634 3.96124C13.1832 3.93744 12.6302 3.91364 12.0034 3.90083V0.345747L14.5326 0.450093C15.1907 0.479383 16.2691 1.99514 17.0617 2.81343L17.1815 2.7695L16.5972 0.124241H9.68261V0.153531C10.0716 1.05969 10.267 1.62536 10.267 2.63586V3.99053C9.69736 4.08389 9.14434 4.26878 8.63556 4.54154C8.63556 4.54154 8.57289 4.57267 8.54524 4.5928C8.41436 4.66603 8.28716 4.74474 8.16366 4.83078C8.15813 4.82163 8.15444 4.81431 8.15075 4.80699C7.93692 4.38594 7.72309 3.96307 7.50741 3.54202C7.14979 2.84272 6.78664 2.14525 6.42902 1.44595C6.1986 0.99562 5.96633 0.545285 5.74697 0.0894589C5.68429 -0.038685 5.58659 0.0217257 5.5018 0.00341945C5.41884 -0.0148868 5.40225 0.0436933 5.37645 0.0986121C5.18473 0.510503 4.98933 0.920564 4.79946 1.33246C4.78472 1.36358 4.79209 1.41483 4.80868 1.44778C4.92113 1.66197 5.04464 1.87249 5.15524 2.0885C5.38751 2.5425 5.61056 3.00199 5.84282 3.45598C6.23915 4.22851 6.63733 4.9992 7.03919 5.7699C7.07421 5.83763 7.07052 5.88157 7.01154 5.93648C6.81245 6.12687 6.61336 6.31725 6.42718 6.52045C6.3516 6.601 6.28893 6.601 6.19123 6.58086C5.86495 6.50947 5.54051 6.42709 5.2087 6.39414C4.89532 6.36302 4.57641 6.39048 4.25935 6.38865C3.82431 6.38499 3.40586 6.4875 3.00031 6.62663C2.65929 6.74379 2.33116 6.90489 2.00672 7.06049C1.61408 7.24904 1.27121 7.51265 0.948617 7.80006C0.631553 8.08198 0.379008 8.41515 0.202043 8.79959C-0.00994764 9.26456 -0.08184 9.74236 0.117246 10.2311C0.242597 10.5387 0.44537 10.7767 0.766121 10.9011C0.992858 10.989 1.21775 10.9487 1.44449 10.9158C1.78183 10.8664 2.07862 10.7217 2.35328 10.5295C2.38462 10.5167 2.42149 10.5094 2.44729 10.4893C2.851 10.1799 3.26207 9.88332 3.65103 9.55563C3.98468 9.27555 4.2999 8.97166 4.60222 8.66046C4.9838 8.2687 5.34695 7.86047 5.71379 7.4559C5.87969 7.27284 6.03822 7.08246 6.1986 6.89573C6.24468 6.84264 6.28893 6.81519 6.36266 6.85729C6.47879 6.92319 6.6023 6.97811 6.72397 7.03669C6.73134 7.03852 6.73871 7.04218 6.74793 7.04218C7.03734 7.26369 7.33782 7.47421 7.61432 7.71036C7.81525 7.88244 7.99591 8.07832 8.16919 8.27969C8.32219 8.45909 8.45123 8.65863 8.59132 8.85084C8.63925 8.93139 8.68902 9.01377 8.73695 9.09432V9.09798C8.82175 9.25907 8.90286 9.42017 8.98581 9.58126C8.98765 9.59408 8.98581 9.60872 8.99318 9.61971C9.21808 10.0536 9.44297 10.4874 9.6734 10.9176C9.67708 10.9249 9.68445 10.9323 9.69183 10.9378C9.6863 10.9487 9.68261 10.9597 9.67892 10.9707V11H17.3419L18 8.05818L17.8802 8.01425H17.882ZM5.71932 7.29481C5.5276 7.50716 5.33958 7.72318 5.13681 7.92638C4.71651 8.34559 4.29806 8.76847 3.85933 9.16937C3.44273 9.55014 2.99478 9.89613 2.49891 10.1744C2.42702 10.2147 2.34775 10.2458 2.27217 10.2806C2.24637 10.2934 2.22056 10.3044 2.19475 10.3172C1.94221 10.3831 1.68782 10.3776 1.43159 10.3446C1.02788 10.233 0.834326 9.83389 0.821423 9.48607C0.801145 8.96251 0.998388 8.52316 1.31177 8.12225C1.74128 7.5694 2.30904 7.20694 2.9487 6.93234C3.27867 6.79139 3.61785 6.68887 3.96256 6.61382C4.36995 6.52595 4.7884 6.50764 5.20317 6.57354C5.47046 6.61565 5.73591 6.67606 6.0032 6.73098C6.05297 6.74196 6.1009 6.7621 6.14883 6.77857C6.1562 6.78223 6.16542 6.78406 6.17279 6.78406C6.02163 6.95431 5.87232 7.12822 5.71932 7.29664V7.29481ZM6.86222 6.83166C6.7553 6.78956 6.64839 6.74745 6.54331 6.70535C6.51751 6.6907 6.4917 6.67606 6.45483 6.65226C6.67788 6.41977 6.89725 6.18911 7.12583 5.9493C7.36178 6.40696 7.58852 6.84631 7.82447 7.30213C7.48897 7.13738 7.17744 6.9836 6.86406 6.82983L6.86222 6.83166ZM9.31209 7.08612C8.97106 6.41977 8.63003 5.75342 8.28532 5.0889C8.25583 5.03398 8.25398 4.99554 8.27242 4.95893C8.86783 4.5507 9.55173 4.27977 10.2633 4.15894V8.48838C10.2633 8.63849 10.2578 8.77945 10.2485 8.91492C9.937 8.30532 9.62362 7.69572 9.31025 7.08612H9.31209Z" fill="#262812"/>
<path d="M0.6798 12.438H0.8096L1.4586 14H1.2958L1.0934 13.5116H0.3916L0.1914 14H0.0264L0.6798 12.438ZM1.0582 13.3906L0.7436 12.6184L0.4246 13.3906H1.0582ZM2.01252 14V12.438H2.16652V13.8636H3.06852V14H2.01252ZM4.67454 13.8636V14H3.62514V12.438H4.65474V12.5744H3.77914V13.1376H4.54254V13.2674H3.77914V13.8636H4.67454ZM5.28696 12.438L5.79736 13.1178L6.30556 12.438H6.47936L5.88096 13.23L6.46176 14H6.28796L5.79736 13.3422L5.30456 14H5.12856L5.70936 13.23L5.11096 12.438H5.28696ZM8.94331 14L8.16451 13.1794C8.10144 13.1119 8.05084 13.0547 8.01271 13.0078C7.97458 12.9594 7.94744 12.9161 7.93131 12.878C7.91518 12.8384 7.90711 12.7995 7.90711 12.7614C7.90711 12.6969 7.92398 12.6389 7.95771 12.5876C7.99291 12.5363 8.03984 12.4952 8.09851 12.4644C8.15864 12.4336 8.22538 12.4182 8.29871 12.4182C8.36764 12.4182 8.42924 12.4314 8.48351 12.4578C8.53924 12.4827 8.58324 12.5187 8.61551 12.5656C8.64778 12.6111 8.66391 12.6646 8.66391 12.7262C8.66391 12.7922 8.64484 12.8516 8.60671 12.9044C8.57004 12.9557 8.52164 13.0041 8.46151 13.0496C8.40284 13.0936 8.33758 13.1383 8.26571 13.1838C8.20558 13.2249 8.14984 13.2667 8.09851 13.3092C8.04864 13.3503 8.00904 13.3943 7.97971 13.4412C7.95038 13.4881 7.93571 13.5417 7.93571 13.6018C7.93571 13.6663 7.95404 13.7213 7.99071 13.7668C8.02738 13.8108 8.07358 13.8445 8.12931 13.868C8.18651 13.89 8.24518 13.901 8.30531 13.901C8.38451 13.901 8.45711 13.8834 8.52311 13.8482C8.59058 13.8115 8.64924 13.7617 8.69911 13.6986C8.74898 13.6341 8.78711 13.5607 8.81351 13.4786C8.84138 13.3965 8.85531 13.3092 8.85531 13.2168H8.98291C8.98291 13.3283 8.96531 13.4331 8.93011 13.5314C8.89491 13.6282 8.84578 13.7133 8.78271 13.7866C8.72111 13.8599 8.64778 13.9179 8.56271 13.9604C8.47911 14.0015 8.38818 14.022 8.28991 14.022C8.19898 14.022 8.11538 14.0044 8.03911 13.9692C7.96284 13.9325 7.90198 13.8827 7.85651 13.8196C7.81251 13.7565 7.79051 13.6825 7.79051 13.5974C7.79051 13.5182 7.80884 13.4493 7.84551 13.3906C7.88364 13.3305 7.93204 13.2769 7.99071 13.23C8.05084 13.1816 8.11391 13.1361 8.17991 13.0936C8.24738 13.0496 8.30678 13.0093 8.35811 12.9726C8.41091 12.9345 8.45198 12.8963 8.48131 12.8582C8.51064 12.8186 8.52531 12.7761 8.52531 12.7306C8.52531 12.6734 8.50404 12.6265 8.46151 12.5898C8.41898 12.5531 8.36471 12.5348 8.29871 12.5348C8.25031 12.5348 8.20704 12.5451 8.16891 12.5656C8.13078 12.5861 8.10071 12.6133 8.07871 12.647C8.05671 12.6807 8.04571 12.7174 8.04571 12.757C8.04571 12.7819 8.05158 12.8083 8.06331 12.8362C8.07504 12.8626 8.09778 12.8963 8.13151 12.9374C8.16524 12.977 8.21364 13.0298 8.27671 13.0958L9.14131 14H8.94331ZM11.6204 13.8636V14H10.571V12.438H11.6006V12.5744H10.725V13.1376H11.4884V13.2674H10.725V13.8636H11.6204ZM12.2417 14V12.438H12.9017C12.9691 12.438 13.0307 12.4519 13.0865 12.4798C13.1422 12.5077 13.1906 12.5458 13.2317 12.5942C13.2742 12.6411 13.3065 12.6939 13.3285 12.7526C13.3519 12.8098 13.3637 12.8685 13.3637 12.9286C13.3637 13.0034 13.349 13.0738 13.3197 13.1398C13.2918 13.2058 13.2515 13.2615 13.1987 13.307C13.1473 13.3525 13.0865 13.3825 13.0161 13.3972L13.3989 14H13.2251L12.8577 13.4236H12.3957V14H12.2417ZM12.3957 13.2872H12.9061C12.9677 13.2872 13.0212 13.2703 13.0667 13.2366C13.1121 13.2029 13.1473 13.1589 13.1723 13.1046C13.1972 13.0489 13.2097 12.9902 13.2097 12.9286C13.2097 12.8655 13.195 12.8076 13.1657 12.7548C13.1378 12.7005 13.0997 12.6573 13.0513 12.625C13.0043 12.5913 12.9515 12.5744 12.8929 12.5744H12.3957V13.2872ZM14.009 14V12.438H14.163V14H14.009ZM14.7813 13.208C14.7813 13.1127 14.7974 13.0195 14.8297 12.9286C14.8634 12.8362 14.9118 12.7526 14.9749 12.6778C15.0379 12.6015 15.1157 12.5414 15.2081 12.4974C15.3005 12.4519 15.4053 12.4292 15.5227 12.4292C15.662 12.4292 15.7808 12.4615 15.8791 12.526C15.9788 12.5891 16.0521 12.6705 16.0991 12.7702L15.9781 12.845C15.9443 12.7761 15.9018 12.7218 15.8505 12.6822C15.7991 12.6411 15.7441 12.6118 15.6855 12.5942C15.6283 12.5766 15.5711 12.5678 15.5139 12.5678C15.42 12.5678 15.3371 12.5869 15.2653 12.625C15.1934 12.6617 15.1325 12.7115 15.0827 12.7746C15.0343 12.8362 14.9976 12.9059 14.9727 12.9836C14.9477 13.0599 14.9353 13.1376 14.9353 13.2168C14.9353 13.3033 14.9499 13.3862 14.9793 13.4654C15.0086 13.5446 15.0497 13.615 15.1025 13.6766C15.1553 13.7367 15.2169 13.7851 15.2873 13.8218C15.3591 13.857 15.4369 13.8746 15.5205 13.8746C15.5791 13.8746 15.6393 13.8643 15.7009 13.8438C15.7625 13.8233 15.8197 13.7917 15.8725 13.7492C15.9267 13.7067 15.97 13.6517 16.0023 13.5842L16.1299 13.6502C16.0976 13.7279 16.0477 13.7939 15.9803 13.8482C15.9128 13.9025 15.8373 13.9435 15.7537 13.9714C15.6715 13.9993 15.5909 14.0132 15.5117 14.0132C15.4046 14.0132 15.3063 13.9905 15.2169 13.945C15.1274 13.8981 15.0497 13.8365 14.9837 13.7602C14.9191 13.6825 14.8693 13.5959 14.8341 13.5006C14.7989 13.4038 14.7813 13.3063 14.7813 13.208ZM16.7229 14V12.4402H16.8769V13.3466L17.7371 12.438H17.9065L17.2685 13.1244L17.9395 14H17.7657L17.1695 13.2168L16.8769 13.5204V14H16.7229Z" fill="black"/>
</svg>
