<svg width="38" height="23" viewBox="0 0 38 23" fill="none" xmlns="http://www.w3.org/2000/svg">
<path d="M37.7509 16.7571C35.9491 19.18 33.548 22.1962 30.9601 22.3187L25.3367 22.5368V8.85291C26.2746 8.82994 27.1774 8.91032 28.0569 9.28926C29.0182 9.70265 29.6058 10.4337 30.0066 11.3332C30.2362 11.85 30.6254 12.1217 31.1663 12.183C31.6878 12.2442 32.1237 12.0337 32.4039 11.6088C32.6607 11.2184 32.7463 10.7667 32.5284 10.3266C32.2638 9.79069 31.8007 9.4194 31.287 9.14381C30.3958 8.66918 29.4424 8.37062 28.4228 8.28258C27.8312 8.23282 26.6637 8.18306 25.3406 8.15627V0.722925L30.6799 0.941103C32.0692 1.00235 34.3458 4.17166 36.0192 5.88263L36.2721 5.79077L35.0385 0.259776H20.4411V0.321019C21.2622 2.21572 21.6747 3.39847 21.6747 5.51135V8.34383C20.4722 8.53904 19.3047 8.92563 18.2306 9.49596C18.2306 9.49596 18.0983 9.56103 18.0399 9.60313C17.7636 9.75624 17.4951 9.92083 17.2344 10.1007C17.2227 10.0816 17.2149 10.0663 17.2071 10.051C16.7557 9.17061 16.3043 8.28641 15.849 7.40605C15.094 5.94387 14.3274 4.48553 13.5724 3.02336C13.0859 2.08175 12.5956 1.14014 12.1325 0.187051C12.0002 -0.0808868 11.7939 0.0454265 11.6149 0.00714976C11.4398 -0.031127 11.4048 0.0913586 11.3503 0.206189C10.9455 1.06742 10.533 1.92482 10.1322 2.78604C10.1011 2.85111 10.1166 2.95829 10.1517 3.02719C10.389 3.47502 10.6498 3.91521 10.8833 4.36687C11.3736 5.31614 11.8445 6.27688 12.3349 7.22615C13.1715 8.84142 14.0121 10.4529 14.8605 12.0643C14.9344 12.206 14.9267 12.2978 14.8021 12.4126C14.3818 12.8107 13.9615 13.2088 13.5685 13.6337C13.4089 13.8021 13.2766 13.8021 13.0704 13.76C12.3816 13.6107 11.6966 13.4385 10.9961 13.3696C10.3346 13.3045 9.66132 13.3619 8.99196 13.3581C8.07354 13.3504 7.19015 13.5648 6.33399 13.8557C5.61405 14.1007 4.92134 14.4375 4.23642 14.7628C3.40751 15.1571 2.68367 15.7083 2.00264 16.3092C1.33328 16.8987 0.800129 17.5953 0.426534 18.3991C-0.0210006 19.3714 -0.172773 20.3704 0.24752 21.3924C0.51215 22.0354 0.940226 22.533 1.61737 22.7933C2.09603 22.977 2.57081 22.8928 3.04948 22.8239C3.76164 22.7206 4.38819 22.4182 4.96804 22.0163C5.0342 21.9895 5.11203 21.9742 5.16651 21.9321C6.01877 21.2852 6.8866 20.6651 7.70773 19.98C8.41211 19.3943 9.07758 18.7589 9.7158 18.1082C10.5214 17.2891 11.288 16.4355 12.0624 15.5896C12.4127 15.2069 12.7474 14.8088 13.0859 14.4183C13.1832 14.3073 13.2766 14.2499 13.4323 14.338C13.6775 14.4758 13.9382 14.5906 14.195 14.7131C14.2106 14.7169 14.2262 14.7246 14.2456 14.7246C14.8566 15.1877 15.4909 15.6279 16.0747 16.1217C16.4989 16.4815 16.8803 16.891 17.2461 17.3121C17.5691 17.6872 17.8415 18.1044 18.1372 18.5063C18.2384 18.6747 18.3435 18.847 18.4447 19.0154V19.023C18.6237 19.3599 18.7949 19.6967 18.97 20.0336C18.9739 20.0603 18.97 20.091 18.9856 20.1139C19.4604 21.0211 19.9352 21.9282 20.4216 22.8278C20.4294 22.8431 20.445 22.8584 20.4605 22.8699C20.4489 22.8928 20.4411 22.9158 20.4333 22.9388V23H36.6107L38 16.8489L37.747 16.7571H37.7509ZM12.0741 15.2528C11.6694 15.6968 11.2724 16.1485 10.8444 16.5733C9.95708 17.4499 9.07369 18.3341 8.14748 19.1723C7.26798 19.9685 6.32232 20.6919 5.27548 21.2737C5.1237 21.3579 4.95636 21.423 4.79681 21.4957C4.74233 21.5225 4.68784 21.5455 4.63336 21.5723C4.10021 21.7101 3.56317 21.6986 3.02224 21.6297C2.16997 21.3962 1.76136 20.5618 1.73411 19.8345C1.69131 18.7398 2.10771 17.8212 2.76928 16.9829C3.67603 15.8269 4.87464 15.0691 6.22503 14.4949C6.92163 14.2002 7.63768 13.9858 8.36541 13.8289C9.22546 13.6452 10.1089 13.6069 10.9845 13.7447C11.5487 13.8327 12.1091 13.959 12.6734 14.0739C12.7785 14.0968 12.8797 14.1389 12.9809 14.1734C12.9964 14.181 13.0159 14.1849 13.0314 14.1849C12.7123 14.5408 12.3971 14.9045 12.0741 15.2566V15.2528ZM14.4869 14.2844C14.2612 14.1963 14.0355 14.1083 13.8137 14.0203C13.7592 13.9897 13.7047 13.959 13.6269 13.9093C14.0977 13.4232 14.5609 12.9409 15.0434 12.4394C15.5415 13.3964 16.0202 14.315 16.5183 15.2681C15.8101 14.9236 15.1524 14.6021 14.4908 14.2806L14.4869 14.2844ZM19.6589 14.8164C18.9389 13.4232 18.219 12.0299 17.4912 10.6404C17.429 10.5256 17.4251 10.4452 17.464 10.3687C18.721 9.5151 20.1648 8.9486 21.6669 8.69597V17.7484C21.6669 18.0623 21.6553 18.357 21.6358 18.6403C20.9781 17.3657 20.3165 16.091 19.655 14.8164H19.6589Z" fill="white"/>
</svg>
