<svg width="33" height="27" viewBox="0 0 33 27" fill="none" xmlns="http://www.w3.org/2000/svg">
<path d="M1.236 23.16H1.472L2.652 26H2.356L1.988 25.112H0.712L0.348 26H0.048L1.236 23.16ZM1.924 24.892L1.352 23.488L0.772 24.892H1.924ZM3.65912 26V23.16H3.93912V25.752H5.57912V26H3.65912ZM8.49916 25.752V26H6.59116V23.16H8.46316V23.408H6.87116V24.432H8.25916V24.668H6.87116V25.752H8.49916ZM9.61266 23.16L10.5407 24.396L11.4647 23.16H11.7807L10.6927 24.6L11.7487 26H11.4327L10.5407 24.804L9.64466 26H9.32466L10.3807 24.6L9.29266 23.16H9.61266ZM16.2606 26L14.8446 24.508C14.7299 24.3853 14.6379 24.2813 14.5686 24.196C14.4992 24.108 14.4499 24.0293 14.4206 23.96C14.3912 23.888 14.3766 23.8173 14.3766 23.748C14.3766 23.6307 14.4072 23.5253 14.4686 23.432C14.5326 23.3387 14.6179 23.264 14.7246 23.208C14.8339 23.152 14.9552 23.124 15.0886 23.124C15.2139 23.124 15.3259 23.148 15.4246 23.196C15.5259 23.2413 15.6059 23.3067 15.6646 23.392C15.7232 23.4747 15.7526 23.572 15.7526 23.684C15.7526 23.804 15.7179 23.912 15.6486 24.008C15.5819 24.1013 15.4939 24.1893 15.3846 24.272C15.2779 24.352 15.1592 24.4333 15.0286 24.516C14.9192 24.5907 14.8179 24.6667 14.7246 24.744C14.6339 24.8187 14.5619 24.8987 14.5086 24.984C14.4552 25.0693 14.4286 25.1667 14.4286 25.276C14.4286 25.3933 14.4619 25.4933 14.5286 25.576C14.5952 25.656 14.6792 25.7173 14.7806 25.76C14.8846 25.8 14.9912 25.82 15.1006 25.82C15.2446 25.82 15.3766 25.788 15.4966 25.724C15.6192 25.6573 15.7259 25.5667 15.8166 25.452C15.9072 25.3347 15.9766 25.2013 16.0246 25.052C16.0752 24.9027 16.1006 24.744 16.1006 24.576H16.3326C16.3326 24.7787 16.3006 24.9693 16.2366 25.148C16.1726 25.324 16.0832 25.4787 15.9686 25.612C15.8566 25.7453 15.7232 25.8507 15.5686 25.928C15.4166 26.0027 15.2512 26.04 15.0726 26.04C14.9072 26.04 14.7552 26.008 14.6166 25.944C14.4779 25.8773 14.3672 25.7867 14.2846 25.672C14.2046 25.5573 14.1646 25.4227 14.1646 25.268C14.1646 25.124 14.1979 24.9987 14.2646 24.892C14.3339 24.7827 14.4219 24.6853 14.5286 24.6C14.6379 24.512 14.7526 24.4293 14.8726 24.352C14.9952 24.272 15.1032 24.1987 15.1966 24.132C15.2926 24.0627 15.3672 23.9933 15.4206 23.924C15.4739 23.852 15.5006 23.7747 15.5006 23.692C15.5006 23.588 15.4619 23.5027 15.3846 23.436C15.3072 23.3693 15.2086 23.336 15.0886 23.336C15.0006 23.336 14.9219 23.3547 14.8526 23.392C14.7832 23.4293 14.7286 23.4787 14.6886 23.54C14.6486 23.6013 14.6286 23.668 14.6286 23.74C14.6286 23.7853 14.6392 23.8333 14.6606 23.884C14.6819 23.932 14.7232 23.9933 14.7846 24.068C14.8459 24.14 14.9339 24.236 15.0486 24.356L16.6206 26H16.2606ZM21.1281 25.752V26H19.2201V23.16H21.0921V23.408H19.5001V24.432H20.8881V24.668H19.5001V25.752H21.1281ZM22.2576 26V23.16H23.4576C23.5802 23.16 23.6922 23.1853 23.7936 23.236C23.8949 23.2867 23.9829 23.356 24.0576 23.444C24.1349 23.5293 24.1936 23.6253 24.2336 23.732C24.2762 23.836 24.2976 23.9427 24.2976 24.052C24.2976 24.188 24.2709 24.316 24.2176 24.436C24.1669 24.556 24.0936 24.6573 23.9976 24.74C23.9042 24.8227 23.7936 24.8773 23.6656 24.904L24.3616 26H24.0456L23.3776 24.952H22.5376V26H22.2576ZM22.5376 24.704H23.4656C23.5776 24.704 23.6749 24.6733 23.7576 24.612C23.8402 24.5507 23.9042 24.4707 23.9496 24.372C23.9949 24.2707 24.0176 24.164 24.0176 24.052C24.0176 23.9373 23.9909 23.832 23.9376 23.736C23.8869 23.6373 23.8176 23.5587 23.7296 23.5C23.6442 23.4387 23.5482 23.408 23.4416 23.408H22.5376V24.704ZM25.4708 26V23.16H25.7508V26H25.4708ZM26.875 24.56C26.875 24.3867 26.9044 24.2173 26.963 24.052C27.0244 23.884 27.1124 23.732 27.227 23.596C27.3417 23.4573 27.483 23.348 27.651 23.268C27.819 23.1853 28.0097 23.144 28.223 23.144C28.4764 23.144 28.6924 23.2027 28.871 23.32C29.0524 23.4347 29.1857 23.5827 29.271 23.764L29.051 23.9C28.9897 23.7747 28.9124 23.676 28.819 23.604C28.7257 23.5293 28.6257 23.476 28.519 23.444C28.415 23.412 28.311 23.396 28.207 23.396C28.0364 23.396 27.8857 23.4307 27.755 23.5C27.6244 23.5667 27.5137 23.6573 27.423 23.772C27.335 23.884 27.2684 24.0107 27.223 24.152C27.1777 24.2907 27.155 24.432 27.155 24.576C27.155 24.7333 27.1817 24.884 27.235 25.028C27.2884 25.172 27.363 25.3 27.459 25.412C27.555 25.5213 27.667 25.6093 27.795 25.676C27.9257 25.74 28.067 25.772 28.219 25.772C28.3257 25.772 28.435 25.7533 28.547 25.716C28.659 25.6787 28.763 25.6213 28.859 25.544C28.9577 25.4667 29.0364 25.3667 29.095 25.244L29.327 25.364C29.2684 25.5053 29.1777 25.6253 29.055 25.724C28.9324 25.8227 28.795 25.8973 28.643 25.948C28.4937 25.9987 28.347 26.024 28.203 26.024C28.0084 26.024 27.8297 25.9827 27.667 25.9C27.5044 25.8147 27.363 25.7027 27.243 25.564C27.1257 25.4227 27.035 25.2653 26.971 25.092C26.907 24.916 26.875 24.7387 26.875 24.56ZM30.4052 26V23.164H30.6852V24.812L32.2492 23.16H32.5572L31.3972 24.408L32.6172 26H32.3012L31.2172 24.576L30.6852 25.128V26H30.4052Z" fill="white"/>
<path d="M31.7903 14.5714C30.2729 16.6782 28.251 19.301 26.0717 19.4075L21.3362 19.5973V7.69818C22.126 7.67821 22.8863 7.74811 23.6269 8.07762C24.4364 8.43709 24.9312 9.07282 25.2687 9.85499C25.4621 10.3043 25.7898 10.5406 26.2453 10.5939C26.6845 10.6472 27.0515 10.4641 27.2875 10.0946C27.5038 9.75514 27.5759 9.36239 27.3923 8.97962C27.1695 8.51364 26.7795 8.19079 26.3469 7.95114C25.5965 7.53842 24.7936 7.2788 23.935 7.20225C23.4368 7.15898 22.4537 7.11571 21.3395 7.09241V0.628631L25.8357 0.81835C27.0056 0.871605 28.9228 3.62753 30.3319 5.11533L30.5449 5.03545L29.5061 0.225892H17.2135V0.279147C17.905 1.92671 18.2524 2.95519 18.2524 4.79248V7.2555C17.2397 7.42525 16.2566 7.76142 15.3521 8.25735C15.3521 8.25735 15.2407 8.31394 15.1915 8.35055C14.9589 8.48369 14.7327 8.62681 14.5132 8.78324C14.5033 8.7666 14.4968 8.75329 14.4902 8.73997C14.1101 7.97444 13.7299 7.20558 13.3465 6.44004C12.7107 5.16859 12.0651 3.90046 11.4294 2.62901C11.0197 1.81022 10.6068 0.991428 10.2168 0.162653C10.1054 -0.0703363 9.93172 0.0395013 9.78097 0.00621718C9.6335 -0.027067 9.60401 0.0794423 9.55813 0.179295C9.2173 0.928188 8.86993 1.67375 8.53238 2.42265C8.50616 2.47923 8.51927 2.57242 8.54877 2.63234C8.74867 3.02176 8.96824 3.40453 9.16487 3.79728C9.57779 4.62273 9.97432 5.45816 10.3872 6.28361C11.0918 7.6882 11.7997 9.08946 12.5141 10.4907C12.5764 10.6139 12.5698 10.6938 12.465 10.7936C12.111 11.1398 11.7571 11.4859 11.4261 11.8554C11.2917 12.0018 11.1803 12.0018 11.0066 11.9652C10.4266 11.8354 9.84979 11.6856 9.25991 11.6257C8.70279 11.5691 8.13585 11.6191 7.57218 11.6157C6.79877 11.6091 6.05486 11.7955 5.33389 12.0484C4.72762 12.2614 4.14429 12.5543 3.56751 12.8373C2.86948 13.1801 2.25993 13.6594 1.68643 14.1819C1.12276 14.6945 0.673792 15.3003 0.359187 15.9992C-0.0176847 16.8447 -0.145493 17.7134 0.208438 18.6021C0.431284 19.1612 0.79177 19.5939 1.36199 19.8203C1.76508 19.98 2.16489 19.9068 2.56798 19.8469C3.1677 19.757 3.69532 19.4941 4.18361 19.1446C4.23932 19.1213 4.30487 19.108 4.35075 19.0714C5.06844 18.5089 5.79924 17.9697 6.49072 17.3739C7.08388 16.8646 7.64428 16.3121 8.18173 15.7463C8.8601 15.034 9.50569 14.2918 10.1578 13.5562C10.4528 13.2233 10.7346 12.8772 11.0197 12.5377C11.1017 12.4412 11.1803 12.3912 11.3114 12.4678C11.5179 12.5876 11.7374 12.6875 11.9537 12.794C11.9668 12.7973 11.9799 12.804 11.9963 12.804C12.5108 13.2067 13.045 13.5895 13.5366 14.0188C13.8938 14.3317 14.2149 14.6879 14.523 15.054C14.795 15.3802 15.0244 15.743 15.2735 16.0924C15.3587 16.2389 15.4472 16.3887 15.5324 16.5351V16.5418C15.6831 16.8347 15.8273 17.1276 15.9748 17.4205C15.9781 17.4438 15.9748 17.4704 15.9879 17.4904C16.3877 18.2792 16.7875 19.068 17.1971 19.8502C17.2037 19.8635 17.2168 19.8768 17.2299 19.8868C17.2201 19.9068 17.2135 19.9268 17.207 19.9467V20H30.8301L32 14.6512L31.787 14.5714H31.7903ZM10.1677 13.2633C9.82685 13.6494 9.49258 14.0421 9.1321 14.4116C8.38491 15.1738 7.641 15.9427 6.86104 16.6716C6.1204 17.3639 5.32406 17.993 4.44251 18.4989C4.3147 18.5721 4.17378 18.6287 4.03942 18.6919C3.99354 18.7152 3.94766 18.7352 3.90178 18.7585C3.45281 18.8783 3.00056 18.8683 2.54504 18.8084C1.82735 18.6054 1.48325 17.8798 1.46031 17.2474C1.42426 16.2955 1.77491 15.4967 2.33203 14.7677C3.0956 13.7626 4.10496 13.1035 5.24213 12.6043C5.82874 12.348 6.43173 12.1616 7.04456 12.0251C7.76881 11.8654 8.51272 11.8321 9.25008 11.9519C9.72526 12.0284 10.1972 12.1383 10.6724 12.2381C10.7608 12.2581 10.846 12.2947 10.9312 12.3247C10.9444 12.3313 10.9607 12.3347 10.9739 12.3347C10.7051 12.6442 10.4397 12.9604 10.1677 13.2666V13.2633ZM12.1995 12.4212C12.0094 12.3446 11.8194 12.2681 11.6326 12.1915C11.5867 12.1649 11.5408 12.1383 11.4753 12.095C11.8718 11.6723 12.2618 11.2529 12.6681 10.8169C13.0876 11.649 13.4907 12.4478 13.9102 13.2766C13.3137 12.977 12.7599 12.6975 12.2028 12.4179L12.1995 12.4212ZM16.5548 12.8839C15.9486 11.6723 15.3423 10.4608 14.7295 9.25255C14.677 9.1527 14.6737 9.0828 14.7065 9.01623C15.765 8.274 16.9809 7.78139 18.2458 7.56172V15.4334C18.2458 15.7063 18.236 15.9626 18.2196 16.2089C17.6658 15.1006 17.1087 13.9922 16.5515 12.8839H16.5548Z" fill="white"/>
</svg>
