<svg width="16" height="23" viewBox="0 0 16 23" fill="none" xmlns="http://www.w3.org/2000/svg">
<path d="M7.35395 7.17928C7.66279 7.21981 7.94506 7.39227 8.10235 7.67234C9.09925 7.80574 10.0667 8.1573 10.9221 8.69827C12.2832 9.55541 13.339 10.9078 13.8575 12.4585C14.3876 14.0372 14.3646 15.8068 13.7993 17.3722C13.7778 17.4319 13.7634 17.493 13.7555 17.5572C13.8985 17.7009 14.0665 17.8534 14.2762 17.8667C14.7582 17.8947 15.2408 17.8601 15.7228 17.8667C15.8255 17.8534 15.9174 17.9006 16 17.9574C15.4103 18.0215 14.8128 17.9574 14.2238 18.0266C13.8374 18.233 13.5939 18.6347 13.418 19.029C13.1221 19.7328 13.2528 20.5133 13.2248 21.257C13.1982 21.837 13.275 22.4251 13.1809 23C13.1321 22.8894 13.0869 22.7767 13.0387 22.6669L13.1163 22.7273C13.0725 21.6247 13.1228 20.5192 13.0754 19.4166C13.26 18.8742 13.5121 18.3133 13.999 17.9868C13.5602 17.7134 13.2966 17.2343 13.158 16.7398C12.9892 17.213 12.75 17.6847 12.332 17.9743C12.7292 18.2846 12.9834 18.7526 13.1034 19.2442C13.0079 19.27 12.9576 19.1823 12.9109 19.113C11.9822 20.461 10.5925 21.4707 9.04107 21.91C7.66136 22.3035 6.16528 22.2622 4.81429 21.7699C2.60143 20.9872 0.823091 19.0002 0.293038 16.6573C0.195359 16.6609 0.0976792 16.6632 0 16.6639C0.0287292 16.5158 0.0926521 16.459 0.207569 16.5976C0.242762 16.4509 0.208287 16.302 0.17884 16.1583C-0.229115 13.9738 0.426629 11.6109 1.9069 9.98362C3.06397 8.66657 4.70297 7.8249 6.42097 7.6436C6.60771 7.38049 6.8986 7.23308 7.20456 7.17928C7.20743 5.734 6.92099 1.44307 7 0C7.1063 0.367032 7.28213 3.59887 7.32163 3.97549C7.31445 5.04268 7.34318 6.11061 7.35252 7.17781L7.35395 7.17928ZM6.64003 7.62812C7.076 7.59569 7.51196 7.62075 7.94721 7.64286C7.59743 7.25961 7.02069 7.33332 6.64003 7.62812ZM6.79158 7.77847C6.73412 7.8787 6.67666 7.97968 6.61849 8.08139C6.81815 8.06443 7.01782 8.05043 7.21749 8.04085C7.21462 7.97599 7.20887 7.8448 7.20528 7.77921C7.0681 7.77921 6.92948 7.77921 6.79158 7.77847ZM5.84495 7.90524C5.78103 7.99958 5.71639 8.09318 5.65103 8.18678C5.9218 8.14698 6.19473 8.11823 6.46622 8.08875C6.52943 7.98705 6.59263 7.88681 6.65512 7.78437C6.38434 7.82122 6.11429 7.85733 5.84495 7.90524ZM7.35683 7.78142C7.35826 7.84407 7.36185 7.96862 7.36329 8.03127C7.55218 8.02979 7.74036 8.03127 7.92854 8.02684C7.83948 7.76226 7.5766 7.79542 7.35683 7.78068V7.78142ZM7.96732 7.83817L8.0808 8.03938C8.17776 8.05854 8.49738 7.96936 8.39108 8.15877L8.14041 8.15656C8.28047 8.42483 8.41119 8.69827 8.52467 8.9798C8.87301 8.9916 9.2192 9.02255 9.5661 9.06161C9.40522 8.78302 9.23428 8.51033 9.05831 8.24132C8.84787 8.21331 8.63671 8.18899 8.42412 8.18014C8.58644 8.05854 8.79329 8.0836 8.98146 8.06591C8.6561 7.94283 8.30992 7.88681 7.96732 7.83743V7.83817ZM4.36325 8.39093C4.73529 8.34892 5.09871 8.24647 5.47147 8.21183C5.54114 8.11971 5.61297 8.02684 5.68263 7.93619C5.2323 8.05117 4.77982 8.17499 4.36396 8.39019L4.36325 8.39093ZM7.3676 8.15877C7.36904 8.42631 7.3676 8.69311 7.37263 8.96138C7.70158 8.95917 8.02981 8.95916 8.35732 8.96653C8.2345 8.69237 8.10522 8.42188 7.97522 8.1514C7.77268 8.15877 7.57014 8.16393 7.3676 8.15877ZM6.5481 8.21183C6.4181 8.47126 6.30031 8.73732 6.18898 9.0056C6.53302 8.98201 6.87705 8.95769 7.2218 8.96359C7.22539 8.699 7.22036 8.43515 7.21821 8.17056C6.99556 8.18383 6.77147 8.19709 6.5481 8.21183ZM5.57418 8.30691C5.40683 8.57224 5.24739 8.84198 5.10302 9.12205C5.40971 9.08151 5.71783 9.04982 6.02379 9.01297C6.13225 8.74469 6.25506 8.48379 6.38578 8.22657C6.11573 8.26343 5.84495 8.28701 5.57418 8.30764V8.30691ZM4.23827 8.5317C4.03932 8.79924 3.86623 9.08593 3.6996 9.37558C4.09463 9.27608 4.49899 9.22375 4.89617 9.13531C5.07286 8.87588 5.20932 8.59066 5.39031 8.33492C5.00534 8.39314 4.61534 8.42704 4.23756 8.5317H4.23827ZM9.30754 8.27669C9.47345 8.52138 9.61279 8.78376 9.76577 9.03729C9.80814 9.12573 9.91947 9.09183 9.99488 9.11173C10.3763 9.13531 10.7541 9.19206 11.129 9.26282C10.7009 8.68057 9.99704 8.37545 9.30826 8.27743L9.30754 8.27669ZM3.00651 9.17806C2.8248 9.29967 2.74507 9.51635 2.62944 9.69692C2.9275 9.58931 3.22844 9.49203 3.53585 9.41759C3.71899 9.10657 3.92297 8.81029 4.13988 8.52433C3.72043 8.65625 3.3606 8.92158 3.00651 9.17806ZM6.1423 9.1471C6.02882 9.47286 5.9297 9.80305 5.84567 10.1376C6.31037 10.1074 6.77506 10.0603 7.24047 10.0632C7.23473 9.7404 7.22898 9.41759 7.22108 9.09551C6.86053 9.11173 6.5007 9.1191 6.14158 9.1471H6.1423ZM5.03479 9.28714C4.83943 9.61069 4.71518 9.97477 4.58159 10.3293C4.94501 10.26 5.31203 10.2143 5.67832 10.1612C5.76236 9.82663 5.85716 9.49498 5.96777 9.16848C5.65678 9.19796 5.34076 9.2127 5.03479 9.28714ZM7.36904 9.09551C7.37191 9.41685 7.37766 9.73745 7.38699 10.0588C7.85241 10.061 8.31782 10.0735 8.78179 10.1089C8.66903 9.76767 8.55124 9.42791 8.4076 9.0992C8.06141 9.10067 7.71522 9.08888 7.36975 9.09551H7.36904ZM8.58356 9.10731C8.71428 9.44338 8.84069 9.78167 8.94555 10.1273C9.34848 10.1627 9.74997 10.2209 10.1486 10.2932C9.99345 9.92465 9.82682 9.56278 9.64511 9.20754C9.29317 9.15153 8.9355 9.16406 8.58356 9.10731ZM3.60551 9.54878C3.4238 9.91949 3.25861 10.2968 3.12358 10.6867C3.53656 10.5607 3.95601 10.4619 4.37545 10.3646C4.50689 10.002 4.657 9.6468 4.8265 9.30188C4.41711 9.37042 4.00844 9.44559 3.60479 9.54878H3.60551ZM9.85196 9.20975C10.0315 9.57531 10.201 9.94603 10.3418 10.3293C10.8841 10.442 11.4184 10.5931 11.9377 10.7899C11.7754 10.3588 11.5815 9.93718 11.3265 9.55467C11.2927 9.49129 11.2403 9.4537 11.1706 9.44191C10.7375 9.33283 10.2929 9.27682 9.85196 9.20975ZM2.52601 9.8996C2.32994 10.288 2.16115 10.6897 2.01248 11.0994C2.32204 10.9653 2.63734 10.8481 2.95623 10.7413C3.08982 10.3448 3.25789 9.96298 3.44248 9.58931C3.13148 9.67554 2.82408 9.7743 2.52601 9.89886V9.8996ZM11.4831 9.42643C11.4917 9.4655 11.5089 9.54436 11.5175 9.58268C11.8077 9.96593 11.9715 10.4273 12.1395 10.8761C12.4168 10.997 12.6861 11.1348 12.9461 11.2896C12.6545 10.5835 12.2121 9.91581 11.5628 9.51266C11.5427 9.49129 11.5032 9.44781 11.4838 9.42643H11.4831ZM1.85734 10.2858C1.50685 10.6985 1.22458 11.168 0.970328 11.6478C1.22817 11.4694 1.52408 11.3581 1.78049 11.182C1.94928 10.7825 2.09508 10.372 2.30911 9.99393C2.159 10.0905 1.97585 10.1443 1.85734 10.2865V10.2858ZM7.38484 10.2327C7.37263 10.6432 7.39058 11.0545 7.39848 11.4657C7.98887 11.4687 8.57782 11.5092 9.16533 11.5734C9.07555 11.1393 8.96135 10.7103 8.83638 10.2858C8.35373 10.2482 7.86892 10.2261 7.38484 10.2327ZM5.80401 10.3116C5.71854 10.7258 5.64313 11.1429 5.59788 11.5645C6.14733 11.496 6.70036 11.4687 7.2534 11.4606C7.24263 11.0523 7.24478 10.6447 7.2376 10.2364C6.75926 10.2327 6.28164 10.2836 5.80473 10.3116H5.80401ZM4.51192 10.5128C4.37546 10.9373 4.26198 11.3692 4.17076 11.807C4.59092 11.7208 5.01324 11.6434 5.43772 11.5866C5.48297 11.1665 5.55479 10.7508 5.63451 10.3374C5.25888 10.3853 4.88253 10.4325 4.51192 10.5135V10.5128ZM8.99654 10.2961C9.12583 10.7221 9.23428 11.1547 9.32047 11.5925C9.755 11.6588 10.1881 11.7377 10.6176 11.832C10.5134 11.3685 10.3741 10.9137 10.2089 10.4686C9.80599 10.4015 9.40234 10.3455 8.99583 10.2968L8.99654 10.2961ZM3.08192 10.8702C2.89734 11.2999 2.83054 11.7731 2.73933 12.2308C3.14369 12.0826 3.55739 11.9618 3.97396 11.8564C4.06302 11.4134 4.17363 10.9764 4.31153 10.5474C3.89927 10.6425 3.48341 10.7324 3.08192 10.8702ZM1.95143 11.2925C1.80922 11.7554 1.69502 12.2278 1.62751 12.7098C1.93922 12.5609 2.25237 12.4135 2.57629 12.2927C2.6553 11.8306 2.75728 11.3729 2.89231 10.924C2.57557 11.0375 2.26171 11.1599 1.95143 11.2925ZM10.4071 10.5069C10.5608 10.9543 10.6959 11.4097 10.7892 11.8741C11.31 12.0111 11.8235 12.1748 12.3227 12.3774C12.2473 11.9072 12.1647 11.4311 11.9937 10.9882C11.4953 10.7486 10.9408 10.641 10.4071 10.5076V10.5069ZM0.84392 11.9205C0.608341 12.3826 0.535082 12.9 0.499888 13.4137C0.796517 13.1955 1.10751 12.9987 1.42784 12.8196C1.48674 12.3391 1.5837 11.8637 1.72375 11.4016C1.41922 11.5549 1.12834 11.7325 0.84392 11.9205ZM12.1927 11.0456C12.337 11.4996 12.4045 11.9735 12.5022 12.4379C12.7953 12.6022 13.1077 12.7282 13.3979 12.897C13.3023 12.4069 13.1788 11.922 13.0071 11.454C12.7443 11.2999 12.4706 11.1658 12.1927 11.0456ZM7.39777 11.6485C7.38699 12.1902 7.41859 12.7327 7.41357 13.2751C8.09301 13.2817 8.77174 13.3252 9.44687 13.4048C9.37864 12.8594 9.31185 12.3155 9.2113 11.776C8.61086 11.6935 8.00395 11.6537 7.39777 11.6485ZM5.57346 11.7576C5.516 12.3015 5.48943 12.8491 5.48584 13.3967C6.07766 13.326 6.67379 13.2899 7.26992 13.2817C7.26346 12.7393 7.25196 12.1976 7.25412 11.6544C6.69246 11.6522 6.13081 11.6876 5.57346 11.7583V11.7576ZM4.13054 12.0111C4.03789 12.5543 3.98689 13.1049 3.96032 13.6569C4.41639 13.5581 4.87606 13.4748 5.33788 13.4063C5.34219 12.8609 5.36446 12.3155 5.41832 11.7731C4.98523 11.8269 4.55501 11.9043 4.13126 12.0111H4.13054ZM2.73789 12.432C2.59425 12.9516 2.62944 13.5154 2.60574 14.0541C2.99574 13.9229 3.38933 13.7999 3.78866 13.7018C3.79656 13.1498 3.85402 12.6007 3.93662 12.0554C3.53297 12.1644 3.12717 12.2743 2.73789 12.4327V12.432ZM13.1924 11.5372C13.3318 12.017 13.4539 12.5013 13.5429 12.9943C13.6471 13.0547 13.7512 13.1167 13.8554 13.1778C13.6801 12.617 13.5422 12.017 13.1924 11.538V11.5372ZM9.36859 11.7967C9.45334 12.3354 9.54384 12.8742 9.57472 13.4196C10.0121 13.4903 10.4488 13.5633 10.8826 13.6554C10.8503 13.1152 10.7727 12.5808 10.6715 12.0502C10.2412 11.9441 9.80671 11.8593 9.36787 11.7959L9.36859 11.7967ZM1.60093 12.9309C1.52983 13.4513 1.51834 13.9782 1.54348 14.503C1.84441 14.3571 2.15325 14.2273 2.46353 14.1065C2.45132 13.5684 2.48436 13.0297 2.54828 12.4961C2.22723 12.6302 1.91049 12.7717 1.60093 12.9309ZM10.8359 12.0922C10.9429 12.6184 11.0097 13.1535 11.0299 13.6908C11.4924 13.8036 11.9492 13.9355 12.3995 14.0873C12.4218 13.5876 12.4225 13.0842 12.3492 12.5882C11.8565 12.3885 11.3495 12.2249 10.8359 12.0915V12.0922ZM0.496297 13.6355C0.489833 14.1094 0.514971 14.584 0.578893 15.0528C0.83602 14.8892 1.09817 14.7322 1.36679 14.5899C1.35171 14.0733 1.35315 13.5567 1.39768 13.0415C1.08525 13.2191 0.786462 13.421 0.496297 13.6355ZM12.5223 12.6531C12.5618 13.1483 12.5848 13.6451 12.5525 14.1418C12.8692 14.2612 13.1802 14.3946 13.4919 14.5236C13.5013 14.0394 13.4862 13.5537 13.4108 13.0746C13.117 12.9302 12.8218 12.7887 12.5223 12.6523V12.6531ZM0.326795 13.7063C0.239171 14.2288 0.222651 14.7624 0.252099 15.2894C0.307402 15.2503 0.361988 15.2112 0.416573 15.1737C0.33685 14.6887 0.355524 14.1949 0.326795 13.7063ZM7.41644 13.4188C7.415 13.8448 7.43224 14.2716 7.43296 14.6983C8.12533 14.7027 8.81842 14.7351 9.50433 14.8354C9.50864 14.4013 9.47776 13.9679 9.44831 13.5353C8.77389 13.4616 8.09517 13.4115 7.41644 13.4188ZM5.48009 13.5427C5.48656 13.9694 5.5002 14.3954 5.53324 14.8214C6.10998 14.7513 6.69031 14.7093 7.26992 14.7005C7.29147 14.2738 7.25843 13.847 7.26705 13.4203C6.66876 13.421 6.07263 13.4616 5.48009 13.5434V13.5427ZM3.96104 13.8058C3.97181 14.2391 3.95673 14.6747 4.01778 15.1044C4.46954 14.996 4.92562 14.9105 5.38529 14.8457C5.35871 14.4145 5.33573 13.9841 5.33932 13.5522C4.87678 13.6208 4.41855 13.707 3.96176 13.8058H3.96104ZM13.5609 13.1609C13.6026 13.6304 13.6349 14.1006 13.6097 14.5715C13.7584 14.6379 13.9056 14.7064 14.0543 14.7712C14.0558 14.2937 13.9775 13.8205 13.892 13.3518C13.7814 13.2869 13.6722 13.2235 13.5609 13.1601V13.1609ZM2.61723 14.2037C2.63447 14.6356 2.66822 15.0661 2.73143 15.4943C3.09557 15.3623 3.46546 15.2481 3.83894 15.1508C3.81164 14.7189 3.77932 14.2878 3.78507 13.8544C3.39004 13.9473 3.0022 14.0748 2.61651 14.2037H2.61723ZM9.60129 13.5581C9.63361 13.9878 9.6408 14.4197 9.64223 14.8508C10.0581 14.9135 10.4711 14.9983 10.8819 15.0926C10.9149 14.6578 10.9056 14.2214 10.892 13.7859C10.4653 13.6915 10.0351 13.6127 9.60201 13.5581H9.60129ZM1.54994 14.6762C1.58082 15.0985 1.62535 15.5215 1.7137 15.9357C2.00171 15.7964 2.29259 15.6608 2.59137 15.5495C2.51883 15.1228 2.48938 14.6917 2.46856 14.2598C2.15972 14.3902 1.83795 14.5 1.54994 14.6762ZM11.0457 13.8212C11.06 14.2605 11.0686 14.7005 11.032 15.139C11.4486 15.2451 11.8565 15.3815 12.2537 15.5466C12.3227 15.1051 12.3751 14.66 12.4024 14.2141C11.9571 14.0593 11.5039 13.9288 11.0457 13.8212ZM1.37756 14.7491C1.10895 14.8929 0.849666 15.0528 0.593258 15.2194C0.671545 15.6306 0.752705 16.0433 0.87624 16.4443C1.10105 16.2932 1.33016 16.1495 1.56359 16.0153C1.46734 15.5989 1.43359 15.1722 1.37756 14.7499V14.7491ZM12.5547 14.2679C12.5216 14.7145 12.4728 15.1597 12.3981 15.6019C12.6322 15.7117 12.8642 15.8252 13.0905 15.9497C13.1027 15.6321 13.0833 15.313 13.135 14.999C13.2556 15.3616 13.1824 15.7522 13.2384 16.1251C13.4524 15.6689 13.4302 15.1427 13.4898 14.6504C13.1838 14.5089 12.87 14.3851 12.5547 14.2679ZM7.43368 14.8383C7.42649 15.296 7.45594 15.7522 7.44014 16.2099C8.10666 16.2165 8.77246 16.2652 9.43323 16.3536C9.47704 15.8952 9.50577 15.4346 9.50002 14.9739C8.81555 14.8789 8.12461 14.842 7.43368 14.8383ZM5.53971 14.9658C5.56843 15.4183 5.62877 15.8672 5.68479 16.316C6.21843 16.2467 6.75495 16.218 7.29147 16.2092C7.29578 15.7515 7.27998 15.2953 7.2771 14.8383C6.69677 14.859 6.11573 14.8884 5.53899 14.9666L5.53971 14.9658ZM4.02855 15.2451C4.07954 15.6933 4.15137 16.1384 4.2512 16.5777C4.67639 16.4745 5.10661 16.3956 5.53827 16.3308C5.48009 15.8834 5.42982 15.4353 5.38888 14.9857C4.93208 15.0506 4.47816 15.1353 4.02855 15.2444V15.2451ZM0.259999 15.464C0.303093 15.8981 0.38569 16.3278 0.488396 16.7516C0.564529 16.6919 0.639943 16.6315 0.715357 16.571C0.599722 16.1627 0.502043 15.7485 0.436684 15.3292C0.378507 15.3741 0.318894 15.4191 0.259999 15.4648V15.464ZM2.76016 15.6358C2.8248 16.0809 2.93469 16.5172 3.05822 16.9491C3.39507 16.8216 3.73839 16.7118 4.08529 16.6204C3.99479 16.1789 3.91435 15.7338 3.86336 15.2857C3.49203 15.3889 3.12286 15.5009 2.76016 15.6365V15.6358ZM13.6047 14.7012C13.5709 15.1854 13.5085 15.6675 13.4072 16.1421C13.5616 16.2519 13.7139 16.3639 13.864 16.4826C13.9696 15.9711 14.0443 15.4515 14.0529 14.9282C13.9035 14.8523 13.7541 14.7764 13.6047 14.702V14.7012ZM9.65157 14.9909C9.63721 15.4515 9.62356 15.9136 9.57759 16.3728C9.95107 16.4347 10.3231 16.5062 10.6937 16.588C10.7763 16.1399 10.8352 15.6881 10.8754 15.2341C10.4704 15.1383 10.061 15.0609 9.65085 14.9909H9.65157ZM1.74027 16.0949C1.84082 16.5298 1.96579 16.9572 2.10872 17.3788C2.37231 17.2432 2.64165 17.1172 2.91529 17.0059C2.78529 16.5755 2.68762 16.1347 2.6122 15.691C2.31557 15.8141 2.02397 15.9453 1.74027 16.0957V16.0949ZM11.0291 15.2732C10.9839 15.7264 10.9307 16.1797 10.846 16.6278C11.2058 16.7192 11.5613 16.8231 11.9133 16.941C12.0447 16.5261 12.1467 16.103 12.2271 15.6756C11.8371 15.5149 11.4342 15.3881 11.0291 15.2732ZM1.59232 16.173C1.36464 16.3072 1.13911 16.448 0.922926 16.6035C1.05436 17.0221 1.21094 17.4304 1.39265 17.8291C1.57939 17.6987 1.77044 17.5748 1.96364 17.4569C1.81712 17.0361 1.69071 16.6079 1.59232 16.1738V16.173ZM12.3751 15.7316C12.2925 16.1576 12.1876 16.5791 12.0634 16.9948C12.3069 17.0811 12.546 17.1791 12.7816 17.2859C12.9684 16.9167 13.1221 16.5143 13.0962 16.0905C12.8599 15.963 12.6193 15.8429 12.3751 15.7316ZM0.540827 16.9182C0.670827 17.3302 0.833146 17.7304 1.02132 18.118C1.09315 18.0605 1.16641 18.0008 1.23823 17.9434C1.0558 17.5468 0.896351 17.14 0.764915 16.7229C0.690219 16.7877 0.615523 16.8518 0.541545 16.9182H0.540827ZM7.43727 16.3661C7.45953 16.8106 7.44948 17.2565 7.45882 17.7016C8.05064 17.72 8.64102 17.7657 9.2271 17.8579C9.30897 17.4068 9.37649 16.9528 9.42605 16.4966C8.76671 16.4118 8.10235 16.3514 7.43799 16.3661H7.43727ZM5.70059 16.4634C5.77457 16.902 5.83993 17.342 5.9333 17.7768C6.39224 17.7407 6.85191 17.7031 7.3123 17.7068C7.31158 17.2587 7.3087 16.8098 7.28644 16.3625C6.75567 16.3573 6.22633 16.3964 5.69987 16.4627L5.70059 16.4634ZM4.28424 16.7236C4.38838 17.1481 4.51264 17.5667 4.65916 17.9773C5.03264 17.9102 5.40396 17.8254 5.78319 17.7967C5.69053 17.3611 5.62805 16.9204 5.55263 16.4826C5.126 16.5364 4.70225 16.6189 4.28424 16.7236ZM3.10203 17.0951C3.23491 17.5048 3.38717 17.908 3.56026 18.3015C3.86839 18.1925 4.1801 18.0989 4.4954 18.0193C4.34529 17.608 4.22894 17.1864 4.11977 16.7619C3.77645 16.8599 3.43457 16.9631 3.10203 17.0951ZM13.3799 16.263C13.3433 16.4045 13.2995 16.5445 13.2765 16.689C13.3296 16.9329 13.4654 17.1459 13.5875 17.3589C13.6859 17.1061 13.7634 16.8459 13.8367 16.5843C13.6866 16.4738 13.535 16.3654 13.3799 16.263ZM9.5661 16.5217C9.52516 16.9779 9.45334 17.4304 9.37577 17.8822C9.68461 17.9419 9.99129 18.0067 10.2958 18.0871C10.4459 17.639 10.563 17.1813 10.6715 16.7206C10.3052 16.6447 9.93814 16.5659 9.5661 16.5217ZM2.95695 17.1533C2.6869 17.2609 2.42259 17.3847 2.16474 17.521C2.32563 17.9168 2.498 18.3074 2.70414 18.6818C2.93684 18.5661 3.1717 18.4563 3.41159 18.3568C3.24137 17.9633 3.08695 17.5623 2.95767 17.1533H2.95695ZM10.8194 16.7546C10.7203 17.2196 10.596 17.678 10.4502 18.1298C10.7469 18.216 11.0385 18.32 11.3279 18.429C11.3868 18.3045 11.4443 18.1792 11.5024 18.0554C11.2252 18.0303 10.9027 18.1475 10.6657 17.9537C10.9638 17.8822 11.2863 17.9434 11.5743 17.8667C11.6985 17.6065 11.7818 17.3287 11.8759 17.0567C11.5283 16.9388 11.1735 16.8474 10.8187 16.7546H10.8194ZM1.45657 17.9625C1.64259 18.3487 1.85519 18.7202 2.08143 19.0828C2.23872 18.9737 2.39745 18.8676 2.55762 18.7637C2.35436 18.387 2.17767 17.9972 2.01607 17.6006C1.82718 17.7164 1.63972 17.8358 1.45657 17.9618V17.9625ZM12.0289 17.1046C11.9434 17.3677 11.8486 17.6286 11.7517 17.8881C11.9183 17.8881 12.0878 17.8932 12.253 17.8638C12.4649 17.7584 12.5942 17.5468 12.7335 17.3626C12.4986 17.2764 12.2645 17.1887 12.0289 17.1046ZM1.09386 18.2558C1.30861 18.6391 1.5406 19.0142 1.82071 19.3488C1.85662 19.295 1.88966 19.2412 1.92198 19.186C1.70867 18.8204 1.48099 18.4629 1.30359 18.0768C1.23392 18.1357 1.16425 18.1947 1.09386 18.2551V18.2558ZM7.45307 17.8645C7.466 18.2942 7.46887 18.7239 7.46169 19.1543C7.93572 19.1646 8.40975 19.2059 8.87876 19.2759C9.00014 18.8646 9.10643 18.4475 9.18975 18.0266C8.61516 17.9316 8.03412 17.8873 7.45307 17.8652V17.8645ZM5.95987 17.9249C6.05037 18.3487 6.14733 18.7718 6.2565 19.1919C6.61202 19.1624 6.9697 19.1447 7.32738 19.1513C7.33241 18.7216 7.32307 18.292 7.30727 17.863C6.85766 17.8623 6.40805 17.8918 5.95987 17.9249ZM4.71159 18.1224C4.86529 18.5344 5.04341 18.9376 5.23805 19.3304C5.52247 19.2832 5.80617 19.2398 6.09059 19.1985C5.99147 18.7828 5.89092 18.3679 5.80976 17.9485C5.43915 17.9743 5.07573 18.0524 4.71159 18.1224ZM3.62634 18.4386C3.81165 18.8388 4.03358 19.2199 4.26197 19.5965C4.52628 19.5066 4.7949 19.4299 5.06783 19.3709C4.86816 18.9818 4.70297 18.5757 4.54711 18.1674C4.23468 18.2367 3.92872 18.3332 3.62634 18.4386ZM9.3377 18.0487C9.25295 18.4696 9.14666 18.886 9.02815 19.298C9.26373 19.3444 9.49859 19.3938 9.73201 19.4498C9.92019 19.0555 10.0933 18.6538 10.2384 18.2411C9.9403 18.1681 9.64008 18.1048 9.33842 18.0487H9.3377ZM3.47408 18.4968C3.23706 18.5941 3.00507 18.701 2.77883 18.8204C3.00435 19.2059 3.25286 19.5758 3.52938 19.9237C3.72115 19.8242 3.91579 19.7328 4.11402 19.6495C3.877 19.2788 3.66369 18.8941 3.47408 18.4961V18.4968ZM12.2063 18.0745C12.0318 18.0524 11.8551 18.062 11.6791 18.0576C11.6131 18.2028 11.5484 18.3494 11.4845 18.4968C11.7287 18.6081 11.9693 18.7275 12.2027 18.8595C12.3061 18.6774 12.4074 18.4946 12.5058 18.3111C12.4089 18.2286 12.3198 18.1328 12.2056 18.0745H12.2063ZM10.3928 18.2839C10.2491 18.6951 10.0725 19.0938 9.88859 19.4881C10.1256 19.5589 10.3612 19.6348 10.5932 19.7196C10.8359 19.3474 11.0629 18.9656 11.2604 18.5676C10.976 18.4578 10.6858 18.3649 10.3921 18.2839H10.3928ZM2.17552 19.2125C2.43264 19.5921 2.72496 19.9451 3.0338 20.2804C3.15159 20.1876 3.2701 20.0969 3.38933 20.0077C3.10993 19.6599 2.85855 19.2891 2.63734 18.8993C2.48148 19.001 2.32706 19.1041 2.17552 19.2125ZM12.587 18.4246C12.4965 18.5912 12.4031 18.7578 12.3097 18.9228C12.4146 18.9936 12.5195 19.0651 12.6243 19.1388C12.694 19.0386 12.7637 18.9391 12.8319 18.8388C12.7522 18.6988 12.671 18.561 12.587 18.4246ZM11.4177 18.6251C11.2202 19.0253 10.9954 19.4107 10.7462 19.78C10.9422 19.867 11.1362 19.9598 11.3279 20.0564C11.6217 19.7137 11.8946 19.3518 12.1338 18.9663C11.8982 18.8455 11.6612 18.7297 11.4184 18.6258L11.4177 18.6251ZM1.90259 19.4572C2.21287 19.8205 2.54325 20.1758 2.93325 20.4514C2.61148 20.0954 2.29834 19.7306 2.02613 19.3326C1.99524 19.3636 1.93347 19.4255 1.90259 19.4572ZM6.296 19.3444C6.40517 19.7424 6.5165 20.1397 6.64291 20.5325C6.87633 20.4993 7.11047 20.4735 7.34605 20.475C7.34821 20.0895 7.336 19.7048 7.32594 19.3194C6.98263 19.3127 6.6386 19.3171 6.29528 19.3444H6.296ZM7.46672 19.3194C7.47677 19.7063 7.47821 20.094 7.47893 20.4809C7.7892 20.4846 8.09732 20.5251 8.40257 20.5841C8.56561 20.2097 8.70207 19.8242 8.8292 19.4358C8.37743 19.3754 7.92279 19.3282 7.46672 19.3194ZM5.31274 19.4808C5.53468 19.8854 5.76379 20.2856 6.02307 20.6666C6.17606 20.6253 6.32904 20.587 6.48274 20.5509C6.35921 20.1588 6.24357 19.763 6.13727 19.3665C5.86219 19.3982 5.58783 19.4424 5.31274 19.4808ZM12.2429 19.0253C12.0045 19.4122 11.7265 19.7726 11.4357 20.1205C11.496 20.161 11.5563 20.2023 11.6166 20.2436C11.9614 19.9362 12.2674 19.5876 12.5618 19.2302C12.4555 19.1616 12.3492 19.0931 12.2429 19.0253ZM5.13606 19.5235C4.87534 19.5839 4.61678 19.654 4.36181 19.7395C4.64551 20.1684 4.97518 20.5634 5.32711 20.9334C5.5002 20.8531 5.67473 20.7809 5.85357 20.7175C5.59357 20.332 5.36158 19.9296 5.13534 19.5235H5.13606ZM8.97931 19.4557C8.84643 19.8478 8.70782 20.2377 8.54191 20.6172C8.68771 20.657 8.83207 20.699 8.97643 20.7425C9.22638 20.374 9.45334 19.9893 9.65803 19.5928C9.43251 19.5441 9.20555 19.5021 8.98003 19.4564L8.97931 19.4557ZM3.64142 20.0556C4.00126 20.4897 4.41352 20.8759 4.85236 21.2238C4.96871 21.1479 5.08507 21.0734 5.20142 20.9983C4.83943 20.6246 4.50833 20.2207 4.21026 19.7925C4.01778 19.8729 3.82816 19.9606 3.64142 20.0549V20.0556ZM9.81317 19.6282C9.60991 20.0335 9.37362 20.4219 9.12152 20.7971C9.26516 20.859 9.40665 20.9238 9.54815 20.9916C9.89721 20.6305 10.2262 20.248 10.5134 19.8338C10.2807 19.7616 10.048 19.6923 9.81317 19.6282ZM3.49347 20.1448C3.37927 20.2259 3.26723 20.3092 3.1559 20.3954C3.58109 20.8103 4.02424 21.2408 4.58661 21.4486C4.63833 21.4044 4.69076 21.3616 4.74319 21.3189C4.28209 20.9813 3.87054 20.5782 3.49419 20.1448H3.49347ZM10.6722 19.8927C10.3676 20.3077 10.0387 20.7057 9.67024 21.0639C9.77367 21.1272 9.87566 21.1936 9.97765 21.2599C10.4352 20.9342 10.8625 20.5627 11.2432 20.1455C11.0543 20.0578 10.8639 19.9738 10.6715 19.892L10.6722 19.8927ZM11.3538 20.2045C11.0435 20.5487 10.6901 20.8464 10.3339 21.1383C10.7598 20.9054 11.162 20.629 11.534 20.3143C11.4744 20.2767 11.4141 20.2406 11.3531 20.2045H11.3538ZM7.47893 20.6438C7.48108 20.9061 7.48898 21.1685 7.49616 21.4324C7.65489 21.4515 7.81147 21.4862 7.97091 21.495C8.10953 21.2466 8.22373 20.9865 8.34367 20.7293C8.0571 20.6836 7.76909 20.6445 7.47964 20.6438H7.47893ZM6.68959 20.6799C6.77362 20.9305 6.85694 21.1818 6.946 21.4316C7.08462 21.4265 7.22395 21.4235 7.36185 21.4235C7.34821 21.1612 7.34893 20.9003 7.34605 20.6386C7.12699 20.6489 6.90865 20.6637 6.68959 20.6791V20.6799ZM6.1107 20.7971C6.29528 21.0322 6.44683 21.3041 6.68385 21.4913C6.70898 21.4906 6.75854 21.4891 6.78368 21.4876C6.72119 21.2194 6.61274 20.9651 6.52943 20.7042C6.38937 20.7329 6.25003 20.7639 6.11142 20.7971H6.1107ZM5.43987 21.0447C5.67401 21.2688 5.92396 21.4759 6.18468 21.6675C6.2802 21.6247 6.37429 21.5827 6.46981 21.5415C6.29385 21.3086 6.11429 21.0793 5.94191 20.8442C5.77385 20.9091 5.6065 20.9747 5.43915 21.0447H5.43987ZM8.48229 20.7551C8.35301 21.0196 8.22157 21.2828 8.07506 21.5378C8.13611 21.5584 8.25749 21.6011 8.31854 21.621C8.50958 21.3697 8.70638 21.1228 8.89312 20.8686C8.75666 20.8295 8.62019 20.7919 8.48229 20.7551ZM5.31418 21.1132C5.20357 21.1803 5.09368 21.2474 4.9838 21.3167C5.28042 21.5193 5.58208 21.7213 5.91534 21.8547C5.95556 21.8267 6.03457 21.7721 6.07479 21.7441C5.80904 21.5496 5.55838 21.3343 5.31346 21.1132H5.31418ZM9.04251 20.9135C8.85074 21.1707 8.6597 21.4302 8.44854 21.6712C8.49235 21.6933 8.58141 21.739 8.62522 21.7611C8.91467 21.551 9.19693 21.3299 9.45334 21.0771C9.31688 21.0211 9.18041 20.9658 9.04251 20.9135ZM4.75324 21.5134C4.95076 21.582 5.14899 21.6483 5.34794 21.7124C5.18418 21.6129 5.02043 21.512 4.86098 21.4044C4.82507 21.4397 4.78916 21.4759 4.75324 21.5134ZM9.59196 21.1449C9.3571 21.3513 9.11218 21.5451 8.8608 21.7316C9.21489 21.6137 9.58118 21.5179 9.90295 21.3189C9.80024 21.2592 9.6961 21.201 9.59196 21.1442V21.1449ZM6.14517 21.8783C6.93451 21.9954 7.73964 21.9652 8.52108 21.8105C7.7734 21.4899 6.85981 21.442 6.14517 21.8783Z" fill="#444B18"/>
</svg>
