<svg width="5" height="5" viewBox="0 0 5 5" fill="none" xmlns="http://www.w3.org/2000/svg">
<path d="M5 1.28284V3.72221C4.99555 3.72888 4.99333 3.74408 4.99148 3.76113C4.92661 4.41017 4.40989 4.92689 3.76048 4.99212C3.74343 4.99398 3.72861 4.9962 3.72156 5.00065H1.28293C0.607205 5.00065 0.0345212 4.3694 0.0163585 3.71294C-0.00625232 2.8934 -0.00439897 2.10906 0.0156171 1.29544C0.0322972 0.618603 0.617954 0.0322046 1.29628 0.0155245C2.10322 -0.00449159 2.90387 -0.00597427 3.70488 0.0158952C4.40878 0.0347993 4.93587 0.611931 5 1.28284ZM3.62519 4.55585C4.14301 4.55585 4.55631 4.13291 4.55631 3.62065V1.3844C4.55631 0.866951 4.13745 0.448466 3.62 0.448466H1.38413C0.866673 0.448466 0.447817 0.866951 0.447817 1.38477V3.62065C0.447817 4.1381 0.866302 4.55696 1.38413 4.55659L3.62482 4.55585H3.62519Z" fill="#3E492B"/>
<path d="M2.41458 1.21947C3.12849 1.17017 3.73787 1.71432 3.78569 2.41451C3.83424 3.12249 3.29677 3.73743 2.58991 3.78598C1.88564 3.83417 1.27218 3.30189 1.21917 2.59799C1.16654 1.89409 1.69734 1.26914 2.41421 1.21984L2.41458 1.21947ZM2.3853 1.66761C1.91492 1.73396 1.59985 2.17024 1.66843 2.62727C1.737 3.08431 2.16253 3.40197 2.61956 3.33747C3.07919 3.27261 3.40278 2.8456 3.33755 2.38486C3.27342 1.93116 2.85308 1.60163 2.3853 1.66761Z" fill="#3E492B"/>
<path d="M3.77084 0.849525C3.95506 0.80801 4.12409 0.923659 4.16078 1.10047C4.19748 1.27728 4.08813 1.44111 3.91503 1.4804C3.74193 1.51969 3.56957 1.41331 3.52842 1.23836C3.48728 1.0634 3.58921 0.890669 3.77047 0.849525H3.77084Z" fill="#3E492B"/>
</svg>
