<svg width="15" height="18" viewBox="0 0 15 18" fill="none" xmlns="http://www.w3.org/2000/svg">
<path d="M1.00793 5.21298C1.15894 3.0481 3.44777 1.68697 5.42956 2.58464C5.44599 2.59203 5.46236 2.59999 5.47879 2.60738C5.56139 2.64552 5.64607 2.68679 5.73287 2.73061C5.73287 2.73061 6.15978 0.676249 8.76725 0.678567C9.5297 0.67898 10.2678 0.984121 10.7955 1.53286L10.803 1.5406C10.3583 1.89565 10.3136 2.30024 9.75102 2.66096C9.06427 3.10263 7.72555 3.38053 7.96333 3.88802C8.39394 4.80775 10.0953 2.95886 11.2066 2.06033L11.2124 2.05498C11.2201 2.04804 11.2295 2.04185 11.2377 2.03613C12.9209 2.56834 12.8581 4.923 13.219 6.64961C12.4327 7.1151 11.6401 7.65058 10.7167 7.10854C8.69747 5.92401 8.08144 7.30009 8.86785 7.77313C9.38716 8.08471 10.4584 8.3833 11.5854 8.21597C12.1969 8.12612 12.8231 7.86885 13.3978 7.63979C13.5754 8.80508 13.6524 9.99293 13.6663 11.1227C13.3164 11.17 12.9363 11.1217 12.5777 10.8783C11.1567 9.91616 10.0877 10.4557 10.7333 11.1523C11.3039 11.7667 12.6391 11.7913 13.6688 11.7009C13.6636 12.6207 13.8994 13.1628 13.5574 14.2699C13.3045 14.2503 12.9765 14.1803 12.7542 14.0194C11.3942 13.0351 10.4135 13.5052 11.2377 14.2804C11.71 14.7259 12.7351 14.7497 13.5214 14.6894C13.6954 15.5974 12.4933 16.2765 13.2326 17.064C13.1019 17.1067 11.3113 17.6578 9.40338 16.7387C9.94537 16.0168 10.2416 15.4088 10.1866 15.1727C10.0553 14.6232 9.16885 14.9719 9.10356 16.6448C8.16705 16.3426 7.19358 15.9419 6.26189 15.4132C6.81263 14.8726 7.54866 14.015 8.08905 12.8854C8.88462 11.223 7.40849 10.7279 6.79731 11.9416C6.47499 12.583 6.49008 13.8611 5.68161 15.0654C4.83584 14.5258 4.03839 13.8706 3.34865 13.076L3.34875 13.0748C5.19812 11.7152 6.50914 9.73649 6.3973 9.26404C6.26157 8.6918 5.55784 8.35276 4.57577 10.9831C4.25006 11.8548 3.70276 12.448 3.15601 12.8484C2.13533 11.5977 1.37704 10.0188 1.09362 8.0258L1.0949 8.02474C2.55114 7.80935 3.99946 7.17807 4.46905 6.68006C5.1398 5.96877 4.52571 5.18514 3.10181 6.61252C2.39997 7.31566 1.67602 7.68689 1.06823 7.83295C0.966775 7.02803 0.943395 6.15618 1.00856 5.21245L1.00793 5.21298Z" fill="#79804D"/>
<path d="M5.47756 2.60723C5.5608 2.64484 5.64543 2.6867 5.7317 2.72988C6.62861 6.21501 7.77031 8.84283 8.67874 10.8366C9.91191 13.541 11.0136 15.0602 11.7865 15.8925C8.34932 12.3929 5.85634 3.94502 5.47756 2.60723Z" fill="#9CA699"/>
<path d="M13.1409 12.9969C13.1409 12.9969 10.4198 12.6701 8.96583 11.4503L9.07697 11.6792C9.07697 11.6792 10.7361 12.9578 13.1403 12.9968L13.1409 12.9969Z" fill="#9CA699"/>
<path d="M9.49388 12.69C9.49388 12.69 9.182 14.2545 8.15448 15.333C8.15448 15.333 9.12501 14.1105 9.37939 12.4849L9.49388 12.69Z" fill="#9CA699"/>
<path d="M8.00058 9.31084C8.00058 9.31084 5.87165 11.4311 4.99432 13.7611C4.99432 13.7611 5.88542 11.0101 7.94279 9.17559L8.00058 9.31084Z" fill="#9CA699"/>
<path d="M12.8932 9.56353C12.8932 9.56353 8.92173 9.6839 7.89225 9.05747L7.80456 8.84951C7.80456 8.84951 8.5189 9.52353 12.8937 9.56416L12.8932 9.56353Z" fill="#9CA699"/>
<path d="M6.74557 6.09105C6.74557 6.09105 4.83082 9.53047 2.20929 10.4289C2.20929 10.4289 5.03986 9.12151 6.54205 5.93717L6.74557 6.09105Z" fill="#9CA699"/>
<path d="M11.8746 5.06875C11.8746 5.06875 8.00239 6.30138 6.34198 4.8692L6.37348 5.07261C6.37348 5.07261 7.9503 6.40011 11.8746 5.06875Z" fill="#9CA699"/>
</svg>
