<svg width="13" height="15" viewBox="0 0 13 15" fill="none" xmlns="http://www.w3.org/2000/svg">
<path d="M8.10789 7.96955C9.22728 9.3435 9.24524 10.9283 9.17984 11.66C8.62719 12.1525 8.00531 12.6141 7.31418 13.0256C7.29623 12.1107 7.14492 11.145 6.87052 10.2179C6.41789 8.68707 4.85163 8.69542 5.94474 10.3773C6.52304 11.2659 6.7096 12.4328 6.75897 13.3355C6.58522 13.4268 6.40763 13.5155 6.22684 13.6004C4.55928 14.3802 2.16854 14.0472 2.09417 14.0369H2.09225C2.09225 14.0369 2.41537 12.9716 1.55883 11.5623C1.43189 11.3533 1.29854 11.1334 1.16583 10.8981C1.43446 10.6229 1.77938 10.3651 2.19931 10.2121C3.42963 9.76334 4.2836 9.81991 3.87264 9.23034C3.54246 8.7565 1.7813 9.23999 0.731147 10.052C0.296467 9.10304 -0.0414042 7.94641 0.00411542 6.47924H0.00475668C0.518295 6.14427 1.41779 5.74629 2.58078 5.99511C4.44131 6.39244 4.80611 6.5191 4.76188 5.84466C4.72084 5.25252 2.22624 4.64174 0.0541228 5.7958C0.081691 5.53991 0.120159 5.27695 0.172089 5.00371C0.351603 4.05795 0.747175 3.199 1.27995 2.47056C1.87491 2.11759 3.04752 1.58524 4.15538 2.025C5.72805 2.64993 5.77741 2.2841 5.41967 1.98514C5.10167 1.71961 3.57067 1.25863 1.89863 1.74018C3.41937 0.191359 5.58636 -0.479862 7.19621 0.374595C9.69658 1.70032 8.06044 3.63555 8.26496 3.89079C8.26496 3.89079 10.1864 1.57688 11.8995 3.6992C12.5566 4.51251 12.6143 5.91024 12.086 7.44814C11.8039 6.95758 11.3077 6.1732 10.8365 5.82023C10.1236 5.28853 9.71582 5.2911 10.8859 6.36222C11.5187 6.94086 11.7956 7.49764 11.9187 7.88919C11.5251 8.84909 10.907 9.84499 10.0704 10.7747C9.83891 10.4281 9.60683 9.89707 9.40487 9.09276C8.66502 6.1327 6.46021 5.94175 8.11045 7.96955H8.10789Z" fill="#444B18"/>
<path d="M8.26622 3.88499C8.26622 3.88499 6.28836 5.20879 5.38566 7.85703C4.86828 9.37435 4.41885 10.9193 3.81107 12.112C3.42447 12.87 2.97376 13.4853 2.4006 13.8601C2.30251 13.9244 2.20057 13.9816 2.09479 14.0311C2.09479 14.0311 2.96351 14.0343 3.93032 12.1075C4.89713 10.1806 5.36707 7.95475 6.19027 6.38086C6.94423 4.93876 8.26622 3.88499 8.26622 3.88499Z" fill="#B6C2B3"/>
<path d="M2.25061 3.47545C3.03855 3.14627 3.97074 3.0974 4.7606 3.44652C5.21964 3.67476 5.65304 3.9525 6.09734 4.20132C6.4897 4.41477 6.88912 4.66616 7.34752 4.68609C6.88592 4.70988 6.46149 4.46878 6.06015 4.26947C5.65689 4.06244 5.26644 3.8252 4.86831 3.61304C4.07011 3.18677 3.09817 3.2067 2.25061 3.47545Z" fill="#B6C2B3"/>
<path d="M7.75204 4.19874C7.84372 4.634 8.1021 5.01076 8.37457 5.35216C8.51113 5.51225 8.67205 5.6897 8.82656 5.83307C9.05609 6.05488 9.34074 6.2812 9.5536 6.52101C9.73888 6.72482 9.9107 6.95885 10.0562 7.19352C10.3063 7.62685 10.5095 8.10134 10.5691 8.60154C10.3723 7.7413 9.88441 6.95756 9.24842 6.35449C9.00736 6.13011 8.74578 5.90894 8.52844 5.65884C8.16877 5.2435 7.82321 4.7568 7.7514 4.19874H7.75204Z" fill="#B6C2B3"/>
<path d="M5.86399 7.07715C5.84476 7.07458 5.84732 7.0868 5.8563 7.10094C5.97619 7.25717 6.13006 7.38447 6.27238 7.51949C6.73591 7.94833 7.21227 8.36366 7.68862 8.77707C8.36436 9.34477 8.47015 10.3497 8.22267 11.1514C8.26499 10.9444 8.28743 10.7348 8.28807 10.5252C8.3041 9.90927 8.10343 9.25669 7.62258 8.85422C7.14431 8.43952 6.6795 8.00876 6.23776 7.55485C6.10569 7.40826 5.95695 7.27132 5.85245 7.10223C5.84989 7.09644 5.84668 7.09001 5.84668 7.08294C5.84668 7.07394 5.85758 7.07522 5.86271 7.07651L5.86399 7.07715Z" fill="#B6C2B3"/>
<path d="M1.28507 8.02097C1.52869 7.6185 2.03774 7.46677 2.48396 7.46677C2.75708 7.46162 3.03533 7.51756 3.29883 7.57607C3.65272 7.65579 4.00342 7.74709 4.35219 7.83903C4.65928 7.90139 5.12025 8.08334 5.38567 7.85703C5.13179 8.12256 4.65095 7.96375 4.33424 7.91489C3.97906 7.84095 3.629 7.75223 3.27639 7.67508C2.61539 7.51049 1.76014 7.43012 1.28442 8.02097H1.28507Z" fill="#B6C2B3"/>
<path d="M4.43622 10.6531C4.1163 11.1475 3.44568 11.759 2.81354 11.5468C3.46299 11.5989 3.98935 11.0588 4.43622 10.6531Z" fill="#B6C2B3"/>
<path d="M4.17075 11.3282C4.50669 11.7307 4.97407 12.4977 4.86957 13.0365C4.85226 12.724 4.71185 12.4431 4.58555 12.1634C4.45476 11.8837 4.30795 11.6105 4.1701 11.3282H4.17075Z" fill="#B6C2B3"/>
</svg>
