<svg width="33" height="27" viewBox="0 0 33 27" fill="none" xmlns="http://www.w3.org/2000/svg">
<path d="M2.264 25.752V26H0.356V23.16H2.228V23.408H0.636V24.432H2.024V24.668H0.636V25.752H2.264ZM3.3935 26V23.16H4.5935C4.71617 23.16 4.82817 23.1853 4.9295 23.236C5.03083 23.2867 5.11883 23.356 5.1935 23.444C5.27083 23.5293 5.3295 23.6253 5.3695 23.732C5.41217 23.836 5.4335 23.9427 5.4335 24.052C5.4335 24.188 5.40683 24.316 5.3535 24.436C5.30283 24.556 5.2295 24.6573 5.1335 24.74C5.04017 24.8227 4.9295 24.8773 4.8015 24.904L5.4975 26H5.1815L4.5135 24.952H3.6735V26H3.3935ZM3.6735 24.704H4.6015C4.7135 24.704 4.81083 24.6733 4.8935 24.612C4.97617 24.5507 5.04017 24.4707 5.0855 24.372C5.13083 24.2707 5.1535 24.164 5.1535 24.052C5.1535 23.9373 5.12683 23.832 5.0735 23.736C5.02283 23.6373 4.9535 23.5587 4.8655 23.5C4.78017 23.4387 4.68417 23.408 4.5775 23.408H3.6735V24.704ZM6.60678 26V23.16H6.88678V26H6.60678ZM8.01097 24.56C8.01097 24.3867 8.0403 24.2173 8.09897 24.052C8.1603 23.884 8.2483 23.732 8.36297 23.596C8.47764 23.4573 8.61897 23.348 8.78697 23.268C8.95497 23.1853 9.14564 23.144 9.35897 23.144C9.6123 23.144 9.8283 23.2027 10.007 23.32C10.1883 23.4347 10.3216 23.5827 10.407 23.764L10.187 23.9C10.1256 23.7747 10.0483 23.676 9.95497 23.604C9.86164 23.5293 9.76164 23.476 9.65497 23.444C9.55097 23.412 9.44697 23.396 9.34297 23.396C9.1723 23.396 9.02164 23.4307 8.89097 23.5C8.7603 23.5667 8.64964 23.6573 8.55897 23.772C8.47097 23.884 8.4043 24.0107 8.35897 24.152C8.31364 24.2907 8.29097 24.432 8.29097 24.576C8.29097 24.7333 8.31764 24.884 8.37097 25.028C8.4243 25.172 8.49897 25.3 8.59497 25.412C8.69097 25.5213 8.80297 25.6093 8.93097 25.676C9.06164 25.74 9.20297 25.772 9.35497 25.772C9.46164 25.772 9.57097 25.7533 9.68297 25.716C9.79497 25.6787 9.89897 25.6213 9.99497 25.544C10.0936 25.4667 10.1723 25.3667 10.231 25.244L10.463 25.364C10.4043 25.5053 10.3136 25.6253 10.191 25.724C10.0683 25.8227 9.93097 25.8973 9.77897 25.948C9.62964 25.9987 9.48297 26.024 9.33897 26.024C9.1443 26.024 8.96564 25.9827 8.80297 25.9C8.6403 25.8147 8.49897 25.7027 8.37897 25.564C8.26164 25.4227 8.17097 25.2653 8.10697 25.092C8.04297 24.916 8.01097 24.7387 8.01097 24.56ZM11.5412 26V23.164H11.8212V24.812L13.3852 23.16H13.6932L12.5332 24.408L13.7532 26H13.4372L12.3532 24.576L11.8212 25.128V26H11.5412ZM18.2121 26L16.7961 24.508C16.6815 24.3853 16.5895 24.2813 16.5201 24.196C16.4508 24.108 16.4015 24.0293 16.3721 23.96C16.3428 23.888 16.3281 23.8173 16.3281 23.748C16.3281 23.6307 16.3588 23.5253 16.4201 23.432C16.4841 23.3387 16.5695 23.264 16.6761 23.208C16.7855 23.152 16.9068 23.124 17.0401 23.124C17.1655 23.124 17.2775 23.148 17.3761 23.196C17.4775 23.2413 17.5575 23.3067 17.6161 23.392C17.6748 23.4747 17.7041 23.572 17.7041 23.684C17.7041 23.804 17.6695 23.912 17.6001 24.008C17.5335 24.1013 17.4455 24.1893 17.3361 24.272C17.2295 24.352 17.1108 24.4333 16.9801 24.516C16.8708 24.5907 16.7695 24.6667 16.6761 24.744C16.5855 24.8187 16.5135 24.8987 16.4601 24.984C16.4068 25.0693 16.3801 25.1667 16.3801 25.276C16.3801 25.3933 16.4135 25.4933 16.4801 25.576C16.5468 25.656 16.6308 25.7173 16.7321 25.76C16.8361 25.8 16.9428 25.82 17.0521 25.82C17.1961 25.82 17.3281 25.788 17.4481 25.724C17.5708 25.6573 17.6775 25.5667 17.7681 25.452C17.8588 25.3347 17.9281 25.2013 17.9761 25.052C18.0268 24.9027 18.0521 24.744 18.0521 24.576H18.2841C18.2841 24.7787 18.2521 24.9693 18.1881 25.148C18.1241 25.324 18.0348 25.4787 17.9201 25.612C17.8081 25.7453 17.6748 25.8507 17.5201 25.928C17.3681 26.0027 17.2028 26.04 17.0241 26.04C16.8588 26.04 16.7068 26.008 16.5681 25.944C16.4295 25.8773 16.3188 25.7867 16.2361 25.672C16.1561 25.5573 16.1161 25.4227 16.1161 25.268C16.1161 25.124 16.1495 24.9987 16.2161 24.892C16.2855 24.7827 16.3735 24.6853 16.4801 24.6C16.5895 24.512 16.7041 24.4293 16.8241 24.352C16.9468 24.272 17.0548 24.1987 17.1481 24.132C17.2441 24.0627 17.3188 23.9933 17.3721 23.924C17.4255 23.852 17.4521 23.7747 17.4521 23.692C17.4521 23.588 17.4135 23.5027 17.3361 23.436C17.2588 23.3693 17.1601 23.336 17.0401 23.336C16.9521 23.336 16.8735 23.3547 16.8041 23.392C16.7348 23.4293 16.6801 23.4787 16.6401 23.54C16.6001 23.6013 16.5801 23.668 16.5801 23.74C16.5801 23.7853 16.5908 23.8333 16.6121 23.884C16.6335 23.932 16.6748 23.9933 16.7361 24.068C16.7975 24.14 16.8855 24.236 17.0001 24.356L18.5721 26H18.2121ZM21.9266 23.16H22.1626L23.3426 26H23.0466L22.6786 25.112H21.4026L21.0386 26H20.7386L21.9266 23.16ZM22.6146 24.892L22.0426 23.488L21.4626 24.892H22.6146ZM24.3497 26V23.16H24.6297V25.752H26.2697V26H24.3497ZM29.1898 25.752V26H27.2818V23.16H29.1538V23.408H27.5618V24.432H28.9498V24.668H27.5618V25.752H29.1898ZM30.3033 23.16L31.2313 24.396L32.1553 23.16H32.4713L31.3833 24.6L32.4393 26H32.1233L31.2313 24.804L30.3353 26H30.0153L31.0713 24.6L29.9833 23.16H30.3033Z" fill="#262812"/>
<path d="M31.7903 14.5714C30.2729 16.6782 28.251 19.301 26.0717 19.4075L21.3362 19.5973V7.69818C22.126 7.67821 22.8863 7.74811 23.6269 8.07762C24.4364 8.43709 24.9312 9.07282 25.2687 9.85499C25.4621 10.3043 25.7898 10.5406 26.2453 10.5939C26.6845 10.6472 27.0515 10.4641 27.2875 10.0946C27.5038 9.75514 27.5759 9.36239 27.3923 8.97962C27.1695 8.51364 26.7795 8.19079 26.3469 7.95114C25.5965 7.53842 24.7936 7.2788 23.935 7.20225C23.4368 7.15898 22.4537 7.11571 21.3395 7.09241V0.628631L25.8357 0.81835C27.0056 0.871605 28.9228 3.62753 30.3319 5.11533L30.5449 5.03545L29.5061 0.225892H17.2135V0.279147C17.905 1.92671 18.2524 2.95519 18.2524 4.79248V7.2555C17.2397 7.42525 16.2566 7.76142 15.3521 8.25735C15.3521 8.25735 15.2407 8.31394 15.1915 8.35055C14.9589 8.48369 14.7327 8.62681 14.5132 8.78324C14.5033 8.7666 14.4968 8.75329 14.4902 8.73997C14.1101 7.97444 13.7299 7.20558 13.3465 6.44004C12.7107 5.16859 12.0651 3.90046 11.4294 2.62901C11.0197 1.81022 10.6068 0.991428 10.2168 0.162653C10.1054 -0.0703363 9.93172 0.0395013 9.78097 0.00621718C9.6335 -0.027067 9.60401 0.0794423 9.55813 0.179295C9.2173 0.928188 8.86993 1.67375 8.53238 2.42265C8.50616 2.47923 8.51927 2.57242 8.54877 2.63234C8.74867 3.02176 8.96824 3.40453 9.16487 3.79728C9.57779 4.62273 9.97432 5.45816 10.3872 6.28361C11.0918 7.6882 11.7997 9.08946 12.5141 10.4907C12.5764 10.6139 12.5698 10.6938 12.465 10.7936C12.111 11.1398 11.7571 11.4859 11.4261 11.8554C11.2917 12.0018 11.1803 12.0018 11.0066 11.9652C10.4266 11.8354 9.84979 11.6856 9.25991 11.6257C8.70279 11.5691 8.13585 11.6191 7.57218 11.6157C6.79877 11.6091 6.05486 11.7955 5.33389 12.0484C4.72762 12.2614 4.14429 12.5543 3.56751 12.8373C2.86948 13.1801 2.25993 13.6594 1.68643 14.1819C1.12276 14.6945 0.673792 15.3003 0.359187 15.9992C-0.0176847 16.8447 -0.145493 17.7134 0.208438 18.6021C0.431284 19.1612 0.79177 19.5939 1.36199 19.8203C1.76508 19.98 2.16489 19.9068 2.56798 19.8469C3.1677 19.757 3.69532 19.4941 4.18361 19.1446C4.23932 19.1213 4.30487 19.108 4.35075 19.0714C5.06844 18.5089 5.79924 17.9697 6.49072 17.3739C7.08388 16.8646 7.64428 16.3121 8.18173 15.7463C8.8601 15.034 9.50569 14.2918 10.1578 13.5562C10.4528 13.2233 10.7346 12.8772 11.0197 12.5377C11.1017 12.4412 11.1803 12.3912 11.3114 12.4678C11.5179 12.5876 11.7374 12.6875 11.9537 12.794C11.9668 12.7973 11.9799 12.804 11.9963 12.804C12.5108 13.2067 13.045 13.5895 13.5366 14.0188C13.8938 14.3317 14.2149 14.6879 14.523 15.054C14.795 15.3802 15.0244 15.743 15.2735 16.0924C15.3587 16.2389 15.4472 16.3887 15.5324 16.5351V16.5418C15.6831 16.8347 15.8273 17.1276 15.9748 17.4205C15.9781 17.4438 15.9748 17.4704 15.9879 17.4904C16.3877 18.2792 16.7875 19.068 17.1971 19.8502C17.2037 19.8635 17.2168 19.8768 17.2299 19.8868C17.2201 19.9068 17.2135 19.9268 17.207 19.9467V20H30.8301L32 14.6512L31.787 14.5714H31.7903ZM10.1677 13.2633C9.82685 13.6494 9.49258 14.0421 9.1321 14.4116C8.38491 15.1738 7.641 15.9427 6.86104 16.6716C6.1204 17.3639 5.32406 17.993 4.44251 18.4989C4.3147 18.5721 4.17378 18.6287 4.03942 18.6919C3.99354 18.7152 3.94766 18.7352 3.90178 18.7585C3.45281 18.8783 3.00056 18.8683 2.54504 18.8084C1.82735 18.6054 1.48325 17.8798 1.46031 17.2474C1.42426 16.2955 1.77491 15.4967 2.33203 14.7677C3.0956 13.7626 4.10496 13.1035 5.24213 12.6043C5.82874 12.348 6.43173 12.1616 7.04456 12.0251C7.76881 11.8654 8.51272 11.8321 9.25008 11.9519C9.72526 12.0284 10.1972 12.1383 10.6724 12.2381C10.7608 12.2581 10.846 12.2947 10.9312 12.3247C10.9444 12.3313 10.9607 12.3347 10.9739 12.3347C10.7051 12.6442 10.4397 12.9604 10.1677 13.2666V13.2633ZM12.1995 12.4212C12.0094 12.3446 11.8194 12.2681 11.6326 12.1915C11.5867 12.1649 11.5408 12.1383 11.4753 12.095C11.8718 11.6723 12.2618 11.2529 12.6681 10.8169C13.0876 11.649 13.4907 12.4478 13.9102 13.2766C13.3137 12.977 12.7599 12.6975 12.2028 12.4179L12.1995 12.4212ZM16.5548 12.8839C15.9486 11.6723 15.3423 10.4608 14.7295 9.25255C14.677 9.1527 14.6737 9.0828 14.7065 9.01623C15.765 8.274 16.9809 7.78139 18.2458 7.56172V15.4334C18.2458 15.7063 18.236 15.9626 18.2196 16.2089C17.6658 15.1006 17.1087 13.9922 16.5515 12.8839H16.5548Z" fill="#262812"/>
</svg>
