<svg width="88" height="9" viewBox="0 0 88 9" fill="none" xmlns="http://www.w3.org/2000/svg">
<mask id="path-1-inside-1_10_113" fill="white">
<path d="M2.14457 3.81975C2.46422 3.81975 2.802 3.78171 3.15565 3.70562C3.5093 3.62954 3.83801 3.50871 4.14179 3.34759C4.44557 3.18648 4.69494 2.9739 4.89443 2.71433C5.09393 2.45475 5.19367 2.14371 5.19367 1.78568C5.19367 1.65813 5.16647 1.50597 5.10979 1.33143C5.05312 1.15689 4.95111 0.991302 4.80602 0.832426C4.65866 0.67355 4.46144 0.539289 4.2166 0.429642C3.9695 0.317757 3.65665 0.264052 3.2758 0.264052C2.97202 0.264052 2.70452 0.297618 2.47102 0.366986C2.23752 0.436355 2.04482 0.525862 1.89294 0.635509C1.74105 0.747394 1.63223 0.872705 1.56196 1.01368C1.49168 1.15465 1.47581 1.30234 1.50981 1.4545L0.600752 0.823476C0.695966 0.78991 0.816116 0.727255 0.963471 0.637747C1.11082 0.548239 1.28992 0.458732 1.50075 0.369224C1.71158 0.279716 1.96321 0.199159 2.25339 0.125315C2.54356 0.0537093 2.87001 0.0179062 3.23499 0.0179062C3.70199 0.0179062 4.10325 0.0671354 4.44103 0.165594C4.77881 0.264052 5.05539 0.393839 5.27075 0.55719C5.48611 0.718304 5.64707 0.90627 5.75135 1.12109C5.85563 1.33367 5.90777 1.55968 5.90777 1.79911C5.90777 2.07211 5.85563 2.32049 5.75135 2.54202C5.64707 2.76355 5.51105 2.96271 5.34329 3.13725C5.17554 3.31179 4.98511 3.46395 4.77201 3.5915C4.55892 3.71905 4.34128 3.82646 4.11685 3.91149C4.37529 3.92044 4.6496 3.98086 4.93977 4.09051C5.22994 4.20239 5.49292 4.36127 5.73095 4.57161C5.96898 4.78195 6.16848 5.03929 6.32717 5.34585C6.48812 5.65242 6.56747 6.00821 6.56747 6.40876C6.56747 6.71532 6.51533 7.02636 6.41105 7.3374C6.30676 7.64844 6.12994 7.92815 5.8783 8.17653C5.62667 8.42492 5.29342 8.62407 4.87856 8.77847C4.4637 8.93287 3.94456 9.00896 3.32114 9.00896C2.84507 9.00896 2.41661 8.9463 2.03802 8.82323C1.65944 8.70015 1.32846 8.5547 1.05188 8.38688C0.77531 8.22129 0.550878 8.0557 0.37632 7.89458C0.204029 7.73347 0.0770776 7.61711 0 7.54998L0.999742 6.91C0.95667 7.12258 0.981606 7.33516 1.07682 7.54327C1.17203 7.75361 1.32392 7.93934 1.53022 8.10716C1.73878 8.27275 1.99722 8.40702 2.3078 8.50324C2.61837 8.60169 2.97429 8.65092 3.37101 8.65092C3.87202 8.65092 4.27554 8.57037 4.58385 8.40702C4.8899 8.2459 5.1302 8.04898 5.30476 7.8185C5.47705 7.58802 5.59493 7.34411 5.65387 7.08901C5.71508 6.83392 5.74455 6.61239 5.74455 6.42442C5.74455 6.06639 5.69241 5.75759 5.58813 5.49578C5.48385 5.23621 5.34783 5.01467 5.18007 4.83566C5.01231 4.65664 4.82189 4.51343 4.60879 4.40602C4.39796 4.29861 4.17806 4.21582 3.95363 4.1554C3.42542 4.02785 2.8292 3.99652 2.16271 4.06589L2.13777 3.82198L2.14457 3.81975Z"/>
</mask>
<path d="M2.14457 3.81975C2.46422 3.81975 2.802 3.78171 3.15565 3.70562C3.5093 3.62954 3.83801 3.50871 4.14179 3.34759C4.44557 3.18648 4.69494 2.9739 4.89443 2.71433C5.09393 2.45475 5.19367 2.14371 5.19367 1.78568C5.19367 1.65813 5.16647 1.50597 5.10979 1.33143C5.05312 1.15689 4.95111 0.991302 4.80602 0.832426C4.65866 0.67355 4.46144 0.539289 4.2166 0.429642C3.9695 0.317757 3.65665 0.264052 3.2758 0.264052C2.97202 0.264052 2.70452 0.297618 2.47102 0.366986C2.23752 0.436355 2.04482 0.525862 1.89294 0.635509C1.74105 0.747394 1.63223 0.872705 1.56196 1.01368C1.49168 1.15465 1.47581 1.30234 1.50981 1.4545L0.600752 0.823476C0.695966 0.78991 0.816116 0.727255 0.963471 0.637747C1.11082 0.548239 1.28992 0.458732 1.50075 0.369224C1.71158 0.279716 1.96321 0.199159 2.25339 0.125315C2.54356 0.0537093 2.87001 0.0179062 3.23499 0.0179062C3.70199 0.0179062 4.10325 0.0671354 4.44103 0.165594C4.77881 0.264052 5.05539 0.393839 5.27075 0.55719C5.48611 0.718304 5.64707 0.90627 5.75135 1.12109C5.85563 1.33367 5.90777 1.55968 5.90777 1.79911C5.90777 2.07211 5.85563 2.32049 5.75135 2.54202C5.64707 2.76355 5.51105 2.96271 5.34329 3.13725C5.17554 3.31179 4.98511 3.46395 4.77201 3.5915C4.55892 3.71905 4.34128 3.82646 4.11685 3.91149C4.37529 3.92044 4.6496 3.98086 4.93977 4.09051C5.22994 4.20239 5.49292 4.36127 5.73095 4.57161C5.96898 4.78195 6.16848 5.03929 6.32717 5.34585C6.48812 5.65242 6.56747 6.00821 6.56747 6.40876C6.56747 6.71532 6.51533 7.02636 6.41105 7.3374C6.30676 7.64844 6.12994 7.92815 5.8783 8.17653C5.62667 8.42492 5.29342 8.62407 4.87856 8.77847C4.4637 8.93287 3.94456 9.00896 3.32114 9.00896C2.84507 9.00896 2.41661 8.9463 2.03802 8.82323C1.65944 8.70015 1.32846 8.5547 1.05188 8.38688C0.77531 8.22129 0.550878 8.0557 0.37632 7.89458C0.204029 7.73347 0.0770776 7.61711 0 7.54998L0.999742 6.91C0.95667 7.12258 0.981606 7.33516 1.07682 7.54327C1.17203 7.75361 1.32392 7.93934 1.53022 8.10716C1.73878 8.27275 1.99722 8.40702 2.3078 8.50324C2.61837 8.60169 2.97429 8.65092 3.37101 8.65092C3.87202 8.65092 4.27554 8.57037 4.58385 8.40702C4.8899 8.2459 5.1302 8.04898 5.30476 7.8185C5.47705 7.58802 5.59493 7.34411 5.65387 7.08901C5.71508 6.83392 5.74455 6.61239 5.74455 6.42442C5.74455 6.06639 5.69241 5.75759 5.58813 5.49578C5.48385 5.23621 5.34783 5.01467 5.18007 4.83566C5.01231 4.65664 4.82189 4.51343 4.60879 4.40602C4.39796 4.29861 4.17806 4.21582 3.95363 4.1554C3.42542 4.02785 2.8292 3.99652 2.16271 4.06589L2.13777 3.82198L2.14457 3.81975Z" fill="black"/>
<path d="M2.14457 3.81975V2.81975H1.98428L1.83202 2.86985L2.14457 3.81975ZM4.80602 0.832426L5.54446 0.15807L5.53921 0.152405L4.80602 0.832426ZM4.2166 0.429642L3.80412 1.34062L3.80788 1.3423L4.2166 0.429642ZM1.89294 0.635509L1.30759 -0.175334L1.29985 -0.16963L1.89294 0.635509ZM1.50981 1.4545L0.93958 2.27599L3.04461 3.7372L2.48574 1.23641L1.50981 1.4545ZM0.600752 0.823476L0.268279 -0.119637L-1.5753 0.530274L0.0305175 1.64496L0.600752 0.823476ZM2.25339 0.125315L2.0138 -0.845586L2.00677 -0.843797L2.25339 0.125315ZM5.27075 0.55719L4.66642 1.35395L4.67172 1.35792L5.27075 0.55719ZM5.75135 1.12109L4.85174 1.5578L4.85356 1.5615L5.75135 1.12109ZM4.11685 3.91149L3.76255 2.97636L4.08224 4.91089L4.11685 3.91149ZM4.93977 4.09051L5.29954 3.15744L5.29324 3.15506L4.93977 4.09051ZM6.32717 5.34585L5.43908 5.80556L5.44178 5.81071L6.32717 5.34585ZM1.05188 8.38688L1.57066 7.53195L1.56557 7.5289L1.05188 8.38688ZM0.37632 7.89458L-0.306712 8.625L-0.301922 8.62942L0.37632 7.89458ZM0 7.54998L-0.53914 6.70776L-1.66333 7.42741L-0.656773 8.30407L0 7.54998ZM0.999742 6.91L1.97983 7.10858L2.44856 4.7952L0.460602 6.06778L0.999742 6.91ZM1.07682 7.54327L1.98784 7.13089L1.98616 7.12722L1.07682 7.54327ZM1.53022 8.10716L0.899102 8.88294L0.908415 8.89034L1.53022 8.10716ZM2.3078 8.50324L2.61 7.54997L2.60373 7.54803L2.3078 8.50324ZM4.58385 8.40702L4.11802 7.52214L4.11568 7.52338L4.58385 8.40702ZM5.30476 7.8185L6.10195 8.42226L6.10571 8.41723L5.30476 7.8185ZM5.65387 7.08902L4.68144 6.85569L4.67954 6.86389L5.65387 7.08902ZM5.58813 5.49578L6.51715 5.12574L6.51605 5.12299L5.58813 5.49578ZM4.60879 4.40602L4.15484 5.29706L4.15869 5.299L4.60879 4.40602ZM3.95363 4.1554L4.21358 3.18978L4.20101 3.18639L4.18836 3.18334L3.95363 4.1554ZM2.16271 4.06589L1.16789 4.1676L1.26979 5.16423L2.26623 5.06052L2.16271 4.06589ZM2.13777 3.82198L1.82522 2.87208L1.06114 3.12349L1.14296 3.92369L2.13777 3.82198ZM2.14457 3.81975V4.81975C2.54322 4.81975 2.95182 4.77235 3.36597 4.68326L3.15565 3.70562L2.94533 2.72799C2.65218 2.79106 2.38522 2.81975 2.14457 2.81975V3.81975ZM3.15565 3.70562L3.36597 4.68326C3.80895 4.58796 4.22463 4.4356 4.61034 4.23103L4.14179 3.34759L3.67324 2.46415C3.4514 2.58181 3.20965 2.67113 2.94533 2.72799L3.15565 3.70562ZM4.14179 3.34759L4.61034 4.23103C5.04 4.00315 5.40016 3.69733 5.68731 3.3237L4.89443 2.71433L4.10155 2.10495C3.98971 2.25047 3.85113 2.36981 3.67324 2.46415L4.14179 3.34759ZM4.89443 2.71433L5.68731 3.3237C6.03473 2.87166 6.19367 2.34067 6.19367 1.78568H5.19367H4.19367C4.19367 1.94675 4.15312 2.03785 4.10155 2.10495L4.89443 2.71433ZM5.19367 1.78568H6.19367C6.19367 1.52311 6.13912 1.26346 6.06091 1.0226L5.10979 1.33143L4.15868 1.64027C4.17538 1.69169 4.18455 1.73015 4.18935 1.75636C4.19423 1.78296 4.19367 1.79193 4.19367 1.78568H5.19367ZM5.10979 1.33143L6.06091 1.0226C5.95173 0.686357 5.76527 0.399901 5.54444 0.15809L4.80602 0.832426L4.06759 1.50676C4.13694 1.5827 4.15451 1.62743 4.15868 1.64027L5.10979 1.33143ZM4.80602 0.832426L5.53921 0.152405C5.28035 -0.126694 4.96267 -0.331939 4.62533 -0.483016L4.2166 0.429642L3.80788 1.3423C3.9602 1.41052 4.03697 1.47379 4.07282 1.51245L4.80602 0.832426ZM4.2166 0.429642L4.62908 -0.481327C4.20789 -0.672035 3.74026 -0.735948 3.2758 -0.735948V0.264052V1.26405C3.57305 1.26405 3.73111 1.30755 3.80413 1.34061L4.2166 0.429642ZM3.2758 0.264052V-0.735948C2.901 -0.735948 2.53372 -0.694838 2.18624 -0.591607L2.47102 0.366986L2.7558 1.32558C2.87531 1.29007 3.04304 1.26405 3.2758 1.26405V0.264052ZM2.47102 0.366986L2.18624 -0.591607C1.87558 -0.499316 1.57339 -0.367154 1.30762 -0.175297L1.89294 0.635509L2.47825 1.44632C2.51626 1.41888 2.59946 1.37203 2.7558 1.32558L2.47102 0.366986ZM1.89294 0.635509L1.29985 -0.16963C1.04187 0.0204021 0.81907 0.262473 0.666994 0.567536L1.56196 1.01368L2.45692 1.45982C2.45232 1.46904 2.44858 1.47315 2.44997 1.47155C2.45186 1.4694 2.46182 1.45847 2.48602 1.44065L1.89294 0.635509ZM1.56196 1.01368L0.666994 0.567536C0.490346 0.921892 0.451736 1.30499 0.533888 1.6726L1.50981 1.4545L2.48574 1.23641C2.49129 1.26124 2.49545 1.29896 2.49017 1.34469C2.48483 1.3909 2.47154 1.43049 2.45692 1.45982L1.56196 1.01368ZM1.50981 1.4545L2.08005 0.633023L1.17099 0.00199374L0.600752 0.823476L0.0305175 1.64496L0.93958 2.27599L1.50981 1.4545ZM0.600752 0.823476L0.933225 1.76659C1.12838 1.69779 1.31962 1.59144 1.48263 1.49242L0.963471 0.637747L0.444312 -0.216931C0.3841 -0.180356 0.338541 -0.154843 0.305136 -0.13766C0.270207 -0.119693 0.259692 -0.11661 0.268279 -0.119637L0.600752 0.823476ZM0.963471 0.637747L1.48263 1.49242C1.578 1.43449 1.71159 1.3661 1.89154 1.2897L1.50075 0.369224L1.10996 -0.551256C0.868248 -0.448638 0.643649 -0.338015 0.444312 -0.216931L0.963471 0.637747ZM1.50075 0.369224L1.89154 1.2897C2.04114 1.22619 2.24101 1.16034 2.50001 1.09443L2.25339 0.125315L2.00677 -0.843797C1.68541 -0.762018 1.38202 -0.666758 1.10996 -0.551256L1.50075 0.369224ZM2.25339 0.125315L2.49297 1.09619C2.68997 1.04758 2.93396 1.01791 3.23499 1.01791V0.0179062V-0.982094C2.80606 -0.982094 2.39715 -0.940158 2.01381 -0.845561L2.25339 0.125315ZM3.23499 0.0179062V1.01791C3.63597 1.01791 3.93827 1.06066 4.16119 1.12564L4.44103 0.165594L4.72087 -0.794453C4.26823 -0.926392 3.76802 -0.982094 3.23499 -0.982094V0.0179062ZM4.44103 0.165594L4.16119 1.12564C4.41776 1.20043 4.57432 1.28407 4.66643 1.35393L5.27075 0.55719L5.87507 -0.239551C5.53645 -0.496391 5.13987 -0.672321 4.72087 -0.794453L4.44103 0.165594ZM5.27075 0.55719L4.67172 1.35792C4.77765 1.43716 4.82654 1.50587 4.85175 1.55779L5.75135 1.12109L6.65096 0.684384C6.4676 0.30667 6.19458 -0.000551436 5.86978 -0.243539L5.27075 0.55719ZM5.75135 1.12109L4.85356 1.5615C4.88982 1.63542 4.90777 1.71058 4.90777 1.79911H5.90777H6.90777C6.90777 1.40877 6.82145 1.03192 6.64915 0.680675L5.75135 1.12109ZM5.90777 1.79911H4.90777C4.90777 1.94257 4.88102 2.04296 4.84658 2.11612L5.75135 2.54202L6.65612 2.96793C6.83025 2.59802 6.90777 2.20164 6.90777 1.79911H5.90777ZM5.75135 2.54202L4.84658 2.11612C4.78733 2.242 4.7126 2.35035 4.62232 2.44429L5.34329 3.13725L6.06427 3.83021C6.3095 3.57507 6.50681 3.28511 6.65612 2.96793L5.75135 2.54202ZM5.34329 3.13725L4.62232 2.44429C4.51597 2.55493 4.39527 2.65156 4.25843 2.73346L4.77201 3.5915L5.28559 4.44954C5.57495 4.27635 5.8351 4.06865 6.06427 3.83021L5.34329 3.13725ZM4.77201 3.5915L4.25843 2.73346C4.09062 2.83391 3.9261 2.9144 3.76255 2.97636L4.11685 3.91149L4.47115 4.84662C4.75647 4.73852 5.02722 4.60419 5.28559 4.44954L4.77201 3.5915ZM4.11685 3.91149L4.08224 4.91089C4.20996 4.91532 4.37575 4.94639 4.5863 5.02595L4.93977 4.09051L5.29324 3.15506C4.92344 3.01533 4.54062 2.92557 4.15147 2.91209L4.11685 3.91149ZM4.93977 4.09051L4.58001 5.02355C4.75956 5.09278 4.92007 5.18955 5.06877 5.32096L5.73095 4.57161L6.39313 3.82226C6.06577 3.53298 5.70033 3.312 5.29953 3.15746L4.93977 4.09051ZM5.73095 4.57161L5.06877 5.32096C5.20892 5.4448 5.3338 5.60214 5.43909 5.80555L6.32717 5.34585L7.21524 4.88615C7.00316 4.47644 6.72905 4.1191 6.39313 3.82226L5.73095 4.57161ZM6.32717 5.34585L5.44178 5.81071C5.51513 5.95042 5.56747 6.14139 5.56747 6.40876H6.56747H7.56747C7.56747 5.87503 7.46112 5.35442 7.21255 4.881L6.32717 5.34585ZM6.56747 6.40876H5.56747C5.56747 6.60069 5.535 6.80453 5.46291 7.01952L6.41105 7.3374L7.35918 7.65528C7.49566 7.24819 7.56747 6.82995 7.56747 6.40876H6.56747ZM6.41105 7.3374L5.46291 7.01952C5.41171 7.17226 5.32323 7.31932 5.17581 7.46484L5.8783 8.17653L6.5808 8.88822C6.93664 8.53697 7.20182 8.12461 7.35918 7.65528L6.41105 7.3374ZM5.8783 8.17653L5.17581 7.46484C5.04889 7.59012 4.848 7.72283 4.52976 7.84128L4.87856 8.77847L5.22736 9.71567C5.73884 9.52531 6.20444 9.25972 6.5808 8.88822L5.8783 8.17653ZM4.87856 8.77847L4.52976 7.84128C4.26307 7.94053 3.872 8.00896 3.32114 8.00896V9.00896V10.009C4.01712 10.009 4.66434 9.92521 5.22736 9.71567L4.87856 8.77847ZM3.32114 9.00896V8.00896C2.93173 8.00896 2.60988 7.95761 2.34718 7.87222L2.03802 8.82323L1.72886 9.77424C2.22335 9.93499 2.75841 10.009 3.32114 10.009V9.00896ZM2.03802 8.82323L2.34718 7.87222C2.02311 7.76687 1.76629 7.65067 1.57065 7.53196L1.05188 8.38688L0.533113 9.24179C0.890624 9.45873 1.29576 9.63344 1.72886 9.77424L2.03802 8.82323ZM1.05188 8.38688L1.56557 7.5289C1.33435 7.39046 1.16821 7.26464 1.05456 7.15974L0.37632 7.89458L-0.301922 8.62942C-0.0664506 8.84676 0.21627 9.05211 0.538196 9.24485L1.05188 8.38688ZM0.37632 7.89458L1.05934 7.16418C0.887072 7.00309 0.748587 6.87586 0.656773 6.79589L0 7.54998L-0.656773 8.30407C-0.594431 8.35836 -0.479014 8.46385 -0.306697 8.62499L0.37632 7.89458ZM0 7.54998L0.53914 8.3922L1.53888 7.75222L0.999742 6.91L0.460602 6.06778L-0.53914 6.70776L0 7.54998ZM0.999742 6.91L0.0196583 6.71142C-0.0668987 7.13861 -0.0124975 7.56595 0.167477 7.95931L1.07682 7.54327L1.98616 7.12722C1.98233 7.11884 1.98057 7.11343 1.97983 7.11086C1.97911 7.10833 1.97912 7.10769 1.97923 7.10857C1.97934 7.10947 1.97938 7.11056 1.97934 7.11137C1.97931 7.11215 1.97926 7.11136 1.97983 7.10858L0.999742 6.91ZM1.07682 7.54327L0.165807 7.95564C0.33718 8.33424 0.598048 8.63794 0.899147 8.88289L1.53022 8.10716L2.16129 7.33144C2.0498 7.24074 2.00689 7.17298 1.98783 7.13089L1.07682 7.54327ZM1.53022 8.10716L0.908415 8.89034C1.22696 9.14325 1.59984 9.3308 2.01186 9.45844L2.3078 8.50324L2.60373 7.54803C2.39459 7.48323 2.2506 7.40226 2.15202 7.32399L1.53022 8.10716ZM2.3078 8.50324L2.0056 9.45648C2.43299 9.59197 2.89389 9.65092 3.37101 9.65092V8.65092V7.65092C3.05469 7.65092 2.80376 7.61142 2.60999 7.54999L2.3078 8.50324ZM3.37101 8.65092V9.65092C3.96701 9.65092 4.54932 9.557 5.05203 9.29065L4.58385 8.40702L4.11568 7.52338C4.00176 7.58374 3.77703 7.65092 3.37101 7.65092V8.65092ZM4.58385 8.40702L5.04969 9.29189C5.46217 9.07474 5.82425 8.78889 6.10193 8.42225L5.30476 7.8185L4.50758 7.21475C4.43614 7.30908 4.31762 7.41707 4.11802 7.52214L4.58385 8.40702ZM5.30476 7.8185L6.10571 8.41723C6.3503 8.09003 6.5342 7.72097 6.6282 7.31414L5.65387 7.08902L4.67954 6.86389C4.65566 6.96725 4.60379 7.08601 4.5038 7.21977L5.30476 7.8185ZM5.65387 7.08902L6.62627 7.32234C6.7001 7.01464 6.74455 6.71218 6.74455 6.42442H5.74455H4.74455C4.74455 6.51259 4.73006 6.65319 4.68147 6.85569L5.65387 7.08902ZM5.74455 6.42442H6.74455C6.74455 5.97207 6.67898 5.53205 6.51715 5.12574L5.58813 5.49578L4.65911 5.86581C4.70584 5.98312 4.74455 6.16071 4.74455 6.42442H5.74455ZM5.58813 5.49578L6.51605 5.12299C6.37319 4.76741 6.17529 4.43523 5.90975 4.15187L5.18007 4.83566L4.45039 5.51945C4.52037 5.59412 4.5945 5.705 4.66021 5.86856L5.58813 5.49578ZM5.18007 4.83566L5.90975 4.15187C5.66408 3.88971 5.37967 3.67473 5.05889 3.51304L4.60879 4.40602L4.15869 5.299C4.2641 5.35213 4.36055 5.42358 4.45039 5.51945L5.18007 4.83566ZM4.60879 4.40602L5.06273 3.51499C4.78643 3.37423 4.5011 3.26718 4.21358 3.18978L3.95363 4.1554L3.69368 5.12102C3.85502 5.16446 4.00949 5.223 4.15485 5.29705L4.60879 4.40602ZM3.95363 4.1554L4.18836 3.18334C3.5294 3.02422 2.81631 2.99246 2.05919 3.07126L2.16271 4.06589L2.26623 5.06052C2.8421 5.00058 3.32145 5.03149 3.7189 5.12746L3.95363 4.1554ZM2.16271 4.06589L3.15752 3.96418L3.13259 3.72027L2.13777 3.82198L1.14296 3.92369L1.16789 4.1676L2.16271 4.06589ZM2.13777 3.82198L2.45032 4.77188L2.45712 4.76965L2.14457 3.81975L1.83202 2.86985L1.82522 2.87208L2.13777 3.82198Z" fill="black" mask="url(#path-1-inside-1_10_113)"/>
<mask id="path-3-inside-2_10_113" fill="white">
<path d="M13.3256 0.0179062C13.8697 0.0179062 14.3662 0.132029 14.8105 0.358035C15.2549 0.584042 15.6357 0.895082 15.9508 1.29339C16.2659 1.68946 16.5108 2.15266 16.6831 2.683C16.8554 3.21333 16.9415 3.78394 16.9415 4.39931C16.9415 5.01467 16.8531 5.58752 16.6763 6.14695C16.4994 6.70637 16.2523 7.19642 15.9372 7.61935C15.6221 8.04227 15.2413 8.37793 14.7947 8.63078C14.3503 8.88141 13.8584 9.00896 13.3234 9.00896C12.7884 9.00896 12.2964 8.89483 11.8521 8.66435C11.4078 8.43387 11.0224 8.11388 10.6982 7.70438C10.374 7.29488 10.1224 6.8093 9.94557 6.2454C9.76874 5.68151 9.68033 5.06838 9.68033 4.40155C9.68033 3.78618 9.76874 3.21557 9.94557 2.68524C10.1224 2.15714 10.3695 1.69394 10.6846 1.29563C10.9997 0.899557 11.3828 0.58628 11.8317 0.360273C12.2806 0.134266 12.7793 0.0201439 13.3234 0.0201439L13.3256 0.0179062ZM13.3256 8.69792C13.7745 8.69792 14.1758 8.56813 14.5249 8.30632C14.874 8.04675 15.1687 7.71109 15.4067 7.3016C15.6448 6.8921 15.8261 6.43113 15.9508 5.9187C16.0755 5.40627 16.139 4.89831 16.139 4.39483C16.139 3.83989 16.0732 3.31403 15.944 2.81278C15.8148 2.31154 15.6266 1.87519 15.3795 1.5015C15.1324 1.12556 14.8377 0.830189 14.4909 0.610895C14.144 0.393839 13.7564 0.284192 13.3234 0.284192C12.8904 0.284192 12.5005 0.402789 12.1491 0.642222C11.8 0.881656 11.5007 1.19717 11.2536 1.58877C11.0065 1.98036 10.8161 2.42119 10.6823 2.90677C10.5486 3.39235 10.4806 3.88911 10.4806 4.3926C10.4806 4.89608 10.5463 5.40403 10.6755 5.91646C10.8048 6.4289 10.9906 6.88986 11.2332 7.29936C11.4758 7.70886 11.7705 8.04451 12.1219 8.30408C12.471 8.56365 12.8723 8.69568 13.3211 8.69568L13.3256 8.69792Z"/>
</mask>
<path d="M13.3256 0.0179062C13.8697 0.0179062 14.3662 0.132029 14.8105 0.358035C15.2549 0.584042 15.6357 0.895082 15.9508 1.29339C16.2659 1.68946 16.5108 2.15266 16.6831 2.683C16.8554 3.21333 16.9415 3.78394 16.9415 4.39931C16.9415 5.01467 16.8531 5.58752 16.6763 6.14695C16.4994 6.70637 16.2523 7.19642 15.9372 7.61935C15.6221 8.04227 15.2413 8.37793 14.7947 8.63078C14.3503 8.88141 13.8584 9.00896 13.3234 9.00896C12.7884 9.00896 12.2964 8.89483 11.8521 8.66435C11.4078 8.43387 11.0224 8.11388 10.6982 7.70438C10.374 7.29488 10.1224 6.8093 9.94557 6.2454C9.76874 5.68151 9.68033 5.06838 9.68033 4.40155C9.68033 3.78618 9.76874 3.21557 9.94557 2.68524C10.1224 2.15714 10.3695 1.69394 10.6846 1.29563C10.9997 0.899557 11.3828 0.58628 11.8317 0.360273C12.2806 0.134266 12.7793 0.0201439 13.3234 0.0201439L13.3256 0.0179062ZM13.3256 8.69792C13.7745 8.69792 14.1758 8.56813 14.5249 8.30632C14.874 8.04675 15.1687 7.71109 15.4067 7.3016C15.6448 6.8921 15.8261 6.43113 15.9508 5.9187C16.0755 5.40627 16.139 4.89831 16.139 4.39483C16.139 3.83989 16.0732 3.31403 15.944 2.81278C15.8148 2.31154 15.6266 1.87519 15.3795 1.5015C15.1324 1.12556 14.8377 0.830189 14.4909 0.610895C14.144 0.393839 13.7564 0.284192 13.3234 0.284192C12.8904 0.284192 12.5005 0.402789 12.1491 0.642222C11.8 0.881656 11.5007 1.19717 11.2536 1.58877C11.0065 1.98036 10.8161 2.42119 10.6823 2.90677C10.5486 3.39235 10.4806 3.88911 10.4806 4.3926C10.4806 4.89608 10.5463 5.40403 10.6755 5.91646C10.8048 6.4289 10.9906 6.88986 11.2332 7.29936C11.4758 7.70886 11.7705 8.04451 12.1219 8.30408C12.471 8.56365 12.8723 8.69568 13.3211 8.69568L13.3256 8.69792Z" fill="black"/>
<path d="M13.3256 0.0179062V-0.982094H12.9152L12.6231 -0.693725L13.3256 0.0179062ZM15.9508 1.29339L15.1666 1.91383L15.1683 1.91598L15.9508 1.29339ZM14.7947 8.63078L15.2859 9.50179L15.2874 9.50098L14.7947 8.63078ZM9.94557 2.68524L8.99731 2.36773L8.99691 2.36893L9.94557 2.68524ZM10.6846 1.29563L9.90205 0.673037L9.90035 0.675188L10.6846 1.29563ZM13.3234 0.0201439V1.02014H13.7338L14.0259 0.731775L13.3234 0.0201439ZM13.3256 8.69792L12.8831 9.59465L13.0923 9.69792H13.3256V8.69792ZM14.5249 8.30632L13.9282 7.50382L13.9249 7.50629L14.5249 8.30632ZM15.3795 1.5015L14.5439 2.05077L14.5454 2.05306L15.3795 1.5015ZM14.4909 0.610895L15.0253 -0.234349L15.0214 -0.236801L14.4909 0.610895ZM12.1491 0.642222L11.586 -0.184169L11.5835 -0.182463L12.1491 0.642222ZM12.1219 8.30408L12.7185 7.50159L12.7161 7.49975L12.1219 8.30408ZM13.3211 8.69568L13.7637 7.79894L13.5544 7.69568H13.3211V8.69568ZM13.3256 0.0179062V1.01791C13.726 1.01791 14.0651 1.10082 14.3572 1.24936L14.8105 0.358036L15.2639 -0.533288C14.6673 -0.836762 14.0134 -0.982094 13.3256 -0.982094V0.0179062ZM14.8105 0.358036L14.3572 1.24936C14.6724 1.40972 14.9406 1.62816 15.1666 1.91383L15.9508 1.29339L16.7351 0.67295C16.3309 0.162004 15.8373 -0.241636 15.2639 -0.533288L14.8105 0.358036ZM15.9508 1.29339L15.1683 1.91598C15.4025 2.21035 15.5933 2.56515 15.732 2.99198L16.6831 2.683L17.6341 2.37402C17.4282 1.74018 17.1294 1.16858 16.7334 0.670801L15.9508 1.29339ZM16.6831 2.683L15.732 2.99198C15.8688 3.41311 15.9415 3.87849 15.9415 4.39931H16.9415H17.9415C17.9415 3.6894 17.8419 3.01355 17.6341 2.37402L16.6831 2.683ZM16.9415 4.39931H15.9415C15.9415 4.91491 15.868 5.38598 15.7228 5.84556L16.6763 6.14695L17.6298 6.44833C17.8381 5.78907 17.9415 5.11443 17.9415 4.39931H16.9415ZM16.6763 6.14695L15.7228 5.84556C15.5764 6.30853 15.3777 6.69654 15.1353 7.02188L15.9372 7.61935L16.7391 8.21682C17.1269 7.69631 17.4224 7.10421 17.6298 6.44833L16.6763 6.14695ZM15.9372 7.61935L15.1353 7.02188C14.9022 7.33475 14.6262 7.57699 14.302 7.76058L14.7947 8.63078L15.2874 9.50098C15.8563 9.17886 16.342 8.7498 16.7391 8.21682L15.9372 7.61935ZM14.7947 8.63078L14.3034 7.75978C14.0145 7.92271 13.6927 8.00896 13.3234 8.00896V9.00896V10.009C14.024 10.009 14.6861 9.8401 15.2859 9.50179L14.7947 8.63078ZM13.3234 9.00896V8.00896C12.935 8.00896 12.603 7.92734 12.3126 7.77667L11.8521 8.66435L11.3916 9.55203C11.9898 9.86233 12.6417 10.009 13.3234 10.009V9.00896ZM11.8521 8.66435L12.3126 7.77667C11.9984 7.61369 11.7219 7.38644 11.4823 7.08368L10.6982 7.70438L9.91415 8.32508C10.3228 8.84131 10.8172 9.25405 11.3916 9.55203L11.8521 8.66435ZM10.6982 7.70438L11.4823 7.08368C11.2422 6.78041 11.0442 6.40675 10.8998 5.94619L9.94557 6.2454L8.99138 6.54462C9.20061 7.21186 9.50588 7.80935 9.91415 8.32508L10.6982 7.70438ZM9.94557 6.2454L10.8998 5.94619C10.7568 5.49035 10.6803 4.97936 10.6803 4.40155H9.68033H8.68033C8.68033 5.1574 8.78067 5.87267 8.99138 6.54462L9.94557 6.2454ZM9.68033 4.40155H10.6803C10.6803 3.88334 10.7545 3.42051 10.8942 3.00154L9.94557 2.68524L8.99691 2.36893C8.78295 3.01063 8.68033 3.68902 8.68033 4.40155H9.68033ZM9.94557 2.68524L10.8938 3.00275C11.037 2.57506 11.2314 2.21627 11.4689 1.91607L10.6846 1.29563L9.90035 0.675188C9.50762 1.17161 9.20776 1.73922 8.99731 2.36773L9.94557 2.68524ZM10.6846 1.29563L11.4672 1.91822C11.6937 1.63341 11.964 1.41328 12.2814 1.25344L11.8317 0.360273L11.382 -0.532897C10.8017 -0.240725 10.3057 0.165705 9.90206 0.673039L10.6846 1.29563ZM11.8317 0.360273L12.2814 1.25344C12.5801 1.10303 12.9231 1.02014 13.3234 1.02014V0.0201439V-0.979856C12.6355 -0.979856 11.981 -0.834499 11.382 -0.532897L11.8317 0.360273ZM13.3234 0.0201439L14.0259 0.731775L14.0282 0.729538L13.3256 0.0179062L12.6231 -0.693725L12.6208 -0.691488L13.3234 0.0201439ZM13.3256 8.69792V9.69792C13.9812 9.69792 14.5951 9.50364 15.1248 9.10635L14.5249 8.30632L13.9249 7.50629C13.7565 7.63262 13.5678 7.69792 13.3256 7.69792V8.69792ZM14.5249 8.30632L15.1215 9.10881C15.5885 8.7616 15.9712 8.32041 16.2713 7.80414L15.4067 7.3016L14.5422 6.79905C14.3662 7.10178 14.1595 7.3319 13.9282 7.50383L14.5249 8.30632ZM15.4067 7.3016L16.2713 7.80414C16.5628 7.30273 16.7776 6.75049 16.9225 6.15512L15.9508 5.9187L14.9792 5.68228C14.8747 6.11177 14.7268 6.48147 14.5422 6.79905L15.4067 7.3016ZM15.9508 5.9187L16.9225 6.15512C17.0647 5.57044 17.139 4.98309 17.139 4.39483H16.139H15.139C15.139 4.81353 15.0863 5.2421 14.9792 5.68228L15.9508 5.9187ZM16.139 4.39483H17.139C17.139 3.75989 17.0636 3.14992 16.9124 2.56315L15.944 2.81278L14.9757 3.06242C15.0828 3.47813 15.139 3.91988 15.139 4.39483H16.139ZM15.944 2.81278L16.9124 2.56315C16.7595 1.97025 16.5303 1.42878 16.2137 0.949934L15.3795 1.5015L14.5454 2.05306C14.723 2.32161 14.8701 2.65283 14.9757 3.06242L15.944 2.81278ZM15.3795 1.5015L16.2152 0.952224C15.8975 0.468922 15.5037 0.0681254 15.0253 -0.23434L14.4909 0.610895L13.9565 1.45613C14.1718 1.59225 14.3674 1.78221 14.5439 2.05077L15.3795 1.5015ZM14.4909 0.610895L15.0214 -0.236801C14.5085 -0.557778 13.9355 -0.715808 13.3234 -0.715808V0.284192V1.28419C13.5772 1.28419 13.7796 1.34546 13.9604 1.45859L14.4909 0.610895ZM13.3234 0.284192V-0.715808C12.6941 -0.715808 12.1071 -0.53929 11.586 -0.184165L12.1491 0.642222L12.7122 1.46861C12.8938 1.34487 13.0866 1.28419 13.3234 1.28419V0.284192ZM12.1491 0.642222L11.5835 -0.182463C11.1131 0.140172 10.7215 0.5582 10.4079 1.05512L11.2536 1.58877L12.0993 2.12242C12.28 1.83614 12.4869 1.62314 12.7147 1.46691L12.1491 0.642222ZM11.2536 1.58877L10.4079 1.05512C10.1034 1.53774 9.87546 2.07046 9.71824 2.64121L10.6823 2.90677L11.6464 3.17233C11.7567 2.77192 11.9097 2.42299 12.0993 2.12242L11.2536 1.58877ZM10.6823 2.90677L9.71824 2.64121C9.56097 3.21219 9.48058 3.79825 9.48058 4.3926H10.4806H11.4806C11.4806 3.97998 11.5362 3.5725 11.6464 3.17233L10.6823 2.90677ZM10.4806 4.3926H9.48058C9.48058 4.98394 9.55788 5.57404 9.70589 6.16098L10.6755 5.91646L11.6452 5.67195C11.5348 5.23403 11.4806 4.80821 11.4806 4.3926H10.4806ZM10.6755 5.91646L9.70589 6.16098C9.85604 6.75642 10.0762 7.30829 10.3728 7.80901L11.2332 7.29936L12.0936 6.78971C11.9051 6.47143 11.7535 6.10137 11.6452 5.67195L10.6755 5.91646ZM11.2332 7.29936L10.3728 7.80901C10.6754 8.31982 11.0566 8.76044 11.5277 9.10842L12.1219 8.30408L12.7161 7.49975C12.4843 7.32857 12.2762 7.09789 12.0936 6.78971L11.2332 7.29936ZM12.1219 8.30408L11.5252 9.10657C12.0507 9.4973 12.6622 9.69568 13.3211 9.69568V8.69568V7.69568C13.0823 7.69568 12.8913 7.63001 12.7185 7.50159L12.1219 8.30408ZM13.3211 8.69568L12.8785 9.59241L12.8831 9.59465L13.3256 8.69792L13.7682 7.80118L13.7637 7.79894L13.3211 8.69568Z" fill="black" mask="url(#path-3-inside-2_10_113)"/>
<path d="M20.5485 8.49011L20.5466 8.48914M20.5485 8.49011V8.48718M20.5485 8.49011C20.5473 8.49192 20.5471 8.49156 20.5495 8.48914C20.5505 8.48759 20.5514 8.48562 20.5524 8.48328L20.5485 8.48718M20.5485 8.49011V8.48718M20.5466 8.48914L20.5485 8.48718M20.5466 8.48914L20.5485 8.48718M20.5466 8.48914L20.5456 8.48816C20.5446 8.4865 20.5427 8.48372 20.5417 8.48132M20.5485 8.48718L20.5417 8.48132M20.5485 8.48718V8.46667M20.5485 8.48718L20.5417 8.48132M20.5485 8.48718L20.5534 8.4823C20.5539 8.48106 20.554 8.47944 20.5544 8.47839C20.5541 8.47749 20.5538 8.4765 20.5534 8.47546C20.5521 8.47227 20.5507 8.46956 20.5495 8.46765V8.46667H20.5485M20.5485 8.48718V8.46667M20.5417 8.48132C20.5411 8.47989 20.541 8.47849 20.5407 8.47742L20.5427 8.47546C20.5439 8.47261 20.5459 8.47008 20.5475 8.46765V8.4657L20.5485 8.46667" fill="black" stroke="black"/>
<mask id="path-6-inside-3_10_113" fill="white">
<path d="M33.7648 0.0179008C33.6787 0.0358024 33.5993 0.0827939 33.5313 0.158875C33.461 0.228244 33.4044 0.324465 33.3568 0.454251C33.3091 0.581799 33.2865 0.756339 33.2865 0.980109V8.02213C33.2865 8.24366 33.3091 8.4182 33.3568 8.54799C33.4044 8.67553 33.4633 8.77399 33.5313 8.84336C33.5993 8.91944 33.6787 8.96643 33.7648 8.98434H32.0147C32.1008 8.95972 32.1825 8.90825 32.2618 8.82993C32.323 8.7628 32.3752 8.66658 32.4228 8.54127C32.4704 8.4182 32.493 8.24366 32.493 8.02213V1.19493C32.493 0.912978 32.4545 0.704873 32.3774 0.568373C32.3525 0.601939 32.3185 0.637742 32.2799 0.67802C32.2414 0.716061 32.1961 0.772003 32.1439 0.843609C32.0918 0.915216 32.0328 1.01591 31.9694 1.14346C31.9036 1.27101 31.8333 1.43884 31.7563 1.64247C31.7472 1.66708 31.7359 1.69841 31.7245 1.73197C31.7109 1.76554 31.6815 1.8461 31.6338 1.97588C31.5862 2.10567 31.5137 2.29587 31.4139 2.55097C31.3142 2.80607 31.1736 3.16633 30.9923 3.6273C30.8109 4.08826 30.5842 4.67454 30.3122 5.38836C30.0402 6.09995 29.7001 6.97713 29.2943 8.01989C29.2082 8.23247 29.1402 8.40477 29.0925 8.53232C29.0449 8.65987 28.9996 8.75833 28.9565 8.8277C28.9135 8.89707 28.8613 8.93958 28.8001 8.95525C28.7389 8.97315 28.6573 8.97986 28.553 8.97986C28.5439 8.95525 28.5235 8.90378 28.4873 8.82546C28.4623 8.75833 28.4238 8.66211 28.3762 8.5368C28.3286 8.41149 28.2606 8.23918 28.1744 8.01765L25.6445 1.48806C25.5492 1.23968 25.4518 1.04724 25.352 0.906265C25.2523 0.76529 25.1729 0.660119 25.1117 0.592988C25.0414 0.747389 25.0074 0.946543 25.0074 1.19493V8.01765C25.0074 8.23918 25.0301 8.41372 25.0777 8.54351C25.1253 8.67106 25.1843 8.76952 25.2523 8.83889C25.3203 8.91497 25.3996 8.96196 25.4858 8.97986H24.1505C24.2367 8.95525 24.3183 8.90378 24.3976 8.82546C24.4588 8.75833 24.511 8.66211 24.5586 8.5368C24.6062 8.41149 24.6311 8.23918 24.6311 8.01765V0.977871C24.6311 0.756339 24.6062 0.584037 24.5586 0.458726C24.511 0.333416 24.4566 0.239432 24.3976 0.170064C24.3205 0.0939824 24.2367 0.0425155 24.1505 0.0156631H26.3427C26.2656 0.0335647 26.2044 0.0805562 26.1613 0.156638C26.1183 0.226006 26.0956 0.322227 26.0956 0.452013C26.0956 0.581799 26.1387 0.754102 26.2248 0.977871L28.9361 7.97961L31.6474 0.977871C31.7427 0.756339 31.788 0.581799 31.7835 0.452013C31.7789 0.322227 31.7585 0.226006 31.7245 0.156638C31.6815 0.0805562 31.6157 0.0335647 31.5296 0.0156631H33.7603L33.7648 0.0179008Z"/>
</mask>
<path d="M33.7648 0.0179008C33.6787 0.0358024 33.5993 0.0827939 33.5313 0.158875C33.461 0.228244 33.4044 0.324465 33.3568 0.454251C33.3091 0.581799 33.2865 0.756339 33.2865 0.980109V8.02213C33.2865 8.24366 33.3091 8.4182 33.3568 8.54799C33.4044 8.67553 33.4633 8.77399 33.5313 8.84336C33.5993 8.91944 33.6787 8.96643 33.7648 8.98434H32.0147C32.1008 8.95972 32.1825 8.90825 32.2618 8.82993C32.323 8.7628 32.3752 8.66658 32.4228 8.54127C32.4704 8.4182 32.493 8.24366 32.493 8.02213V1.19493C32.493 0.912978 32.4545 0.704873 32.3774 0.568373C32.3525 0.601939 32.3185 0.637742 32.2799 0.67802C32.2414 0.716061 32.1961 0.772003 32.1439 0.843609C32.0918 0.915216 32.0328 1.01591 31.9694 1.14346C31.9036 1.27101 31.8333 1.43884 31.7563 1.64247C31.7472 1.66708 31.7359 1.69841 31.7245 1.73197C31.7109 1.76554 31.6815 1.8461 31.6338 1.97588C31.5862 2.10567 31.5137 2.29587 31.4139 2.55097C31.3142 2.80607 31.1736 3.16633 30.9923 3.6273C30.8109 4.08826 30.5842 4.67454 30.3122 5.38836C30.0402 6.09995 29.7001 6.97713 29.2943 8.01989C29.2082 8.23247 29.1402 8.40477 29.0925 8.53232C29.0449 8.65987 28.9996 8.75833 28.9565 8.8277C28.9135 8.89707 28.8613 8.93958 28.8001 8.95525C28.7389 8.97315 28.6573 8.97986 28.553 8.97986C28.5439 8.95525 28.5235 8.90378 28.4873 8.82546C28.4623 8.75833 28.4238 8.66211 28.3762 8.5368C28.3286 8.41149 28.2606 8.23918 28.1744 8.01765L25.6445 1.48806C25.5492 1.23968 25.4518 1.04724 25.352 0.906265C25.2523 0.76529 25.1729 0.660119 25.1117 0.592988C25.0414 0.747389 25.0074 0.946543 25.0074 1.19493V8.01765C25.0074 8.23918 25.0301 8.41372 25.0777 8.54351C25.1253 8.67106 25.1843 8.76952 25.2523 8.83889C25.3203 8.91497 25.3996 8.96196 25.4858 8.97986H24.1505C24.2367 8.95525 24.3183 8.90378 24.3976 8.82546C24.4588 8.75833 24.511 8.66211 24.5586 8.5368C24.6062 8.41149 24.6311 8.23918 24.6311 8.01765V0.977871C24.6311 0.756339 24.6062 0.584037 24.5586 0.458726C24.511 0.333416 24.4566 0.239432 24.3976 0.170064C24.3205 0.0939824 24.2367 0.0425155 24.1505 0.0156631H26.3427C26.2656 0.0335647 26.2044 0.0805562 26.1613 0.156638C26.1183 0.226006 26.0956 0.322227 26.0956 0.452013C26.0956 0.581799 26.1387 0.754102 26.2248 0.977871L28.9361 7.97961L31.6474 0.977871C31.7427 0.756339 31.788 0.581799 31.7835 0.452013C31.7789 0.322227 31.7585 0.226006 31.7245 0.156638C31.6815 0.0805562 31.6157 0.0335647 31.5296 0.0156631H33.7603L33.7648 0.0179008Z" fill="black"/>
<path d="M33.7648 0.0179008L33.9683 0.996984L36.8115 0.406139L34.2073 -0.87887L33.7648 0.0179008ZM33.5313 0.158875L34.2338 0.870566L34.256 0.848619L34.2769 0.825326L33.5313 0.158875ZM33.3568 0.454251L34.2936 0.803938L34.2956 0.798624L33.3568 0.454251ZM33.3568 8.54799L32.4179 8.89236L32.4199 8.89767L33.3568 8.54799ZM33.5313 8.84336L34.2769 8.17691L34.2615 8.15973L34.2454 8.14328L33.5313 8.84336ZM33.7648 8.98434V9.98434L33.9683 8.00525L33.7648 8.98434ZM32.0147 8.98434L31.74 8.02282L32.0147 9.98434V8.98434ZM32.2618 8.82994L32.9643 9.54163L32.983 9.52314L33.0007 9.5037L32.2618 8.82994ZM32.4228 8.54127L31.4901 8.1805L31.4879 8.18613L32.4228 8.54127ZM32.3774 0.568373L33.2482 0.0766743L32.4919 -1.26259L31.5747 -0.0279907L32.3774 0.568373ZM32.2799 0.67802L32.9824 1.38971L32.9926 1.37967L33.0025 1.36935L32.2799 0.67802ZM31.9694 1.14346L32.8582 1.60161L32.8615 1.59533L32.8646 1.589L31.9694 1.14346ZM31.7563 1.64247L30.821 1.28845L30.8179 1.29678L31.7563 1.64247ZM31.7245 1.73197L32.6513 2.10754L32.6625 2.08004L32.672 2.05192L31.7245 1.73197ZM30.3122 5.38836L31.2463 5.74546L31.2466 5.74448L30.3122 5.38836ZM29.2943 8.01989L30.2212 8.3955L30.2262 8.38255L29.2943 8.01989ZM28.8001 8.95525L28.5522 7.98647L28.5357 7.99068L28.5194 7.99545L28.8001 8.95525ZM28.553 8.97986L27.6147 9.32555L27.8557 9.97986H28.553V8.97986ZM28.4873 8.82546L27.5499 9.17368L27.5634 9.21028L27.5799 9.24571L28.4873 8.82546ZM28.1744 8.01765L27.242 8.37894L27.2424 8.38008L28.1744 8.01765ZM25.6445 1.48807L24.7107 1.846L24.712 1.84935L25.6445 1.48807ZM25.1117 0.592988L25.8507 -0.0807734L24.8295 -1.20079L24.2016 0.178723L25.1117 0.592988ZM25.0777 8.54351L24.1389 8.88789L24.1408 8.89319L25.0777 8.54351ZM25.2523 8.83889L25.9978 8.17244L25.9825 8.15526L25.9663 8.13881L25.2523 8.83889ZM25.4858 8.97986V9.97986L25.6892 8.00078L25.4858 8.97986ZM24.1505 8.97986L23.8758 8.01834L24.1505 9.97986V8.97986ZM24.3976 8.82546L25.1001 9.53715L25.1188 9.51867L25.1366 9.49922L24.3976 8.82546ZM24.3976 0.170064L25.1597 -0.477448L25.1313 -0.510842L25.1001 -0.541627L24.3976 0.170064ZM24.1505 0.0156631V-0.984337L23.8529 0.970358L24.1505 0.0156631ZM26.3427 0.0156631L26.5689 0.989737L26.3427 -0.984337V0.0156631ZM26.1613 0.156638L27.0109 0.684147L27.0216 0.666934L27.0316 0.649303L26.1613 0.156638ZM26.2248 0.977871L25.2916 1.33714L25.2923 1.33898L26.2248 0.977871ZM28.9361 7.97961L28.0036 8.34072L28.9361 10.7489L29.8687 8.34072L28.9361 7.97961ZM31.6474 0.977871L30.7287 0.583001L30.7215 0.599757L30.7149 0.616765L31.6474 0.977871ZM31.7245 0.156638L32.6224 -0.283527L32.6094 -0.310188L32.5947 -0.336028L31.7245 0.156638ZM31.5296 0.0156631V-0.984337L31.3261 0.994747L31.5296 0.0156631ZM33.7603 0.0156631L34.2028 -0.881107L33.9936 -0.984337H33.7603V0.0156631ZM33.7648 0.0179008L33.5614 -0.961183C33.2418 -0.894773 32.9792 -0.723929 32.7858 -0.507575L33.5313 0.158875L34.2769 0.825326C34.2195 0.889517 34.1156 0.966378 33.9683 0.996984L33.7648 0.0179008ZM33.5313 0.158875L32.8288 -0.552815C32.6196 -0.346282 32.4967 -0.104891 32.4179 0.109878L33.3568 0.454251L34.2956 0.798624C34.312 0.753821 34.3025 0.80277 34.2338 0.870566L33.5313 0.158875ZM33.3568 0.454251L32.4199 0.10457C32.3113 0.395551 32.2865 0.708347 32.2865 0.980109H33.2865H34.2865C34.2865 0.900212 34.2906 0.846115 34.2951 0.812648C34.2997 0.777854 34.3028 0.779311 34.2936 0.803932L33.3568 0.454251ZM33.2865 0.980109H32.2865V8.02213H33.2865H34.2865V0.980109H33.2865ZM33.2865 8.02213H32.2865C32.2865 8.29446 32.3119 8.60341 32.4179 8.89236L33.3568 8.54799L34.2956 8.20361C34.3031 8.22417 34.2997 8.2228 34.2951 8.18791C34.2906 8.15407 34.2865 8.10042 34.2865 8.02213H33.2865ZM33.3568 8.54799L32.4199 8.89767C32.5005 9.11357 32.6237 9.34603 32.8173 9.54344L33.5313 8.84336L34.2454 8.14328C34.2755 8.17401 34.2911 8.19827 34.2966 8.2075C34.302 8.21674 34.2999 8.21517 34.2936 8.19831L33.3568 8.54799ZM33.5313 8.84336L32.7858 9.50981C32.9792 9.72616 33.2418 9.89701 33.5614 9.96342L33.7648 8.98434L33.9683 8.00525C34.1156 8.03586 34.2195 8.11272 34.2769 8.17691L33.5313 8.84336ZM33.7648 8.98434V7.98434H32.0147V8.98434V9.98434H33.7648V8.98434ZM32.0147 8.98434L32.2894 9.94586C32.5753 9.86418 32.7977 9.70608 32.9643 9.54163L32.2618 8.82994L31.5593 8.11824C31.5672 8.11043 31.6264 8.05527 31.74 8.02282L32.0147 8.98434ZM32.2618 8.82994L33.0007 9.5037C33.1833 9.30344 33.2898 9.07467 33.3576 8.89642L32.4228 8.54127L31.4879 8.18613C31.4764 8.21652 31.4706 8.22655 31.4725 8.22303C31.4744 8.21972 31.4894 8.19285 31.5229 8.15617L32.2618 8.82994ZM32.4228 8.54127L33.3554 8.90204C33.4692 8.6079 33.493 8.28784 33.493 8.02213H32.493H31.493C31.493 8.10076 31.4889 8.15382 31.4846 8.18582C31.48 8.22017 31.4775 8.21315 31.4901 8.18051L32.4228 8.54127ZM32.493 8.02213H33.493V1.19493H32.493H31.493V8.02213H32.493ZM32.493 1.19493H33.493C33.493 0.857646 33.4532 0.439789 33.2482 0.0766743L32.3774 0.568373L31.5067 1.06007C31.4754 1.0048 31.475 0.977743 31.4808 1.00872C31.4861 1.03738 31.493 1.09641 31.493 1.19493H32.493ZM32.3774 0.568373L31.5747 -0.0279907C31.5824 -0.0383222 31.5881 -0.0453054 31.5907 -0.0483631C31.5933 -0.0514552 31.594 -0.0522051 31.592 -0.0499293C31.5899 -0.0476548 31.5863 -0.0437429 31.5802 -0.037299C31.574 -0.0307334 31.567 -0.023327 31.5574 -0.013311L32.2799 0.67802L33.0025 1.36935C33.0299 1.34071 33.1108 1.25803 33.1801 1.16474L32.3774 0.568373ZM32.2799 0.67802L31.5774 -0.0336703C31.4804 0.0620958 31.3972 0.17021 31.3355 0.254969L32.1439 0.84361L32.9523 1.43225C32.9707 1.407 32.9833 1.39086 32.9908 1.38168C32.9944 1.37732 32.9957 1.3759 32.9949 1.37683C32.9941 1.37765 32.9899 1.38232 32.9824 1.38971L32.2799 0.67802ZM32.1439 0.84361L31.3355 0.254969C31.238 0.388961 31.1508 0.543882 31.0741 0.697924L31.9694 1.14346L32.8646 1.589C32.8884 1.54126 32.9086 1.504 32.9248 1.47619C32.9415 1.44757 32.9509 1.43423 32.9523 1.43225L32.1439 0.84361ZM31.9694 1.14346L31.0805 0.685306C30.9884 0.863878 30.9023 1.07374 30.821 1.28846L31.7563 1.64247L32.6915 1.99647C32.7644 1.80394 32.8188 1.67814 32.8582 1.60161L31.9694 1.14346ZM31.7563 1.64247L30.8179 1.29678C30.8073 1.32562 30.7925 1.36637 30.7771 1.41203L31.7245 1.73197L32.672 2.05192C32.6792 2.03044 32.6871 2.00854 32.6946 1.98815L31.7563 1.64247ZM31.7245 1.73197L30.7977 1.3564C30.7759 1.41028 30.7376 1.51533 30.695 1.63151L31.6338 1.97588L32.5727 2.32025C32.5968 2.25443 32.6154 2.20381 32.6297 2.1651C32.6368 2.14588 32.6423 2.13127 32.6464 2.12037C32.651 2.1084 32.6522 2.10538 32.6513 2.10754L31.7245 1.73197ZM31.6338 1.97588L30.695 1.63151C30.651 1.75158 30.5814 1.93425 30.4826 2.1868L31.4139 2.55097L32.3453 2.91514C32.446 2.65749 32.5215 2.45976 32.5727 2.32025L31.6338 1.97588ZM31.4139 2.55097L30.4826 2.1868C30.3826 2.44253 30.2426 2.80147 30.0617 3.26118L30.9923 3.6273L31.9229 3.99342C32.1047 3.5312 32.2458 3.1696 32.3453 2.91514L31.4139 2.55097ZM30.9923 3.6273L30.0617 3.26118C29.8787 3.72642 29.6506 4.31619 29.3777 5.03225L30.3122 5.38836L31.2466 5.74448C31.5178 5.03289 31.7432 4.45011 31.9229 3.99342L30.9923 3.6273ZM30.3122 5.38836L29.3781 5.03127C29.1072 5.73986 28.7681 6.61465 28.3624 7.65723L29.2943 8.01989L30.2262 8.38255C30.6321 7.3396 30.9731 6.46004 31.2463 5.74546L30.3122 5.38836ZM29.2943 8.01989L28.3675 7.64432C28.2803 7.85953 28.2082 8.04198 28.1557 8.18264L29.0925 8.53232L30.0294 8.882C30.0721 8.76757 30.136 8.60541 30.2211 8.39546L29.2943 8.01989ZM29.0925 8.53232L28.1557 8.18264C28.1385 8.22878 28.1246 8.26165 28.1145 8.28355C28.1039 8.30655 28.101 8.30989 28.107 8.30019L28.9565 8.8277L29.8061 9.35521C29.8995 9.2048 29.9718 9.03641 30.0294 8.882L29.0925 8.53232ZM28.9565 8.8277L28.107 8.30019C28.1587 8.21687 28.2967 8.05185 28.5522 7.98647L28.8001 8.95525L29.048 9.92403C29.426 9.82731 29.6682 9.57727 29.8061 9.35521L28.9565 8.8277ZM28.8001 8.95525L28.5194 7.99545C28.5449 7.98798 28.5649 7.98392 28.5771 7.98177C28.5894 7.9796 28.5968 7.97888 28.5978 7.97878C28.599 7.97867 28.596 7.97898 28.588 7.97929C28.58 7.97961 28.5686 7.97986 28.553 7.97986V8.97986V9.97986C28.6782 9.97986 28.8774 9.97452 29.0808 9.91504L28.8001 8.95525ZM28.553 8.97986L29.4914 8.63418C29.4717 8.58072 29.4405 8.50423 29.3947 8.40521L28.4873 8.82546L27.5799 9.24571C27.6065 9.30332 27.6162 9.32977 27.6147 9.32555L28.553 8.97986ZM28.4873 8.82546L29.4247 8.47724C29.4017 8.4155 29.3458 8.27319 29.311 8.18165L28.3762 8.5368L27.4414 8.89194C27.5018 9.05103 27.5229 9.10116 27.5499 9.17368L28.4873 8.82546ZM28.3762 8.5368L29.311 8.18165C29.2616 8.05168 29.1895 7.86892 29.1064 7.65523L28.1744 8.01765L27.2424 8.38008C27.3316 8.60944 27.3955 8.77129 27.4414 8.89194L28.3762 8.5368ZM28.1744 8.01765L29.1069 7.65636L26.5769 1.12678L25.6445 1.48807L24.712 1.84935L27.242 8.37894L28.1744 8.01765ZM25.6445 1.48807L26.5782 1.13013C26.466 0.837476 26.3333 0.561828 26.1683 0.32867L25.352 0.906265L24.5357 1.48386C24.5702 1.53265 24.6325 1.64189 24.7107 1.846L25.6445 1.48807ZM25.352 0.906265L26.1683 0.32867C26.0682 0.187167 25.9577 0.0365983 25.8507 -0.0807734L25.1117 0.592988L24.3728 1.26675C24.3882 1.28364 24.4363 1.34341 24.5357 1.48386L25.352 0.906265ZM25.1117 0.592988L24.2016 0.178723C24.0504 0.510924 24.0074 0.867481 24.0074 1.19493H25.0074H26.0074C26.0074 1.11493 26.013 1.06141 26.0186 1.02882C26.0242 0.996445 26.0285 0.992721 26.0219 1.00725L25.1117 0.592988ZM25.0074 1.19493H24.0074V8.01765H25.0074H26.0074V1.19493H25.0074ZM25.0074 8.01765H24.0074C24.0074 8.28998 24.0329 8.59894 24.1389 8.88788L25.0777 8.54351L26.0165 8.19914C26.0241 8.2197 26.0207 8.21832 26.016 8.18344C26.0115 8.14959 26.0074 8.09594 26.0074 8.01765H25.0074ZM25.0777 8.54351L24.1408 8.89319C24.2214 9.10909 24.3447 9.34155 24.5382 9.53896L25.2523 8.83889L25.9663 8.13881C25.9965 8.16953 26.012 8.1938 26.0175 8.20302C26.023 8.21226 26.0209 8.2107 26.0146 8.19383L25.0777 8.54351ZM25.2523 8.83889L24.5067 9.50534C24.7001 9.72169 24.9627 9.89253 25.2823 9.95894L25.4858 8.97986L25.6892 8.00078C25.8365 8.03138 25.9404 8.10824 25.9978 8.17244L25.2523 8.83889ZM25.4858 8.97986V7.97986H24.1505V8.97986V9.97986H25.4858V8.97986ZM24.1505 8.97986L24.4253 9.94138C24.7111 9.8597 24.9335 9.70161 25.1001 9.53715L24.3976 8.82546L23.6951 8.11377C23.703 8.10595 23.7622 8.05079 23.8758 8.01834L24.1505 8.97986ZM24.3976 8.82546L25.1366 9.49922C25.3192 9.29896 25.4257 9.07019 25.4934 8.89194L24.5586 8.5368L23.6238 8.18165C23.6122 8.21204 23.6064 8.22208 23.6083 8.21857C23.6102 8.21525 23.6252 8.18838 23.6587 8.1517L24.3976 8.82546ZM24.5586 8.5368L25.4934 8.89194C25.6018 8.60658 25.6311 8.29798 25.6311 8.01765H24.6311H23.6311C23.6311 8.09236 23.6268 8.14299 23.6225 8.17371C23.618 8.2056 23.6151 8.20457 23.6238 8.18165L24.5586 8.5368ZM24.6311 8.01765H25.6311V0.977871H24.6311H23.6311V8.01765H24.6311ZM24.6311 0.977871H25.6311C25.6311 0.697545 25.6018 0.388947 25.4934 0.103582L24.5586 0.458726L23.6238 0.81387C23.6151 0.790955 23.618 0.789924 23.6225 0.821816C23.6268 0.852537 23.6311 0.903167 23.6311 0.977871H24.6311ZM24.5586 0.458726L25.4934 0.103582C25.416 -0.100069 25.3098 -0.300807 25.1597 -0.477448L24.3976 0.170064L23.6356 0.817575C23.6191 0.798152 23.6117 0.785275 23.6109 0.783895C23.6102 0.782676 23.6152 0.791446 23.6238 0.81387L24.5586 0.458726ZM24.3976 0.170064L25.1001 -0.541627C24.9254 -0.714038 24.7068 -0.858382 24.4481 -0.939032L24.1505 0.0156631L23.8529 0.970358C23.7665 0.943413 23.7156 0.902003 23.6951 0.881754L24.3976 0.170064ZM24.1505 0.0156631V1.01566H26.3427V0.0156631V-0.984337H24.1505V0.0156631ZM26.3427 0.0156631L26.1165 -0.95841C25.7427 -0.871613 25.4594 -0.633232 25.2911 -0.336028L26.1613 0.156638L27.0316 0.649303C26.9959 0.712304 26.9385 0.787576 26.8518 0.854787C26.7636 0.923101 26.6653 0.967359 26.5689 0.989737L26.3427 0.0156631ZM26.1613 0.156638L25.3118 -0.370871C25.1336 -0.0838814 25.0956 0.220664 25.0956 0.452013H26.0956H27.0956C27.0956 0.443268 27.0965 0.462952 27.0878 0.501901C27.0786 0.542267 27.0578 0.608593 27.0109 0.684147L26.1613 0.156638ZM26.0956 0.452013H25.0956C25.0956 0.771175 25.1941 1.08389 25.2916 1.33714L26.2248 0.977871L27.158 0.618599C27.1249 0.532586 27.1074 0.474995 27.0988 0.440103C27.0896 0.402789 27.0956 0.411347 27.0956 0.452013H26.0956ZM26.2248 0.977871L25.2923 1.33898L28.0036 8.34072L28.9361 7.97961L29.8687 7.61851L27.1573 0.616765L26.2248 0.977871ZM28.9361 7.97961L29.8687 8.34072L32.58 1.33898L31.6474 0.977871L30.7149 0.616765L28.0036 7.61851L28.9361 7.97961ZM31.6474 0.977871L32.5662 1.37274C32.6775 1.11368 32.7953 0.772915 32.7829 0.4171L31.7835 0.452013L30.7841 0.486926C30.7829 0.454271 30.7853 0.432707 30.7864 0.425008C30.7874 0.417093 30.7878 0.418254 30.7848 0.429873C30.7783 0.454807 30.7625 0.504305 30.7287 0.583001L31.6474 0.977871ZM31.7835 0.452013L32.7829 0.4171C32.7758 0.21508 32.7428 -0.0380266 32.6224 -0.283527L31.7245 0.156638L30.8266 0.596802C30.7985 0.539437 30.7882 0.496392 30.785 0.480246C30.7817 0.463917 30.7833 0.464097 30.7841 0.486926L31.7835 0.452013ZM31.7245 0.156638L32.5947 -0.336028C32.4058 -0.669757 32.093 -0.88861 31.733 -0.96342L31.5296 0.0156631L31.3261 0.994747C31.2458 0.97806 31.1509 0.94217 31.0584 0.875485C30.9653 0.808418 30.8984 0.727163 30.8543 0.649303L31.7245 0.156638ZM31.5296 0.0156631V1.01566H33.7603V0.0156631V-0.984337H31.5296V0.0156631ZM33.7603 0.0156631L33.3178 0.912434L33.3223 0.914671L33.7648 0.0179008L34.2073 -0.87887L34.2028 -0.881107L33.7603 0.0156631Z" fill="black" mask="url(#path-6-inside-3_10_113)"/>
<mask id="path-8-inside-4_10_113" fill="white">
<path d="M43.9073 8.97986C43.9844 8.95525 44.0456 8.90378 44.0887 8.82546C44.1318 8.75833 44.1544 8.66211 44.1544 8.5368C44.1544 8.41149 44.1068 8.23919 44.0116 8.01766L43.0119 5.57186H39.1081L38.122 8.01766C38.0268 8.23919 37.9792 8.41149 37.9792 8.5368C37.9792 8.66211 37.9973 8.7561 38.0313 8.82546C38.0744 8.90155 38.1356 8.95301 38.2127 8.97986H36.8774C36.9976 8.9463 37.0996 8.89707 37.1812 8.83218C37.2628 8.76728 37.3557 8.6733 37.46 8.54351C37.5643 8.41597 37.6595 8.24143 37.7457 8.01766L40.9761 0.0179062H41.5723L44.7892 8.01989C44.8844 8.24143 44.9819 8.41597 45.0816 8.54575C45.1814 8.6733 45.2721 8.76952 45.3537 8.83441C45.4353 8.89931 45.5373 8.94854 45.6597 8.9821H43.9096L43.9073 8.97986ZM42.9212 5.35704L41.0532 0.747394C41.0532 0.747394 41.026 0.825713 40.9693 0.957737C40.9127 1.08976 40.8424 1.2643 40.7562 1.48359C40.6701 1.70289 40.5703 1.94903 40.457 2.22651C40.3436 2.50398 40.2326 2.78817 40.1192 3.07683C39.8517 3.75038 39.5434 4.51119 39.1988 5.3548H42.9212V5.35704Z"/>
</mask>
<path d="M43.9073 8.97986C43.9844 8.95525 44.0456 8.90378 44.0887 8.82546C44.1318 8.75833 44.1544 8.66211 44.1544 8.5368C44.1544 8.41149 44.1068 8.23919 44.0116 8.01766L43.0119 5.57186H39.1081L38.122 8.01766C38.0268 8.23919 37.9792 8.41149 37.9792 8.5368C37.9792 8.66211 37.9973 8.7561 38.0313 8.82546C38.0744 8.90155 38.1356 8.95301 38.2127 8.97986H36.8774C36.9976 8.9463 37.0996 8.89707 37.1812 8.83218C37.2628 8.76728 37.3557 8.6733 37.46 8.54351C37.5643 8.41597 37.6595 8.24143 37.7457 8.01766L40.9761 0.0179062H41.5723L44.7892 8.01989C44.8844 8.24143 44.9819 8.41597 45.0816 8.54575C45.1814 8.6733 45.2721 8.76952 45.3537 8.83441C45.4353 8.89931 45.5373 8.94854 45.6597 8.9821H43.9096L43.9073 8.97986ZM42.9212 5.35704L41.0532 0.747394C41.0532 0.747394 41.026 0.825713 40.9693 0.957737C40.9127 1.08976 40.8424 1.2643 40.7562 1.48359C40.6701 1.70289 40.5703 1.94903 40.457 2.22651C40.3436 2.50398 40.2326 2.78817 40.1192 3.07683C39.8517 3.75038 39.5434 4.51119 39.1988 5.3548H42.9212V5.35704Z" fill="black"/>
<path d="M43.9073 8.97987L43.6031 8.02726L42.0286 8.53008L43.2047 9.69142L43.9073 8.97987ZM44.0887 8.82546L43.2471 8.28544L43.2288 8.31392L43.2125 8.34357L44.0887 8.82546ZM44.0116 8.01766L43.086 8.39603L43.0894 8.40431L43.0929 8.41253L44.0116 8.01766ZM43.0119 5.57186L43.9375 5.19349L43.6834 4.57186H43.0119V5.57186ZM39.1081 5.57186V4.57186H38.4331L38.1807 5.19791L39.1081 5.57186ZM38.122 8.01766L39.0407 8.41253L39.0452 8.40211L39.0494 8.3916L38.122 8.01766ZM38.0313 8.82546L37.1334 9.26563L37.1465 9.29229L37.1611 9.31813L38.0313 8.82546ZM38.2127 8.97987V9.97987L38.5417 8.03553L38.2127 8.97987ZM36.8774 8.97987L36.6084 8.01674L36.8774 9.97987V8.97987ZM37.46 8.54352L36.6858 7.91053L36.6805 7.91716L37.46 8.54352ZM37.7457 8.01766L36.8184 7.64322L36.8154 7.65078L36.8124 7.65839L37.7457 8.01766ZM40.9761 0.0179062V-0.982094H40.3015L40.0489 -0.356536L40.9761 0.0179062ZM41.5723 0.0179062L42.5002 -0.35509L42.2481 -0.982094H41.5723V0.0179062ZM44.7892 8.01989L43.8614 8.39289L43.8658 8.40388L43.8705 8.41476L44.7892 8.01989ZM45.0816 8.54575L44.2887 9.15515L44.2939 9.16178L45.0816 8.54575ZM45.6597 8.9821V9.9821L45.9242 8.0177L45.6597 8.9821ZM43.9096 8.9821L43.207 9.69366L43.4991 9.9821H43.9096V8.9821ZM42.9212 5.35704L41.9944 5.73261L43.9212 5.35704H42.9212ZM41.0532 0.747394L41.98 0.371823L40.9812 -2.09285L40.1086 0.419253L41.0532 0.747394ZM40.1192 3.07683L41.0486 3.44595L41.05 3.44233L40.1192 3.07683ZM39.1988 5.3548L38.2731 4.97667L37.7101 6.3548H39.1988V5.3548ZM42.9212 5.3548H43.9212V4.3548H42.9212V5.3548ZM43.9073 8.97987L44.2116 9.93247C44.5529 9.82346 44.8092 9.59055 44.9649 9.30736L44.0887 8.82546L43.2125 8.34357C43.2433 8.2875 43.2917 8.22146 43.3637 8.16038C43.4367 8.09846 43.5193 8.05403 43.6031 8.02726L43.9073 8.97987ZM44.0887 8.82546L44.9304 9.36549C45.1169 9.07479 45.1544 8.76265 45.1544 8.5368H44.1544H43.1544C43.1544 8.54135 43.1538 8.51948 43.1631 8.47908C43.1724 8.43845 43.1946 8.36723 43.2471 8.28544L44.0887 8.82546ZM44.1544 8.5368H45.1544C45.1544 8.20054 45.0382 7.87371 44.9304 7.62279L44.0116 8.01766L43.0929 8.41253C43.1283 8.4949 43.1464 8.54882 43.1546 8.57883C43.1586 8.59306 43.1589 8.59691 43.1581 8.59179C43.1573 8.58701 43.1544 8.56772 43.1544 8.5368H44.1544ZM44.0116 8.01766L44.9373 7.63929L43.9375 5.19349L43.0119 5.57186L42.0862 5.95023L43.086 8.39603L44.0116 8.01766ZM43.0119 5.57186V4.57186H39.1081V5.57186V6.57186H43.0119V5.57186ZM39.1081 5.57186L38.1807 5.19791L37.1945 7.64371L38.122 8.01766L39.0494 8.3916L40.0356 5.94581L39.1081 5.57186ZM38.122 8.01766L37.2033 7.62279C37.0954 7.87371 36.9792 8.20054 36.9792 8.5368H37.9792H38.9792C38.9792 8.56772 38.9763 8.58701 38.9756 8.59179C38.9747 8.59691 38.9751 8.59306 38.979 8.57883C38.9872 8.54882 39.0053 8.4949 39.0407 8.41253L38.122 8.01766ZM37.9792 8.5368H36.9792C36.9792 8.74512 37.0072 9.0081 37.1334 9.26563L38.0313 8.82546L38.9292 8.3853C38.9597 8.44753 38.9715 8.49698 38.976 8.52146C38.9805 8.54554 38.9792 8.55283 38.9792 8.5368H37.9792ZM38.0313 8.82546L37.1611 9.31813C37.3179 9.59505 37.5663 9.81362 37.8837 9.9242L38.2127 8.97987L38.5417 8.03553C38.6152 8.06115 38.6893 8.10186 38.7563 8.15871C38.8228 8.21514 38.8699 8.277 38.9015 8.3328L38.0313 8.82546ZM38.2127 8.97987V7.97987H36.8774V8.97987V9.97987H38.2127V8.97987ZM36.8774 8.97987L37.1465 9.94299C37.3673 9.88129 37.5969 9.77925 37.8036 9.6149L37.1812 8.83218L36.5588 8.04946C36.6023 8.01489 36.6278 8.01131 36.6084 8.01674L36.8774 8.97987ZM37.1812 8.83218L37.8036 9.6149C37.9596 9.4908 38.1042 9.33838 38.2396 9.16987L37.46 8.54352L36.6805 7.91716C36.6073 8.00822 36.566 8.04377 36.5588 8.04946L37.1812 8.83218ZM37.46 8.54352L38.2342 9.17647C38.4278 8.93968 38.5696 8.66086 38.6789 8.37693L37.7457 8.01766L36.8124 7.65839C36.7495 7.82199 36.7008 7.89226 36.6858 7.91055L37.46 8.54352ZM37.7457 8.01766L38.6729 8.3921L41.9034 0.392348L40.9761 0.0179062L40.0489 -0.356536L36.8184 7.64322L37.7457 8.01766ZM40.9761 0.0179062V1.01791H41.5723V0.0179062V-0.982094H40.9761V0.0179062ZM41.5723 0.0179062L40.6445 0.390902L43.8614 8.39289L44.7892 8.01989L45.717 7.6469L42.5002 -0.35509L41.5723 0.0179062ZM44.7892 8.01989L43.8705 8.41476C43.9855 8.68232 44.1215 8.93743 44.2888 9.15512L45.0816 8.54575L45.8745 7.93638C45.8423 7.8945 45.7834 7.80054 45.7079 7.62502L44.7892 8.01989ZM45.0816 8.54575L44.2939 9.16178C44.4186 9.32119 44.5642 9.48429 44.7313 9.61713L45.3537 8.83441L45.9761 8.0517C45.981 8.05562 45.973 8.04982 45.9522 8.02774C45.932 8.00626 45.9044 7.97446 45.8694 7.92972L45.0816 8.54575ZM45.3537 8.83441L44.7313 9.61713C44.9391 9.78234 45.1702 9.88478 45.3953 9.94651L45.6597 8.9821L45.9242 8.0177C45.9045 8.01229 45.9315 8.01627 45.9761 8.0517L45.3537 8.83441ZM45.6597 8.9821V7.9821H43.9096V8.9821V9.9821H45.6597V8.9821ZM43.9096 8.9821L44.6122 8.27055L44.61 8.26831L43.9073 8.97987L43.2047 9.69142L43.207 9.69366L43.9096 8.9821ZM42.9212 5.35704L43.848 4.98147L41.98 0.371823L41.0532 0.747394L40.1264 1.12296L41.9944 5.73261L42.9212 5.35704ZM41.0532 0.747394C40.1086 0.419253 40.1086 0.419196 40.1086 0.41914C40.1086 0.419122 40.1086 0.419066 40.1087 0.419029C40.1087 0.418956 40.1087 0.418883 40.1087 0.418812C40.1088 0.41867 40.1088 0.418532 40.1089 0.418399C40.109 0.418133 40.1091 0.417885 40.1091 0.417656C40.1093 0.417197 40.1094 0.416812 40.1095 0.416499C40.1098 0.415874 40.1099 0.415539 40.1099 0.415487C40.1099 0.415386 40.1096 0.416418 40.1088 0.418539C40.1072 0.422784 40.1041 0.431361 40.0992 0.4439C40.0896 0.469011 40.0734 0.50978 40.0504 0.563271L40.9693 0.957737L41.8882 1.3522C41.922 1.27367 41.9477 1.20927 41.9658 1.16221C41.9749 1.13867 41.982 1.11941 41.9874 1.10485C41.99 1.09756 41.9922 1.09145 41.994 1.08655C41.9948 1.0841 41.9956 1.08195 41.9962 1.08011C41.9966 1.07919 41.9969 1.07835 41.9971 1.07759C41.9973 1.07721 41.9974 1.07685 41.9975 1.0765C41.9976 1.07633 41.9976 1.07617 41.9977 1.076C41.9977 1.07592 41.9977 1.07584 41.9978 1.07577C41.9978 1.07573 41.9978 1.07567 41.9978 1.07565C41.9978 1.07559 41.9978 1.07554 41.0532 0.747394ZM40.9693 0.957737L40.0504 0.563271C39.9873 0.710348 39.9123 0.896929 39.8255 1.11796L40.7562 1.48359L41.687 1.84923C41.7725 1.63167 41.838 1.46917 41.8882 1.3522L40.9693 0.957737ZM40.7562 1.48359L39.8255 1.11796C39.7419 1.33064 39.6443 1.5716 39.5313 1.84834L40.457 2.22651L41.3827 2.60468C41.4964 2.32647 41.5982 2.07514 41.687 1.84923L40.7562 1.48359ZM40.457 2.22651L39.5313 1.84834C39.4147 2.13363 39.3007 2.42534 39.1884 2.71133L40.1192 3.07683L41.05 3.44233C41.1644 3.151 41.2726 2.87433 41.3827 2.60468L40.457 2.22651ZM40.1192 3.07683L39.1898 2.70772C38.9241 3.37683 38.6172 4.1342 38.2731 4.97667L39.1988 5.3548L40.1246 5.73294C40.4696 4.88819 40.7793 4.12392 41.0486 3.44595L40.1192 3.07683ZM39.1988 5.3548V6.3548H42.9212V5.3548V4.3548H39.1988V5.3548ZM42.9212 5.3548H41.9212V5.35704H42.9212H43.9212V5.3548H42.9212Z" fill="black" mask="url(#path-8-inside-4_10_113)"/>
<mask id="path-10-inside-5_10_113" fill="white">
<path d="M46.6187 0.977871C46.4713 0.756339 46.333 0.581799 46.2038 0.452013C46.0746 0.322227 45.9612 0.226006 45.866 0.156638C45.7459 0.0805562 45.6325 0.0335647 45.5282 0.0156631H47.2783C47.2013 0.0425155 47.1537 0.0917447 47.1355 0.170064C47.1174 0.239432 47.1219 0.335653 47.1491 0.458726C47.1763 0.581799 47.2579 0.756339 47.3962 0.977871L49.5748 4.43511L52.0005 0.977871C52.1569 0.756339 52.2544 0.584037 52.2929 0.458726C52.3315 0.333415 52.3428 0.239432 52.3247 0.170064C52.3065 0.0939824 52.2589 0.0425155 52.1818 0.0156631H53.5171C53.4128 0.0335647 53.3017 0.0805562 53.1793 0.156638C53.066 0.226006 52.9413 0.322227 52.803 0.452013C52.6647 0.579562 52.5174 0.754102 52.3609 0.977871L49.831 4.58727V8.01765C49.84 8.23918 49.8672 8.41372 49.9149 8.54351C49.9625 8.67106 50.0169 8.76952 50.0758 8.83888C50.1529 8.91497 50.2368 8.96196 50.3229 8.97986H48.5728C48.6589 8.95524 48.7406 8.90378 48.8199 8.82546C48.8811 8.75833 48.9355 8.66211 48.9831 8.5368C49.0307 8.41372 49.0534 8.23918 49.0534 8.01765V4.84237L46.6141 0.975633L46.6187 0.977871Z"/>
</mask>
<path d="M46.6187 0.977871C46.4713 0.756339 46.333 0.581799 46.2038 0.452013C46.0746 0.322227 45.9612 0.226006 45.866 0.156638C45.7459 0.0805562 45.6325 0.0335647 45.5282 0.0156631H47.2783C47.2013 0.0425155 47.1537 0.0917447 47.1355 0.170064C47.1174 0.239432 47.1219 0.335653 47.1491 0.458726C47.1763 0.581799 47.2579 0.756339 47.3962 0.977871L49.5748 4.43511L52.0005 0.977871C52.1569 0.756339 52.2544 0.584037 52.2929 0.458726C52.3315 0.333415 52.3428 0.239432 52.3247 0.170064C52.3065 0.0939824 52.2589 0.0425155 52.1818 0.0156631H53.5171C53.4128 0.0335647 53.3017 0.0805562 53.1793 0.156638C53.066 0.226006 52.9413 0.322227 52.803 0.452013C52.6647 0.579562 52.5174 0.754102 52.3609 0.977871L49.831 4.58727V8.01765C49.84 8.23918 49.8672 8.41372 49.9149 8.54351C49.9625 8.67106 50.0169 8.76952 50.0758 8.83888C50.1529 8.91497 50.2368 8.96196 50.3229 8.97986H48.5728C48.6589 8.95524 48.7406 8.90378 48.8199 8.82546C48.8811 8.75833 48.9355 8.66211 48.9831 8.5368C49.0307 8.41372 49.0534 8.23918 49.0534 8.01765V4.84237L46.6141 0.975633L46.6187 0.977871Z" fill="black"/>
<path d="M46.6187 0.977871L46.1759 1.87451L49.5118 3.52176L47.4513 0.424038L46.6187 0.977871ZM45.866 0.156638L46.4549 -0.651604L46.4285 -0.670792L46.401 -0.688225L45.866 0.156638ZM45.5282 0.0156631V-0.984337L45.359 1.00125L45.5282 0.0156631ZM47.2783 0.0156631L47.6073 0.959998L47.2783 -0.984337V0.0156631ZM47.1355 0.170064L48.103 0.423005L48.1066 0.409379L48.1097 0.395659L47.1355 0.170064ZM47.3962 0.977871L46.5479 1.5074L46.5502 1.511L47.3962 0.977871ZM49.5748 4.43511L48.7288 4.96823L49.5301 6.2399L50.3934 5.00946L49.5748 4.43511ZM52.0005 0.977871L51.1836 0.401069L51.1819 0.403517L52.0005 0.977871ZM52.3247 0.170064L51.3519 0.401942L51.3544 0.412502L51.3572 0.423005L52.3247 0.170064ZM52.1818 0.0156631V-0.984337L51.8529 0.959998L52.1818 0.0156631ZM53.5171 0.0156631L53.6863 1.00125L53.5171 -0.984337V0.0156631ZM53.1793 0.156638L53.7013 1.00961L53.7072 1.00597L53.1793 0.156638ZM52.803 0.452013L53.481 1.18711L53.4873 1.18117L52.803 0.452013ZM52.3609 0.977871L53.1798 1.55185L53.1805 1.5508L52.3609 0.977871ZM49.831 4.58727L49.0121 4.01329L48.831 4.2717V4.58727H49.831ZM49.831 8.01765H48.831V8.03811L48.8318 8.05855L49.831 8.01765ZM49.9149 8.54351L48.976 8.88789L48.978 8.89319L49.9149 8.54351ZM50.0758 8.83888L49.3138 9.4864L49.3421 9.51979L49.3733 9.55058L50.0758 8.83888ZM50.3229 8.97986V9.97986L50.5264 8.00078L50.3229 8.97986ZM48.5728 8.97986L48.2981 8.01834L48.5728 9.97986V8.97986ZM48.8199 8.82546L49.5224 9.53715L49.5411 9.51866L49.5588 9.49922L48.8199 8.82546ZM48.9831 8.5368L48.0504 8.17602L48.0483 8.18165L48.9831 8.5368ZM49.0534 4.84237H50.0534V4.5533L49.8992 4.30882L49.0534 4.84237ZM46.6141 0.975633L47.0569 0.0789925L43.8749 -1.49224L45.7683 1.50918L46.6141 0.975633ZM46.6187 0.977871L47.4513 0.424038C47.281 0.168097 47.1022 -0.062917 46.9124 -0.253542L46.2038 0.452013L45.4951 1.15757C45.5638 1.22652 45.6616 1.34458 45.786 1.5317L46.6187 0.977871ZM46.2038 0.452013L46.9124 -0.253542C46.7522 -0.414489 46.5992 -0.546479 46.4549 -0.651604L45.866 0.156638L45.2772 0.96488C45.3233 0.998492 45.3969 1.05894 45.4951 1.15757L46.2038 0.452013ZM45.866 0.156638L46.401 -0.688225C46.2032 -0.813478 45.9661 -0.923802 45.6974 -0.96992L45.5282 0.0156631L45.359 1.00125C45.3274 0.995809 45.3095 0.98863 45.3066 0.987414C45.3036 0.986189 45.3118 0.989339 45.331 1.0015L45.866 0.156638ZM45.5282 0.0156631V1.01566H47.2783V0.0156631V-0.984337H45.5282V0.0156631ZM47.2783 0.0156631L46.9494 -0.928671C46.7909 -0.87346 46.6106 -0.776417 46.4544 -0.609473C46.2955 -0.439521 46.2047 -0.243116 46.1613 -0.0555307L47.1355 0.170064L48.1097 0.395659C48.0844 0.504925 48.0265 0.637555 47.9152 0.7566C47.8067 0.872637 47.6887 0.931639 47.6073 0.959998L47.2783 0.0156631ZM47.1355 0.170064L46.168 -0.0828776C46.09 0.215548 46.1336 0.497464 46.1727 0.674555L47.1491 0.458726L48.1256 0.242897C48.1207 0.220952 48.1231 0.224255 48.1242 0.247172C48.1252 0.267748 48.1266 0.332803 48.103 0.423005L47.1355 0.170064ZM47.1491 0.458726L46.1727 0.674555C46.2379 0.969478 46.3948 1.26212 46.5479 1.5074L47.3962 0.977871L48.2445 0.448342C48.19 0.360962 48.1552 0.296398 48.1347 0.253158C48.1119 0.205098 48.1172 0.205175 48.1256 0.242897L47.1491 0.458726ZM47.3962 0.977871L46.5502 1.511L48.7288 4.96823L49.5748 4.43511L50.4208 3.90198L48.2423 0.444742L47.3962 0.977871ZM49.5748 4.43511L50.3934 5.00946L52.8191 1.55222L52.0005 0.977871L51.1819 0.403517L48.7562 3.86075L49.5748 4.43511ZM52.0005 0.977871L52.8174 1.55467C52.9826 1.32068 53.1606 1.03931 53.2487 0.752684L52.2929 0.458726L51.3371 0.164768C51.3469 0.133078 51.3496 0.138201 51.3199 0.191017C51.2926 0.239276 51.2491 0.30827 51.1836 0.401072L52.0005 0.977871ZM52.2929 0.458726L53.2487 0.752684C53.2991 0.588984 53.384 0.268482 53.2921 -0.0828776L52.3247 0.170064L51.3572 0.423005C51.3261 0.303998 51.3326 0.214262 51.3363 0.181558C51.3401 0.147795 51.3451 0.138751 51.3371 0.164768L52.2929 0.458726ZM52.3247 0.170064L53.2974 -0.0618139C53.1961 -0.486661 52.893 -0.795522 52.5108 -0.928671L52.1818 0.0156631L51.8529 0.959998C51.7622 0.9284 51.6457 0.866364 51.5412 0.753435C51.4354 0.638991 51.378 0.51125 51.3519 0.401942L52.3247 0.170064ZM52.1818 0.0156631V1.01566H53.5171V0.0156631V-0.984337H52.1818V0.0156631ZM53.5171 0.0156631L53.3479 -0.96992C53.0754 -0.923133 52.8415 -0.810815 52.6515 -0.692697L53.1793 0.156638L53.7072 1.00597C53.7195 0.998317 53.7285 0.993257 53.7345 0.990137C53.7404 0.987019 53.7426 0.986166 53.7413 0.986724C53.7388 0.987776 53.7197 0.995517 53.6863 1.00125L53.5171 0.0156631ZM53.1793 0.156638L52.6573 -0.696311C52.4729 -0.583429 52.2943 -0.441989 52.1187 -0.277149L52.803 0.452013L53.4873 1.18117C53.5883 1.08644 53.6591 1.03544 53.7013 1.00959L53.1793 0.156638ZM52.803 0.452013L52.125 -0.283056C51.9173 -0.0914382 51.7237 0.144075 51.5413 0.40494L52.3609 0.977871L53.1805 1.5508C53.311 1.36413 53.4122 1.25056 53.481 1.18708L52.803 0.452013ZM52.3609 0.977871L51.5421 0.403894L49.0121 4.01329L49.831 4.58727L50.6498 5.16125L53.1798 1.55185L52.3609 0.977871ZM49.831 4.58727H48.831V8.01765H49.831H50.831V4.58727H49.831ZM49.831 8.01765L48.8318 8.05855C48.8427 8.32473 48.8768 8.61748 48.976 8.88788L49.9149 8.54351L50.8537 8.19914C50.8577 8.21004 50.8527 8.1998 50.8461 8.15834C50.8397 8.11794 50.8335 8.05884 50.8301 7.97675L49.831 8.01765ZM49.9149 8.54351L48.978 8.89319C49.0505 9.08756 49.1554 9.30003 49.3138 9.4864L50.0758 8.83888L50.8379 8.19137C50.8494 8.20499 50.8572 8.21584 50.8618 8.22267C50.8642 8.22616 50.8659 8.22883 50.8669 8.23056C50.868 8.2323 50.8685 8.23322 50.8685 8.23323C50.8685 8.23324 50.868 8.23244 50.8672 8.23076C50.8664 8.22907 50.8652 8.22659 50.8637 8.22326C50.8607 8.21653 50.8566 8.20684 50.8517 8.19383L49.9149 8.54351ZM50.0758 8.83888L49.3733 9.55058C49.5622 9.73699 49.8126 9.89518 50.1195 9.95894L50.3229 8.97986L50.5264 8.00078C50.6609 8.02874 50.7436 8.09295 50.7783 8.12719L50.0758 8.83888ZM50.3229 8.97986V7.97986H48.5728V8.97986V9.97986H50.3229V8.97986ZM48.5728 8.97986L48.8475 9.94138C49.1334 9.8597 49.3558 9.7016 49.5224 9.53715L48.8199 8.82546L48.1174 8.11377C48.1253 8.10595 48.1845 8.05079 48.2981 8.01834L48.5728 8.97986ZM48.8199 8.82546L49.5588 9.49922C49.735 9.30602 49.845 9.08401 49.9179 8.89194L48.9831 8.5368L48.0483 8.18165C48.0388 8.20662 48.0339 8.21471 48.0361 8.21073C48.0382 8.2071 48.0516 8.18393 48.0809 8.1517L48.8199 8.82546ZM48.9831 8.5368L49.9158 8.89756C50.0296 8.60342 50.0534 8.28337 50.0534 8.01765H49.0534H48.0534C48.0534 8.09628 48.0493 8.14935 48.045 8.18134C48.0404 8.2157 48.0378 8.20867 48.0505 8.17603L48.9831 8.5368ZM49.0534 8.01765H50.0534V4.84237H49.0534H48.0534V8.01765H49.0534ZM49.0534 4.84237L49.8992 4.30882L47.4599 0.442089L46.6141 0.975633L45.7683 1.50918L48.2076 5.37591L49.0534 4.84237ZM46.6141 0.975633L46.1714 1.87227L46.1759 1.87451L46.6187 0.977871L47.0614 0.0812301L47.0569 0.0789925L46.6141 0.975633Z" fill="black" mask="url(#path-10-inside-5_10_113)"/>
<mask id="path-12-inside-6_10_113" fill="white">
<path d="M59.6788 0.0179062C60.3022 0.0179062 60.8848 0.136504 61.4289 0.369224C61.973 0.604182 62.4491 0.921934 62.8548 1.32248C63.2606 1.72303 63.5803 2.19742 63.8138 2.74342C64.0473 3.28941 64.1629 3.87121 64.1629 4.48434C64.1629 5.09747 64.0473 5.67927 63.8138 6.22527C63.5803 6.77126 63.2606 7.24565 62.8548 7.6462C62.4491 8.04675 61.973 8.3645 61.4289 8.59946C60.8848 8.83441 60.3 8.95077 59.6788 8.95077C59.0576 8.95077 58.4864 8.83441 57.94 8.59946C57.3959 8.3645 56.9199 8.04675 56.5141 7.6462C56.1083 7.24565 55.7886 6.77126 55.5551 6.22527C55.3216 5.67927 55.206 5.09971 55.206 4.48434C55.206 3.86898 55.3216 3.28941 55.5551 2.74342C55.7886 2.19742 56.1083 1.72303 56.5141 1.32248C56.9199 0.921934 57.3959 0.604182 57.94 0.369224C58.4841 0.134266 59.0644 0.0179062 59.6788 0.0179062ZM59.6788 8.58379C60.1889 8.58379 60.6672 8.47638 61.1115 8.2638C61.5559 8.05122 61.9458 7.75808 62.279 7.38663C62.6123 7.01517 62.8753 6.5833 63.0702 6.08653C63.2652 5.592 63.3627 5.06167 63.3627 4.5C63.3627 3.93834 63.2652 3.40577 63.0702 2.90677C62.8753 2.40776 62.6123 1.97141 62.279 1.60219C61.9458 1.23074 61.5559 0.937598 61.1115 0.725017C60.6672 0.512436 60.1889 0.405027 59.6788 0.405027C59.1687 0.405027 58.7017 0.512436 58.2529 0.725017C57.804 0.937598 57.4141 1.23074 57.0854 1.60219C56.7566 1.97365 56.4959 2.40776 56.301 2.90677C56.106 3.40577 56.0085 3.93834 56.0085 4.5C56.0085 5.06167 56.106 5.592 56.301 6.08653C56.4959 6.58106 56.7566 7.01517 57.0854 7.38663C57.4141 7.75808 57.804 8.05122 58.2529 8.2638C58.7017 8.47638 59.1778 8.58379 59.6788 8.58379Z"/>
</mask>
<path d="M59.6788 0.0179062C60.3022 0.0179062 60.8848 0.136504 61.4289 0.369224C61.973 0.604182 62.4491 0.921934 62.8548 1.32248C63.2606 1.72303 63.5803 2.19742 63.8138 2.74342C64.0473 3.28941 64.1629 3.87121 64.1629 4.48434C64.1629 5.09747 64.0473 5.67927 63.8138 6.22527C63.5803 6.77126 63.2606 7.24565 62.8548 7.6462C62.4491 8.04675 61.973 8.3645 61.4289 8.59946C60.8848 8.83441 60.3 8.95077 59.6788 8.95077C59.0576 8.95077 58.4864 8.83441 57.94 8.59946C57.3959 8.3645 56.9199 8.04675 56.5141 7.6462C56.1083 7.24565 55.7886 6.77126 55.5551 6.22527C55.3216 5.67927 55.206 5.09971 55.206 4.48434C55.206 3.86898 55.3216 3.28941 55.5551 2.74342C55.7886 2.19742 56.1083 1.72303 56.5141 1.32248C56.9199 0.921934 57.3959 0.604182 57.94 0.369224C58.4841 0.134266 59.0644 0.0179062 59.6788 0.0179062ZM59.6788 8.58379C60.1889 8.58379 60.6672 8.47638 61.1115 8.2638C61.5559 8.05122 61.9458 7.75808 62.279 7.38663C62.6123 7.01517 62.8753 6.5833 63.0702 6.08653C63.2652 5.592 63.3627 5.06167 63.3627 4.5C63.3627 3.93834 63.2652 3.40577 63.0702 2.90677C62.8753 2.40776 62.6123 1.97141 62.279 1.60219C61.9458 1.23074 61.5559 0.937598 61.1115 0.725017C60.6672 0.512436 60.1889 0.405027 59.6788 0.405027C59.1687 0.405027 58.7017 0.512436 58.2529 0.725017C57.804 0.937598 57.4141 1.23074 57.0854 1.60219C56.7566 1.97365 56.4959 2.40776 56.301 2.90677C56.106 3.40577 56.0085 3.93834 56.0085 4.5C56.0085 5.06167 56.106 5.592 56.301 6.08653C56.4959 6.58106 56.7566 7.01517 57.0854 7.38663C57.4141 7.75808 57.804 8.05122 58.2529 8.2638C58.7017 8.47638 59.1778 8.58379 59.6788 8.58379Z" fill="black"/>
<path d="M61.4289 0.369224L61.8254 -0.548835L61.8222 -0.5502L61.4289 0.369224ZM57.94 8.59946L57.5436 9.51751L57.5449 9.51811L57.94 8.59946ZM63.0702 6.08653L62.1399 5.71977L62.1393 5.7212L63.0702 6.08653ZM62.279 1.60219L61.5347 2.26998L61.5367 2.27221L62.279 1.60219ZM59.6788 0.0179062V1.01791C60.1716 1.01791 60.62 1.11085 61.0356 1.28865L61.4289 0.369224L61.8222 -0.5502C61.1497 -0.837841 60.4329 -0.982094 59.6788 -0.982094V0.0179062ZM61.4289 0.369224L61.0325 1.28728C61.4679 1.4753 61.8389 1.72474 62.1524 2.03417L62.8548 1.32248L63.5573 0.61079C63.0592 0.119126 62.4781 -0.266941 61.8254 -0.548829L61.4289 0.369224ZM62.8548 1.32248L62.1524 2.03417C62.4615 2.33935 62.7094 2.70412 62.8943 3.13663L63.8138 2.74342L64.7332 2.35021C64.4512 1.69072 64.0597 1.10671 63.5573 0.61079L62.8548 1.32248ZM63.8138 2.74342L62.8943 3.13663C63.0723 3.55267 63.1629 4.00007 63.1629 4.48434H64.1629H65.1629C65.1629 3.74236 65.0223 3.02616 64.7332 2.35021L63.8138 2.74342ZM64.1629 4.48434H63.1629C63.1629 4.96861 63.0723 5.41601 62.8943 5.83206L63.8138 6.22527L64.7332 6.61847C65.0223 5.94253 65.1629 5.22633 65.1629 4.48434H64.1629ZM63.8138 6.22527L62.8943 5.83206C62.7094 6.26456 62.4615 6.62933 62.1524 6.93451L62.8548 7.6462L63.5573 8.35789C64.0597 7.86197 64.4512 7.27796 64.7332 6.61847L63.8138 6.22527ZM62.8548 7.6462L62.1524 6.93451C61.8389 7.24394 61.4679 7.49338 61.0325 7.6814L61.4289 8.59946L61.8254 9.51751C62.4781 9.23562 63.0592 8.84956 63.5573 8.35789L62.8548 7.6462ZM61.4289 8.59946L61.0325 7.6814C60.6211 7.85903 60.1721 7.95077 59.6788 7.95077V8.95077V9.95077C60.4278 9.95077 61.1485 9.8098 61.8254 9.51751L61.4289 8.59946ZM59.6788 8.95077V7.95077C59.1889 7.95077 58.7525 7.86032 58.3351 7.68081L57.94 8.59946L57.5449 9.51811C58.2202 9.80851 58.9263 9.95077 59.6788 9.95077V8.95077ZM57.94 8.59946L58.3365 7.6814C57.9011 7.49338 57.5301 7.24394 57.2166 6.93451L56.5141 7.6462L55.8116 8.35789C56.3097 8.84956 56.8908 9.23562 57.5436 9.51751L57.94 8.59946ZM56.5141 7.6462L57.2166 6.93451C56.9074 6.62933 56.6596 6.26456 56.4746 5.83206L55.5551 6.22527L54.6357 6.61847C54.9177 7.27796 55.3092 7.86197 55.8116 8.35789L56.5141 7.6462ZM55.5551 6.22527L56.4746 5.83206C56.2966 5.41579 56.206 4.9706 56.206 4.48434H55.206H54.206C54.206 5.22882 54.3467 5.94275 54.6357 6.61847L55.5551 6.22527ZM55.206 4.48434H56.206C56.206 3.99809 56.2966 3.55289 56.4746 3.13663L55.5551 2.74342L54.6357 2.35021C54.3467 3.02593 54.206 3.73986 54.206 4.48434H55.206ZM55.5551 2.74342L56.4746 3.13663C56.6596 2.70412 56.9074 2.33935 57.2166 2.03417L56.5141 1.32248L55.8116 0.61079C55.3092 1.10671 54.9177 1.69072 54.6357 2.35021L55.5551 2.74342ZM56.5141 1.32248L57.2166 2.03417C57.5301 1.72474 57.9011 1.47531 58.3365 1.28728L57.94 0.369224L57.5436 -0.548829C56.8908 -0.266942 56.3097 0.119125 55.8116 0.61079L56.5141 1.32248ZM57.94 0.369224L58.3365 1.28728C58.7494 1.10896 59.1941 1.01791 59.6788 1.01791V0.0179062V-0.982094C58.9347 -0.982094 58.2188 -0.840427 57.5436 -0.548829L57.94 0.369224ZM59.6788 8.58379V9.58379C60.334 9.58379 60.9602 9.44474 61.5431 9.16588L61.1115 8.2638L60.6799 7.36173C60.3742 7.50803 60.0438 7.58379 59.6788 7.58379V8.58379ZM61.1115 8.2638L61.5431 9.16588C62.1079 8.89564 62.6037 8.52224 63.0234 8.05441L62.279 7.38663L61.5347 6.71884C61.2879 6.99393 61.0038 7.2068 60.6799 7.36173L61.1115 8.2638ZM62.279 7.38663L63.0234 8.05441C63.4416 7.58827 63.7655 7.05226 64.0011 6.45186L63.0702 6.08653L62.1393 5.7212C61.985 6.11433 61.783 6.44208 61.5347 6.71884L62.279 7.38663ZM63.0702 6.08653L64.0005 6.45329C64.2443 5.83499 64.3627 5.17949 64.3627 4.5H63.3627H62.3627C62.3627 4.94384 62.2861 5.349 62.1399 5.71977L63.0702 6.08653ZM63.3627 4.5H64.3627C64.3627 3.82046 64.2443 3.16386 64.0016 2.54286L63.0702 2.90677L62.1388 3.27068C62.2861 3.64769 62.3627 4.05623 62.3627 4.5H63.3627ZM63.0702 2.90677L64.0016 2.54286C63.7672 1.94272 63.4435 1.39988 63.0214 0.932173L62.279 1.60219L61.5367 2.27221C61.781 2.54294 61.9833 2.87281 62.1388 3.27068L63.0702 2.90677ZM62.279 1.60219L63.0234 0.934406C62.6037 0.466583 62.1079 0.0931755 61.5431 -0.177058L61.1115 0.725017L60.6799 1.62709C61.0038 1.78202 61.2879 1.99489 61.5347 2.26998L62.279 1.60219ZM61.1115 0.725017L61.5431 -0.177058C60.9602 -0.455918 60.334 -0.594973 59.6788 -0.594973V0.405027V1.40503C60.0438 1.40503 60.3742 1.48079 60.6799 1.62709L61.1115 0.725017ZM59.6788 0.405027V-0.594973C59.0194 -0.594973 58.4064 -0.454162 57.8248 -0.178751L58.2529 0.725017L58.6809 1.62879C58.9971 1.47903 59.318 1.40503 59.6788 1.40503V0.405027ZM58.2529 0.725017L57.8248 -0.178751C57.2537 0.0917264 56.7547 0.466907 56.3365 0.939486L57.0854 1.60219L57.8342 2.2649C58.0735 1.99456 58.3543 1.78347 58.6809 1.62879L58.2529 0.725017ZM57.0854 1.60219L56.3365 0.939486C55.9235 1.40622 55.6037 1.9436 55.3695 2.54286L56.301 2.90677L57.2324 3.27068C57.3882 2.87192 57.5898 2.54108 57.8342 2.2649L57.0854 1.60219ZM56.301 2.90677L55.3695 2.54286C55.1269 3.16386 55.0085 3.82046 55.0085 4.5H56.0085H57.0085C57.0085 4.05623 57.0851 3.64769 57.2324 3.27068L56.301 2.90677ZM56.0085 4.5H55.0085C55.0085 5.17949 55.1269 5.83499 55.3707 6.45329L56.301 6.08653L57.2313 5.71977C57.0851 5.349 57.0085 4.94384 57.0085 4.5H56.0085ZM56.301 6.08653L55.3707 6.45329C55.6045 7.04647 55.9238 7.58299 56.3365 8.04933L57.0854 7.38663L57.8342 6.72392C57.5895 6.44735 57.3874 6.11564 57.2313 5.71977L56.301 6.08653ZM57.0854 7.38663L56.3365 8.04933C56.7547 8.52191 57.2537 8.89709 57.8248 9.16757L58.2529 8.2638L58.6809 7.36003C58.3543 7.20535 58.0735 6.99426 57.8342 6.72392L57.0854 7.38663ZM58.2529 8.2638L57.8248 9.16757C58.4076 9.44358 59.0299 9.58379 59.6788 9.58379V8.58379V7.58379C59.3257 7.58379 58.9958 7.50918 58.6809 7.36003L58.2529 8.2638Z" fill="black" mask="url(#path-12-inside-6_10_113)"/>
<path d="M67.7722 8.49011L67.7702 8.48914M67.7722 8.49011V8.48718M67.7722 8.49011C67.7709 8.49192 67.7707 8.49156 67.7732 8.48914C67.7741 8.48759 67.775 8.48562 67.7761 8.48328L67.7722 8.48718M67.7722 8.49011V8.48718M67.7702 8.48914L67.7722 8.48718M67.7702 8.48914L67.7722 8.48718M67.7702 8.48914L67.7693 8.48816C67.7683 8.48656 67.7673 8.48459 67.7663 8.4823M67.7722 8.48718V8.47644M67.7722 8.48718L67.7771 8.4823C67.7776 8.48106 67.7777 8.47944 67.778 8.47839L67.7761 8.47253M67.7722 8.48718V8.47644M67.7663 8.4823L67.7722 8.47644M67.7663 8.4823L67.7722 8.47644M67.7663 8.4823L67.7654 8.48132C67.7648 8.47989 67.7647 8.47849 67.7644 8.47742L67.7663 8.47546C67.7676 8.47261 67.7696 8.47008 67.7712 8.46765V8.46667H67.7722M67.7722 8.47644L67.7761 8.47253M67.7722 8.47644V8.46667M67.7722 8.47644L67.7761 8.47253M67.7722 8.47644V8.46667M67.7761 8.47253C67.7751 8.47054 67.774 8.46898 67.7732 8.46765L67.7722 8.46667" fill="black" stroke="black"/>
<path d="M72.1359 1.68058L72.131 1.67667C72.1339 1.67364 72.137 1.67093 72.1398 1.66788C72.1386 1.67214 72.1371 1.67631 72.1359 1.68058Z" fill="black" stroke="black"/>
<mask id="path-16-inside-7_10_113" fill="white">
<path d="M84.3867 2.19294C85.0101 2.19294 85.5474 2.29364 86.0008 2.49279C86.4542 2.69194 86.8305 2.95375 87.1298 3.27374C87.429 3.59373 87.6489 3.95624 87.7917 4.36126C87.9345 4.76629 88.0048 5.17802 88.0048 5.59647C88.0048 6.01492 87.9345 6.42665 87.7917 6.83168C87.6489 7.2367 87.429 7.5992 87.1298 7.91919C86.8305 8.23918 86.4542 8.49876 86.0008 8.70015C85.5474 8.90154 85.0079 9 84.3867 9C83.7656 9 83.2373 8.8993 82.7794 8.70015C82.3215 8.49876 81.9406 8.23918 81.6368 7.91919C81.3331 7.5992 81.1086 7.2367 80.9636 6.83168C80.8162 6.42665 80.7437 6.01492 80.7437 5.59647C80.7437 4.74391 80.8207 4.01218 80.9772 3.40129C81.1336 2.7904 81.3331 2.28021 81.5802 1.864C81.8273 1.45003 82.0993 1.11885 82.3963 0.8727C82.6955 0.624316 82.9857 0.43635 83.2713 0.308802C83.557 0.181253 83.8177 0.0984585 84.0557 0.05818C84.2938 0.0201392 84.4729 0 84.5953 0C85.1303 0 85.5655 0.0693685 85.8988 0.210343C86.232 0.351318 86.4973 0.507956 86.6968 0.678021C86.9212 0.874938 87.0912 1.10094 87.2023 1.35604L86.1912 1.81701C86.2683 1.68051 86.2751 1.52387 86.2116 1.34933C86.1459 1.17479 86.0371 1.0092 85.8807 0.857036C85.7242 0.704873 85.5338 0.572849 85.3094 0.46544C85.0849 0.358031 84.8424 0.306564 84.5839 0.306564C84.0217 0.306564 83.498 0.532571 83.0152 0.984585C82.53 1.4366 82.1537 2.11909 81.8862 3.03207C82.1877 2.77698 82.5459 2.57111 82.9562 2.41671C83.3666 2.26231 83.8449 2.18623 84.389 2.18623L84.3867 2.19294ZM84.3867 8.74714C84.8968 8.74714 85.3298 8.6554 85.6834 8.4719C86.0371 8.28841 86.3272 8.04674 86.5517 7.74913C86.7761 7.45152 86.9416 7.11362 87.0436 6.73769C87.1456 6.36176 87.2 5.98583 87.2 5.6099C87.2 5.23396 87.1479 4.84684 87.0436 4.47091C86.9393 4.09498 86.7761 3.75932 86.5517 3.45947C86.3272 3.16186 86.0371 2.92019 85.6834 2.7367C85.3298 2.55321 84.8968 2.46146 84.3867 2.46146C83.8766 2.46146 83.4527 2.55321 83.09 2.7367C82.7273 2.92019 82.4326 3.16186 82.2081 3.45947C81.9837 3.75709 81.8159 4.09498 81.7094 4.47091C81.6006 4.84684 81.5484 5.22725 81.5484 5.6099C81.5484 5.99254 81.6028 6.36176 81.7094 6.73769C81.8182 7.11362 81.9837 7.44928 82.2081 7.74913C82.4326 8.04674 82.7273 8.28841 83.09 8.4719C83.4527 8.6554 83.8857 8.74714 84.3867 8.74714Z"/>
</mask>
<path d="M84.3867 2.19294C85.0101 2.19294 85.5474 2.29364 86.0008 2.49279C86.4542 2.69194 86.8305 2.95375 87.1298 3.27374C87.429 3.59373 87.6489 3.95624 87.7917 4.36126C87.9345 4.76629 88.0048 5.17802 88.0048 5.59647C88.0048 6.01492 87.9345 6.42665 87.7917 6.83168C87.6489 7.2367 87.429 7.5992 87.1298 7.91919C86.8305 8.23918 86.4542 8.49876 86.0008 8.70015C85.5474 8.90154 85.0079 9 84.3867 9C83.7656 9 83.2373 8.8993 82.7794 8.70015C82.3215 8.49876 81.9406 8.23918 81.6368 7.91919C81.3331 7.5992 81.1086 7.2367 80.9636 6.83168C80.8162 6.42665 80.7437 6.01492 80.7437 5.59647C80.7437 4.74391 80.8207 4.01218 80.9772 3.40129C81.1336 2.7904 81.3331 2.28021 81.5802 1.864C81.8273 1.45003 82.0993 1.11885 82.3963 0.8727C82.6955 0.624316 82.9857 0.43635 83.2713 0.308802C83.557 0.181253 83.8177 0.0984585 84.0557 0.05818C84.2938 0.0201392 84.4729 0 84.5953 0C85.1303 0 85.5655 0.0693685 85.8988 0.210343C86.232 0.351318 86.4973 0.507956 86.6968 0.678021C86.9212 0.874938 87.0912 1.10094 87.2023 1.35604L86.1912 1.81701C86.2683 1.68051 86.2751 1.52387 86.2116 1.34933C86.1459 1.17479 86.0371 1.0092 85.8807 0.857036C85.7242 0.704873 85.5338 0.572849 85.3094 0.46544C85.0849 0.358031 84.8424 0.306564 84.5839 0.306564C84.0217 0.306564 83.498 0.532571 83.0152 0.984585C82.53 1.4366 82.1537 2.11909 81.8862 3.03207C82.1877 2.77698 82.5459 2.57111 82.9562 2.41671C83.3666 2.26231 83.8449 2.18623 84.389 2.18623L84.3867 2.19294ZM84.3867 8.74714C84.8968 8.74714 85.3298 8.6554 85.6834 8.4719C86.0371 8.28841 86.3272 8.04674 86.5517 7.74913C86.7761 7.45152 86.9416 7.11362 87.0436 6.73769C87.1456 6.36176 87.2 5.98583 87.2 5.6099C87.2 5.23396 87.1479 4.84684 87.0436 4.47091C86.9393 4.09498 86.7761 3.75932 86.5517 3.45947C86.3272 3.16186 86.0371 2.92019 85.6834 2.7367C85.3298 2.55321 84.8968 2.46146 84.3867 2.46146C83.8766 2.46146 83.4527 2.55321 83.09 2.7367C82.7273 2.92019 82.4326 3.16186 82.2081 3.45947C81.9837 3.75709 81.8159 4.09498 81.7094 4.47091C81.6006 4.84684 81.5484 5.22725 81.5484 5.6099C81.5484 5.99254 81.6028 6.36176 81.7094 6.73769C81.8182 7.11362 81.9837 7.44928 82.2081 7.74913C82.4326 8.04674 82.7273 8.28841 83.09 8.4719C83.4527 8.6554 83.8857 8.74714 84.3867 8.74714Z" fill="black"/>
<path d="M84.3867 2.19294L83.4394 1.87271L82.9931 3.19294H84.3867V2.19294ZM82.7794 8.70015L82.3768 9.61554L82.3806 9.61718L82.7794 8.70015ZM80.9636 6.83168L81.905 6.49444L81.9033 6.48978L80.9636 6.83168ZM81.5802 1.864L80.7215 1.35146L80.7203 1.3535L81.5802 1.864ZM82.3963 0.8727L83.0344 1.64262L83.035 1.64217L82.3963 0.8727ZM84.0557 0.05818L83.8979 -0.929331L83.8889 -0.927804L84.0557 0.05818ZM86.6968 0.678021L87.3563 -0.0736606L87.3509 -0.0783628L87.3455 -0.0829881L86.6968 0.678021ZM87.2023 1.35604L87.6171 2.26594L88.5116 1.85813L88.1192 0.956799L87.2023 1.35604ZM86.1912 1.81701L85.3205 1.32531L83.8089 4.00216L86.6061 2.7269L86.1912 1.81701ZM86.2116 1.34933L87.1515 1.00753L87.1474 0.996842L86.2116 1.34933ZM83.0152 0.984585L83.6969 1.71623L83.6986 1.71463L83.0152 0.984585ZM81.8862 3.03207L80.9266 2.75089L79.9904 5.94595L82.5321 3.79549L81.8862 3.03207ZM84.389 2.18623L85.3363 2.50646L85.7826 1.18623H84.389V2.18623ZM86.5517 3.45947L87.3523 2.86025L87.3501 2.85738L86.5517 3.45947ZM81.7094 4.47091L82.67 4.74896L82.6715 4.74359L81.7094 4.47091ZM81.7094 6.73769L80.7473 7.01038L80.7488 7.01573L81.7094 6.73769ZM82.2081 7.74913L81.4075 8.34835L81.4097 8.35123L82.2081 7.74913ZM84.3867 2.19294V3.19294C84.9045 3.19294 85.299 3.27673 85.5986 3.40836L86.0008 2.49279L86.403 1.57722C85.7958 1.31054 85.1157 1.19294 84.3867 1.19294V2.19294ZM86.0008 2.49279L85.5986 3.40836C85.9415 3.55896 86.2022 3.74595 86.3994 3.95678L87.1298 3.27374L87.8602 2.59071C87.4588 2.16156 86.9669 1.82493 86.403 1.57722L86.0008 2.49279ZM87.1298 3.27374L86.3994 3.95678C86.6052 4.17682 86.7522 4.42026 86.8486 4.69382L87.7917 4.36126L88.7348 4.02871C88.5456 3.49222 88.2529 3.01065 87.8602 2.59071L87.1298 3.27374ZM87.7917 4.36126L86.8486 4.69382C86.9542 4.99315 87.0048 5.29249 87.0048 5.59647H88.0048H89.0048C89.0048 5.06355 88.9149 4.53942 88.7348 4.02871L87.7917 4.36126ZM88.0048 5.59647H87.0048C87.0048 5.90045 86.9542 6.19979 86.8486 6.49912L87.7917 6.83168L88.7348 7.16423C88.9149 6.65351 89.0048 6.12939 89.0048 5.59647H88.0048ZM87.7917 6.83168L86.8486 6.49912C86.7522 6.77268 86.6052 7.01612 86.3994 7.23616L87.1298 7.91919L87.8602 8.60223C88.2529 8.18229 88.5456 7.70072 88.7348 7.16423L87.7917 6.83168ZM87.1298 7.91919L86.3994 7.23616C86.2039 7.44514 85.9432 7.63151 85.5949 7.78625L86.0008 8.70015L86.4067 9.61405C86.9652 9.366 87.4571 9.03323 87.8602 8.60223L87.1298 7.91919ZM86.0008 8.70015L85.5949 7.78625C85.2998 7.91731 84.9058 8 84.3867 8V9V10C85.1099 10 85.795 9.88577 86.4067 9.61405L86.0008 8.70015ZM84.3867 9V8C83.8747 8 83.4869 7.91735 83.1782 7.78312L82.7794 8.70015L82.3806 9.61718C82.9878 9.88126 83.6564 10 84.3867 10V9ZM82.7794 8.70015L83.182 7.78476C82.8281 7.62912 82.5621 7.44141 82.3621 7.2307L81.6368 7.91919L80.9116 8.60769C81.3191 9.03696 81.8149 9.36839 82.3768 9.61554L82.7794 8.70015ZM81.6368 7.91919L82.3621 7.2307C82.1515 7.00886 82.002 6.76524 81.905 6.49444L80.9636 6.83168L80.0221 7.16891C80.2153 7.70816 80.5147 8.18955 80.9116 8.60769L81.6368 7.91919ZM80.9636 6.83168L81.9033 6.48978C81.7952 6.19272 81.7437 5.8966 81.7437 5.59647H80.7437H79.7437C79.7437 6.13324 79.8372 6.66059 80.0238 7.17357L80.9636 6.83168ZM80.7437 5.59647H81.7437C81.7437 4.79916 81.8163 4.15563 81.9459 3.64935L80.9772 3.40129L80.0084 3.15324C79.8252 3.86873 79.7437 4.68866 79.7437 5.59647H80.7437ZM80.9772 3.40129L81.9459 3.64935C82.0857 3.10325 82.2541 2.68764 82.44 2.3745L81.5802 1.864L80.7203 1.3535C80.412 1.87278 80.1814 2.47756 80.0084 3.15324L80.9772 3.40129ZM81.5802 1.864L82.4388 2.37654C82.6422 2.03579 82.8446 1.79994 83.0344 1.64262L82.3963 0.8727L81.7581 0.102781C81.354 0.437753 81.0123 0.864258 80.7215 1.35146L81.5802 1.864ZM82.3963 0.8727L83.035 1.64217C83.2824 1.43678 83.4958 1.30373 83.6791 1.2219L83.2713 0.308802L82.8636 -0.6043C82.4756 -0.431033 82.1086 -0.188144 81.7576 0.103235L82.3963 0.8727ZM83.2713 0.308802L83.6791 1.2219C83.9073 1.11997 84.0863 1.06722 84.2226 1.04416L84.0557 0.05818L83.8889 -0.927804C83.5491 -0.870303 83.2066 -0.757469 82.8636 -0.6043L83.2713 0.308802ZM84.0557 0.05818L84.2135 1.04565C84.4452 1.00862 84.5577 1 84.5953 1V0V-1C84.388 -1 84.1423 -0.968341 83.8979 -0.92929L84.0557 0.05818ZM84.5953 0V1C85.0572 1 85.345 1.06186 85.5092 1.13132L85.8988 0.210343L86.2884 -0.710639C85.7861 -0.923122 85.2034 -1 84.5953 -1V0ZM85.8988 0.210343L85.5092 1.13132C85.7778 1.24497 85.9473 1.35317 86.048 1.43903L86.6968 0.678021L87.3455 -0.0829881C87.0472 -0.337257 86.6862 -0.542338 86.2884 -0.710639L85.8988 0.210343ZM86.6968 0.678021L86.0372 1.4297C86.1627 1.53978 86.2391 1.64875 86.2855 1.75528L87.2023 1.35604L88.1192 0.956799C87.9434 0.553138 87.6797 0.210098 87.3563 -0.0736606L86.6968 0.678021ZM87.2023 1.35604L86.7875 0.446144L85.7764 0.907109L86.1912 1.81701L86.6061 2.7269L87.6171 2.26594L87.2023 1.35604ZM86.1912 1.81701L87.062 2.30871C87.3097 1.86999 87.2943 1.40049 87.1514 1.00755L86.2116 1.34933L85.2718 1.6911C85.267 1.67772 85.2518 1.62904 85.2551 1.5539C85.2586 1.47432 85.2816 1.39407 85.3205 1.32531L86.1912 1.81701ZM86.2116 1.34933L87.1474 0.996842C87.0254 0.672863 86.8301 0.385545 86.5779 0.140238L85.8807 0.857036L85.1834 1.57383C85.244 1.63285 85.2664 1.67671 85.2758 1.70182L86.2116 1.34933ZM85.8807 0.857036L86.5779 0.140238C86.3372 -0.0939039 86.0551 -0.286281 85.7411 -0.436581L85.3094 0.46544L84.8777 1.36746C85.0125 1.43198 85.1112 1.50365 85.1834 1.57383L85.8807 0.857036ZM85.3094 0.46544L85.7411 -0.436581C85.3707 -0.613818 84.9789 -0.693436 84.5839 -0.693436V0.306564V1.30656C84.7058 1.30656 84.7992 1.32988 84.8777 1.36746L85.3094 0.46544ZM84.5839 0.306564V-0.693436C83.7244 -0.693436 82.9655 -0.338708 82.3318 0.254538L83.0152 0.984585L83.6986 1.71463C84.0306 1.40385 84.319 1.30656 84.5839 1.30656V0.306564ZM83.0152 0.984585L82.3335 0.252943C81.6718 0.869435 81.2239 1.73626 80.9266 2.75089L81.8862 3.03207L82.8459 3.31325C83.0836 2.50193 83.3883 2.00376 83.6969 1.71623L83.0152 0.984585ZM81.8862 3.03207L82.5321 3.79549C82.737 3.62211 82.9932 3.47126 83.3084 3.35264L82.9562 2.41671L82.6041 1.48078C82.0987 1.67095 81.6384 1.93184 81.2403 2.26865L81.8862 3.03207ZM82.9562 2.41671L83.3084 3.35264C83.5812 3.25 83.9353 3.18623 84.389 3.18623V2.18623V1.18623C83.7545 1.18623 83.1519 1.27461 82.6041 1.48078L82.9562 2.41671ZM84.389 2.18623L83.4416 1.866L83.4394 1.87271L84.3867 2.19294L85.334 2.51317L85.3363 2.50646L84.389 2.18623ZM84.3867 8.74714V9.74714C85.013 9.74714 85.6135 9.63479 86.144 9.35954L85.6834 8.4719L85.2229 7.58427C85.0461 7.676 84.7805 7.74714 84.3867 7.74714V8.74714ZM85.6834 8.4719L86.144 9.35954C86.6211 9.112 87.0298 8.77596 87.3501 8.35123L86.5517 7.74913L85.7533 7.14703C85.6247 7.31753 85.4531 7.46483 85.2229 7.58427L85.6834 8.4719ZM86.5517 7.74913L87.3501 8.35123C87.653 7.94952 87.8741 7.49564 88.0087 6.99959L87.0436 6.73769L86.0785 6.4758C86.0091 6.73161 85.8992 6.95351 85.7533 7.14703L86.5517 7.74913ZM87.0436 6.73769L88.0087 6.99959C88.1314 6.54734 88.2 6.08321 88.2 5.6099H87.2H86.2C86.2 5.88845 86.1598 6.17618 86.0785 6.4758L87.0436 6.73769ZM87.2 5.6099H88.2C88.2 5.14292 88.1355 4.6659 88.0072 4.20361L87.0436 4.47091L86.08 4.73821C86.1603 5.02778 86.2 5.32501 86.2 5.6099H87.2ZM87.0436 4.47091L88.0072 4.20361C87.8711 3.713 87.6543 3.26382 87.3523 2.86025L86.5517 3.45947L85.7511 4.05869C85.8979 4.25482 86.0075 4.47696 86.08 4.73821L87.0436 4.47091ZM86.5517 3.45947L87.3501 2.85738C87.0298 2.43264 86.6211 2.0966 86.144 1.84906L85.6834 2.7367L85.2229 3.62433C85.4531 3.74378 85.6247 3.89108 85.7533 4.06157L86.5517 3.45947ZM85.6834 2.7367L86.144 1.84906C85.6135 1.57382 85.013 1.46146 84.3867 1.46146V2.46146V3.46146C84.7805 3.46146 85.0461 3.5326 85.2229 3.62433L85.6834 2.7367ZM84.3867 2.46146V1.46146C83.7544 1.46146 83.1692 1.57597 82.6386 1.84438L83.09 2.7367L83.5414 3.62902C83.7363 3.53044 83.9989 3.46146 84.3867 3.46146V2.46146ZM83.09 2.7367L82.6386 1.84438C82.1518 2.09061 81.7341 2.42723 81.4097 2.85738L82.2081 3.45947L83.0065 4.06157C83.131 3.89649 83.3027 3.74977 83.5414 3.62902L83.09 2.7367ZM82.2081 3.45947L81.4097 2.85738C81.1089 3.25627 80.8867 3.70642 80.7473 4.19823L81.7094 4.47091L82.6715 4.74359C82.7452 4.48354 82.8585 4.2579 83.0065 4.06157L82.2081 3.45947ZM81.7094 4.47091L80.7488 4.19287C80.6133 4.66114 80.5484 5.13526 80.5484 5.6099H81.5484H82.5484C82.5484 5.31924 82.5879 5.03254 82.67 4.74895L81.7094 4.47091ZM81.5484 5.6099H80.5484C80.5484 6.09108 80.6174 6.55204 80.7473 7.01038L81.7094 6.73769L82.6715 6.46501C82.5883 6.17148 82.5484 5.894 82.5484 5.6099H81.5484ZM81.7094 6.73769L80.7488 7.01573C80.8896 7.50217 81.1076 7.94762 81.4075 8.34835L82.2081 7.74913L83.0087 7.14991C82.8598 6.95094 82.7468 6.72508 82.67 6.45965L81.7094 6.73769ZM82.2081 7.74913L81.4097 8.35123C81.7341 8.78137 82.1518 9.11799 82.6386 9.36422L83.09 8.4719L83.5414 7.57958C83.3027 7.45883 83.131 7.31212 83.0065 7.14703L82.2081 7.74913ZM83.09 8.4719L82.6386 9.36422C83.1703 9.63322 83.7651 9.74714 84.3867 9.74714V8.74714V7.74714C84.0063 7.74714 83.7351 7.67757 83.5414 7.57958L83.09 8.4719Z" fill="black" mask="url(#path-16-inside-7_10_113)"/>
</svg>
