<svg width="14" height="13" viewBox="0 0 14 13" fill="none" xmlns="http://www.w3.org/2000/svg">
<path d="M6.96105 3.20235C6.98089 3.20235 7.02058 3.20117 7.04042 3.2C7.66029 3.96921 8.46459 4.56082 9.27706 5.10656C10.3907 5.84284 11.5849 6.45444 12.8235 6.94608C13.0207 7.03547 13.2402 7.06722 13.4282 7.17896C13.497 7.21895 13.5776 7.22836 13.6534 7.24482C13.4877 7.31539 13.3138 7.28599 13.1433 7.25894C8.88717 7.25658 4.63102 7.25894 0.376038 7.25894C0.491605 7.22012 0.597834 7.16014 0.708732 7.11192C1.07761 6.99783 1.43015 6.83552 1.79203 6.69791C2.80879 6.25096 3.7987 5.73816 4.71507 5.10773C5.40964 4.68314 6.04701 4.16916 6.62835 3.59989C6.74742 3.47404 6.84314 3.32937 6.95871 3.20117L6.96105 3.20235Z" fill="#B2BDAE"/>
<path d="M0.00366324 7.4436C4.66488 7.43419 9.3261 7.4483 13.9885 7.43654C14.013 7.96699 13.992 8.49861 13.999 9.02906C13.999 10.0394 13.999 11.0497 13.999 12.0589C14.0025 12.1106 13.9733 12.1553 13.9488 12.1976C13.6301 12.1671 13.3091 12.1976 12.9904 12.1812C12.9309 12.0353 12.9566 11.8813 12.9764 11.7307C12.9741 11.5296 13.0476 11.3402 13.0639 11.1415C13.1141 10.8556 13.2402 10.5875 13.4071 10.3522C13.4632 10.2852 13.4807 10.1746 13.4188 10.1053C13.0966 9.68771 12.911 9.17373 12.8398 8.65269C12.8153 8.47509 12.8877 8.25632 12.7523 8.11283C12.5211 8.06579 12.2923 8.01756 12.0565 8.00345C11.5697 7.96934 11.0888 7.86466 10.5997 7.8776C10.5273 7.89171 10.5623 7.98816 10.5518 8.03991C10.5518 9.40779 10.5542 10.7768 10.5495 12.1447C10.372 12.2176 10.1748 12.1718 9.98799 12.1835C9.91795 12.1976 9.86658 12.1459 9.83039 12.093C9.81872 11.8495 9.82689 11.606 9.85841 11.3649C9.85024 11.1685 9.91911 10.9838 9.9518 10.7945C9.98799 10.584 10.0907 10.3946 10.1584 10.1935C9.9588 9.83826 9.85257 9.43249 9.80822 9.02789C9.75335 8.82441 9.75218 8.61623 9.74284 8.40805C9.70666 8.22457 9.73351 8.03638 9.71249 7.85172C9.66113 7.77998 9.5584 7.80468 9.48369 7.78115C9.05761 7.7494 8.62686 7.79644 8.20195 7.73528C7.31126 7.7294 6.41941 7.72705 5.52872 7.73881C5.12949 7.81291 4.71741 7.72235 4.32051 7.80821C4.25281 7.99522 4.29483 8.19634 4.27732 8.39158C4.2423 8.6374 4.21896 8.8844 4.19911 9.13257C4.16176 9.29135 4.10922 9.44543 4.09171 9.60891C4.03685 9.79004 3.95514 9.96294 3.88042 10.1358C3.8349 10.3111 3.98315 10.4452 4.00066 10.6122C4.06837 10.8415 4.14775 11.0709 4.13607 11.3143C4.1816 11.5743 4.22596 11.8366 4.20145 12.1012C4.1851 12.1318 4.16176 12.1588 4.14074 12.1859C3.94463 12.1824 3.74968 12.1824 3.55357 12.1859C3.51855 12.1494 3.48353 12.113 3.44734 12.0777C3.44734 10.6945 3.44967 9.31017 3.44734 7.927C3.39247 7.83173 3.26873 7.88701 3.18002 7.88113C2.97456 7.92582 2.76211 7.88936 2.55665 7.93641C2.22513 8.00698 1.88193 7.97993 1.5504 8.05167C1.4325 8.07637 1.31576 8.1046 1.19903 8.13636C1.2037 8.34571 1.19319 8.55507 1.14183 8.75855C1.09513 9.17844 0.937541 9.58539 0.706407 9.93824C0.645704 10.0453 0.502121 10.1394 0.553484 10.2793C0.628194 10.3993 0.726251 10.5063 0.778782 10.6404C0.921198 10.9862 1.02159 11.3555 1.01926 11.7331C1.02976 11.8813 1.13015 12.1224 0.9247 12.1777C0.6959 12.1965 0.464766 12.1812 0.234798 12.1859C0.153084 12.1941 0.0772061 12.1635 0.00249589 12.1353C0.000161199 10.571 -0.0021735 9.00672 0.00366324 7.44242V7.4436ZM3.85941 8.45157C3.81622 8.71503 3.76719 8.97966 3.77186 9.24783C3.77069 9.38309 3.717 9.50894 3.69015 9.63949C3.66096 9.74652 3.66913 9.86061 3.62944 9.96529C3.60026 10.0594 3.52672 10.1358 3.51271 10.2346C3.56641 10.3464 3.65629 10.4475 3.6598 10.5792C3.6633 10.8227 3.7882 11.0485 3.7742 11.2932C3.7812 11.3884 3.74968 11.5025 3.83256 11.5731C3.94463 11.3132 3.85825 11.0191 3.84657 10.7463C3.85358 10.5557 3.71583 10.3922 3.73567 10.1993C3.71933 10.0417 3.83023 9.91354 3.85124 9.76299C3.88159 9.57833 3.96097 9.40191 3.9528 9.21254C3.94813 8.79736 3.96681 8.37982 3.93879 7.96464C3.85941 8.11636 3.8991 8.28926 3.86058 8.45039L3.85941 8.45157ZM10.0452 8.17164C10.0429 8.40923 10.0417 8.64563 10.0452 8.88322C10.0382 9.12904 10.1257 9.36662 10.1176 9.61362C10.1643 9.81356 10.2343 10.0088 10.2973 10.2041C10.2308 10.4428 10.1713 10.6839 10.1199 10.9262C10.1141 11.1861 10.1094 11.4473 10.1257 11.7072C10.1409 11.6931 10.1701 11.6625 10.1841 11.6484C10.1794 11.3908 10.2892 11.1497 10.2962 10.8921C10.2892 10.651 10.4479 10.4428 10.4444 10.2017C10.4281 10.0065 10.3452 9.82533 10.3032 9.63596C10.2938 9.40544 10.2145 9.18667 10.1934 8.95849C10.1993 8.69386 10.1386 8.4351 10.1549 8.17046C10.1187 8.17164 10.0825 8.17282 10.0464 8.17164H10.0452ZM0.572162 8.76325C0.535974 8.87734 0.559321 9.00084 0.534806 9.11728C0.504455 9.22195 0.457761 9.32193 0.441419 9.43014C0.420406 9.58774 0.348031 9.73006 0.297835 9.87943C0.256978 9.99822 0.168259 10.1053 0.178765 10.237C0.175263 10.3699 0.276823 10.471 0.311843 10.5934C0.355035 10.7439 0.420406 10.8909 0.435582 11.0485C0.437917 11.3132 0.547647 11.5613 0.566325 11.8248C0.632864 11.6425 0.617688 11.4484 0.617688 11.2579C0.623525 11.0697 0.540643 10.8956 0.516129 10.711C0.505623 10.511 0.314178 10.3534 0.369043 10.1441C0.461264 9.89002 0.608349 9.64537 0.622357 9.36897C0.634031 9.22666 0.688896 9.0914 0.692398 8.94908C0.698235 8.77736 0.6959 8.60564 0.691231 8.43393C0.651541 8.54331 0.604847 8.65152 0.573329 8.76443L0.572162 8.76325ZM13.3523 8.61153C13.3301 8.8103 13.3406 9.01142 13.3476 9.21137C13.4142 9.46307 13.4515 9.72418 13.5682 9.96058C13.6079 10.0688 13.7118 10.1758 13.6535 10.297C13.5496 10.531 13.4433 10.7757 13.4492 11.038C13.4352 11.2344 13.3628 11.4531 13.4737 11.6343C13.5507 11.4708 13.4994 11.2861 13.5647 11.1203C13.6336 10.925 13.6359 10.711 13.7328 10.524C13.7737 10.4075 13.8846 10.3017 13.8484 10.1688C13.797 10.0594 13.7387 9.95235 13.692 9.83944C13.5647 9.54069 13.5251 9.21725 13.427 8.91027C13.4107 8.80794 13.434 8.69268 13.3546 8.61153H13.3523Z" fill="#B2BDAE"/>
<path d="M1.00015 0.199997H13.0002" stroke="#4A4C34" stroke-width="0.4"/>
</svg>
